<svg xmlns="http://www.w3.org/2000/svg" viewBox="0 0 38.59 45.09"><title>Asset 8</title><path d="M8,30.82a.48.48,0,0,0-.46.3L2.24,44.72c-.07.18.11.34.41.37a.65.65,0,0,0,.65-.28L8.19,31.17A.25.25,0,0,0,8,30.82Z" style="fill:#8ac0cf"/><path d="M15.54,30.82a.48.48,0,0,0-.46.3L9.82,44.72c-.07.18.11.34.41.37a.65.65,0,0,0,.65-.28l4.89-13.63A.25.25,0,0,0,15.54,30.82Z" style="fill:#8ac0cf"/><path d="M23.12,30.82a.48.48,0,0,0-.46.3l-5.26,13.6c-.07.18.11.34.41.37a.65.65,0,0,0,.65-.28l4.89-13.63A.25.25,0,0,0,23.12,30.82Z" style="fill:#8ac0cf"/><path d="M30.7,30.82a.48.48,0,0,0-.46.3L25,44.72c-.07.18.11.34.41.37A.65.65,0,0,0,26,44.8l4.89-13.63A.25.25,0,0,0,30.7,30.82Z" style="fill:#8ac0cf"/><path d="M33.23,9.21c0-.14,0-.28,0-.41,0-3.3-3.05-6-6.81-6a7.56,7.56,0,0,0-3.31.76A8.81,8.81,0,0,0,16.1,0a9.27,9.27,0,0,0-9,8.33C2.9,9.4,0,12.77,0,16.61c0,4.77,4.44,8.65,9.9,8.65a10.93,10.93,0,0,0,5.32-1.35,6.94,6.94,0,0,0,4.68,2.48,8,8,0,0,0,.88,0,7.77,7.77,0,0,0,1.6-.17A7.16,7.16,0,0,0,25.22,25a11.15,11.15,0,0,0,3.47.55c5.46,0,9.9-3.88,9.9-8.65A8.62,8.62,0,0,0,33.23,9.21Z" style="fill:#8ac0cf"/></svg>