<svg xmlns="http://www.w3.org/2000/svg" viewBox="0 0 46.4 59.68"><title>Asset 12</title><path d="M34.69,45.71c0,1.11.46,1.61,1,1.61s1-.5,1-1.61-.8-2.64-1-3.75C35.5,43.08,34.69,44.6,34.69,45.71Z" style="fill:#8ac0cf"/><path d="M28.76,54.14c0,1.11.46,1.6,1,1.6s1-.5,1-1.6-.8-2.64-1-3.75C29.58,51.5,28.76,53,28.76,54.14Z" style="fill:#8ac0cf"/><path d="M20.06,51.46c0,1.11.46,1.61,1,1.61s1-.5,1-1.61-.8-2.64-1-3.75C20.87,48.82,20.06,50.35,20.06,51.46Z" style="fill:#8ac0cf"/><path d="M14.37,58.08c0,1.11.46,1.61,1,1.61s1-.5,1-1.61-.8-2.64-1-3.75C15.19,55.44,14.37,57,14.37,58.08Z" style="fill:#8ac0cf"/><path d="M10.17,49.55c0,1.11.46,1.61,1,1.61s1-.5,1-1.61-.8-2.64-1-3.75C11,46.92,10.17,48.45,10.17,49.55Z" style="fill:#8ac0cf"/><circle cx="23.2" cy="23.2" r="14.65" transform="translate(-8.59 15.1) rotate(-30.7)" style="fill:#fed391"/><path d="M11.45,11.81l.35-.35L7.15,6.8a.25.25,0,0,0-.35.35Z" style="fill:#fecd81"/><path d="M15.44,4.46a.25.25,0,0,0-.14.33l1.41,3.4L17.17,8l-1.41-3.4A.25.25,0,0,0,15.44,4.46Z" style="fill:#fecd81"/><path d="M23.2,0a.25.25,0,0,0-.25.25V6.84h.5V.25A.25.25,0,0,0,23.2,0Z" style="fill:#fecd81"/><path d="M8,17.17l.19-.46L4.78,15.3a.25.25,0,1,0-.19.46Z" style="fill:#fecd81"/><path d="M38.4,17.17l3.4-1.41a.25.25,0,1,0-.19-.46l-3.4,1.41C38.28,16.86,38.34,17,38.4,17.17Z" style="fill:#fecd81"/><path d="M6.84,22.95H.25a.25.25,0,0,0,0,.5H6.84C6.83,23.28,6.84,23.12,6.84,22.95Z" style="fill:#fecd81"/><path d="M39.6,7.15a.25.25,0,1,0-.35-.35l-4.66,4.66.35.35Z" style="fill:#fecd81"/><path d="M31.1,4.78a.25.25,0,1,0-.46-.19L29.23,8l.46.19Z" style="fill:#fecd81"/><path d="M46.15,22.95H39.56c0,.17,0,.33,0,.5h6.59a.25.25,0,0,0,0-.5Z" style="fill:#fecd81"/><path d="M34.94,34.59l-.35.35,4.66,4.66a.25.25,0,1,0,.35-.35Z" style="fill:#fecd81"/><path d="M38.41,29.23l-.19.46,3.4,1.41.1,0a.25.25,0,0,0,.1-.48Z" style="fill:#fecd81"/><path d="M8,29.23l-3.4,1.41a.25.25,0,0,0,.1.48l.1,0,3.4-1.41C8.11,29.54,8.05,29.38,8,29.23Z" style="fill:#fecd81"/><path d="M29.23,38.41l1.41,3.4a.25.25,0,0,0,.23.15l.1,0a.25.25,0,0,0,.14-.33l-1.41-3.39Z" style="fill:#fecd81"/><path d="M6.79,39.25a.25.25,0,1,0,.35.35l4.66-4.66-.35-.35Z" style="fill:#fecd81"/><path d="M15.3,41.62a.25.25,0,0,0,.14.33l.1,0a.25.25,0,0,0,.23-.15l1.41-3.4-.46-.19Z" style="fill:#fecd81"/><path d="M22.95,46.15a.25.25,0,0,0,.5,0V39.56h-.5Z" style="fill:#fecd81"/><path d="M42.44,25c0-.08,0-.16,0-.24,0-1.95-2.09-3.53-4.65-3.53a5.85,5.85,0,0,0-2.26.44,6.38,6.38,0,0,0-4.8-2.1,6.05,6.05,0,0,0-6.16,4.91c-2.87.64-4.85,2.62-4.85,4.89,0,2.81,3,5.1,6.77,5.1a8.41,8.41,0,0,0,3.63-.8,5,5,0,0,0,3.2,1.46l.6,0A6.05,6.05,0,0,0,35,35.1,5.29,5.29,0,0,0,37,34.34a8.7,8.7,0,0,0,2.37.32c3.73,0,6.77-2.29,6.77-5.1C46.11,27.66,44.68,25.9,42.44,25Z" style="fill:#8ac0cf"/></svg>