<svg xmlns="http://www.w3.org/2000/svg" viewBox="0 0 37.71 37.71"><title>Asset 15</title><path d="M36.71,17.9H36c-.55,0-.68-.32-.29-.71l.25-.25c.39-.39.52-.89.29-1.12s-.73-.09-1.12.29L34.1,17.19a2.78,2.78,0,0,1-1.71.71H31.13c-.55,0-.68-.32-.29-.71L33,15c.39-.39.52-.89.29-1.12s-.73-.09-1.12.29l-3,3a2.78,2.78,0,0,1-1.71.71H25.62a6.8,6.8,0,0,0-1.31-3.15l1.31-1.31a2.78,2.78,0,0,1,1.71-.71h4.23c.55,0,1-.26,1-.58s-.45-.58-1-.58H28.5c-.55,0-.68-.32-.29-.71l.9-.9a2.78,2.78,0,0,1,1.71-.71h1.52c.55,0,1-.26,1-.58s-.45-.58-1-.58H32c-.55,0-.68-.32-.29-.71l.47-.47A1,1,0,1,0,30.8,5.55L30.33,6c-.39.39-.71.26-.71-.29V5.38c0-.55-.26-1-.58-1s-.58.45-.58,1V6.9a2.78,2.78,0,0,1-.71,1.71l-.9.9c-.39.39-.71.26-.71-.29V6.14c0-.55-.26-1-.58-1s-.58.45-.58,1v4.23a2.78,2.78,0,0,1-.71,1.71L23,13.39a6.8,6.8,0,0,0-3.15-1.31V10.23a2.78,2.78,0,0,1,.71-1.71l3-3c.39-.39.52-.89.29-1.12s-.73-.09-1.12.29L20.52,6.87c-.39.39-.71.26-.71-.29V5.31a2.78,2.78,0,0,1,.71-1.71l1.07-1.07c.39-.39.52-.89.3-1.12s-.73-.09-1.12.29L20.52,2c-.39.39-.71.26-.71-.29V1a1,1,0,1,0-1.92,0v.66c0,.55-.32.68-.71.29l-.25-.25c-.39-.39-.89-.52-1.12-.29s-.09.73.29,1.12l1.07,1.07a2.78,2.78,0,0,1,.71,1.71V6.58c0,.55-.32.68-.71.29L15,4.7c-.39-.39-.89-.52-1.12-.29s-.09.73.29,1.12l3,3a2.78,2.78,0,0,1,.71,1.71v1.85a6.8,6.8,0,0,0-3.15,1.31l-1.31-1.31a2.78,2.78,0,0,1-.71-1.71V6.14c0-.55-.26-1-.58-1s-.58.45-.58,1V9.21c0,.55-.32.68-.71.29L10,8.6A2.78,2.78,0,0,1,9.25,6.9V5.38c0-.55-.26-1-.58-1s-.58.45-.58,1v.35c0,.55-.32.68-.71.29l-.47-.47A1,1,0,1,0,5.55,6.91L6,7.38c.39.39.26.71-.29.71H5.38c-.55,0-1,.26-1,.58s.45.58,1,.58H6.89A2.78,2.78,0,0,1,8.6,10l.9.9c.39.39.26.71-.29.71H6.14c-.55,0-1,.26-1,.58s.45.58,1,.58h4.23a2.78,2.78,0,0,1,1.71.71l1.31,1.31a6.8,6.8,0,0,0-1.31,3.15H10.23a2.78,2.78,0,0,1-1.71-.71l-3-3c-.39-.39-.89-.52-1.12-.29s-.09.73.29,1.12l2.17,2.17c.39.39.26.71-.29.71H5.31a2.78,2.78,0,0,1-1.71-.71L2.53,16.11c-.39-.39-.89-.52-1.12-.29s-.09.73.29,1.12l.25.25c.39.39.26.71-.29.71H1a1,1,0,1,0,0,1.92h.66c.55,0,.68.32.29.71l-.25.25c-.39.39-.52.89-.29,1.12s.73.09,1.12-.29l1.07-1.07a2.78,2.78,0,0,1,1.71-.71H6.58c.55,0,.68.32.29.71L4.7,22.69c-.39.39-.52.89-.29,1.12s.73.09,1.12-.29l3-3a2.78,2.78,0,0,1,1.71-.71h1.85A6.8,6.8,0,0,0,13.39,23l-1.31,1.31a2.78,2.78,0,0,1-1.71.71H6.14c-.55,0-1,.26-1,.58s.45.58,1,.58H9.2c.55,0,.68.32.29.71l-.9.9a2.78,2.78,0,0,1-1.71.71H5.37c-.55,0-1,.26-1,.58s.45.58,1,.58h.35c.55,0,.68.32.29.71l-.47.47a1,1,0,1,0,1.35,1.36l.47-.47c.39-.39.71-.26.71.29v.35c0,.55.26,1,.58,1s.58-.45.58-1V30.81A2.78,2.78,0,0,1,10,29.11l.9-.9c.39-.39.71-.26.71.29v3.07c0,.55.26,1,.58,1s.58-.45.58-1V27.34a2.78,2.78,0,0,1,.71-1.71l1.31-1.31a6.8,6.8,0,0,0,3.15,1.31v1.85a2.78,2.78,0,0,1-.71,1.71l-3,3c-.39.39-.52.89-.29,1.12s.73.09,1.12-.29l2.17-2.17c.39-.39.71-.26.71.29v1.27a2.78,2.78,0,0,1-.71,1.71l-1.07,1.07c-.39.39-.52.89-.29,1.12s.73.09,1.12-.29l.25-.25c.39-.39.71-.26.71.29v.66a1,1,0,1,0,1.92,0V36c0-.55.32-.68.71-.29l.25.25c.39.39.89.52,1.12.29s.09-.73-.3-1.12L20.52,34.1a2.78,2.78,0,0,1-.71-1.71V31.13c0-.55.32-.68.71-.29L22.69,33c.39.39.89.52,1.12.29s.09-.73-.29-1.12l-3-3a2.78,2.78,0,0,1-.71-1.71V25.62A6.8,6.8,0,0,0,23,24.32l1.31,1.31A2.78,2.78,0,0,1,25,27.34v4.23c0,.55.26,1,.58,1s.58-.45.58-1V28.5c0-.55.32-.68.71-.29l.9.9a2.78,2.78,0,0,1,.71,1.71v1.52c0,.55.26,1,.58,1s.58-.45.58-1V32c0-.55.32-.68.71-.29l.47.47a1,1,0,1,0,1.36-1.36l-.47-.47c-.39-.39-.26-.71.29-.71h.35c.55,0,1-.26,1-.58s-.45-.58-1-.58H30.81a2.78,2.78,0,0,1-1.71-.71l-.9-.9c-.39-.39-.26-.71.29-.71h3.07c.55,0,1-.26,1-.58s-.45-.58-1-.58H27.33a2.78,2.78,0,0,1-1.71-.71L24.32,23a6.8,6.8,0,0,0,1.31-3.15h1.85a2.78,2.78,0,0,1,1.71.71l3,3c.39.39.89.52,1.12.29s.09-.73-.29-1.12l-2.17-2.17c-.39-.39-.26-.71.29-.71h1.27a2.78,2.78,0,0,1,1.71.71l1.07,1.07c.39.39.89.52,1.12.29s.09-.73-.29-1.12l-.25-.25c-.39-.39-.26-.71.29-.71h.66a1,1,0,1,0,0-1.92Zm-12.5,0h-2c-.55,0-.68-.32-.29-.71l1.45-1.45A5.41,5.41,0,0,1,24.21,17.9ZM22,14.39l-1.45,1.45c-.39.39-.71.26-.71-.29v-2A5.41,5.41,0,0,1,22,14.39Zm-4.07-.89v2c0,.55-.32.68-.71.29l-1.45-1.45A5.41,5.41,0,0,1,17.89,13.5Zm-3.51,2.25,1.45,1.44c.39.39.26.71-.29.71h-2A5.41,5.41,0,0,1,14.39,15.74Zm-.89,4.07h2c.55,0,.68.32.29.71L14.39,22A5.41,5.41,0,0,1,13.5,19.81Zm2.25,3.51,1.44-1.45c.39-.39.71-.26.71.29v2A5.41,5.41,0,0,1,15.74,23.32Zm4.07.89v-2c0-.55.32-.68.71-.29L22,23.32A5.41,5.41,0,0,1,19.81,24.21ZM23.32,22l-1.45-1.45c-.39-.39-.26-.71.29-.71h2A5.42,5.42,0,0,1,23.32,22Z" style="fill:#b6d7e1"/></svg>