<svg xmlns="http://www.w3.org/2000/svg" viewBox="0 0 49 49"><title>chancerain_1</title><circle cx="25.14" cy="22.86" r="11.86" transform="translate(-8.15 16.04) rotate(-30.7)" style="fill:#fed391"/><path d="M15.64,13.64l.29-.29L12.15,9.58a.2.2,0,1,0-.29.29Z" style="fill:#fecd81"/><path d="M18.86,7.69a.2.2,0,0,0-.11.26l1.14,2.75.38-.15L19.12,7.8A.2.2,0,0,0,18.86,7.69Z" style="fill:#fecd81"/><path d="M25.14,4.08a.2.2,0,0,0-.2.2V9.61h.4V4.28A.2.2,0,0,0,25.14,4.08Z" style="fill:#fecd81"/><path d="M12.83,18,13,17.6l-2.75-1.14a.2.2,0,0,0-.15.37Z" style="fill:#fecd81"/><path d="M37.45,18l2.75-1.14a.2.2,0,0,0-.15-.37L37.3,17.6Z" style="fill:#fecd81"/><path d="M11.9,22.65H6.57a.2.2,0,0,0,0,.4H11.9C11.9,22.92,11.9,22.79,11.9,22.65Z" style="fill:#fecd81"/><path d="M38.42,9.87a.2.2,0,1,0-.29-.29l-3.77,3.77.29.29Z" style="fill:#fecd81"/><path d="M31.54,8a.2.2,0,0,0-.37-.15L30,10.55l.37.15Z" style="fill:#fecd81"/><path d="M43.72,22.65H38.39c0,.14,0,.27,0,.4h5.34a.2.2,0,0,0,0-.4Z" style="fill:#fecd81"/><path d="M42.11,23.73a2,2,0,0,0,0-.22c0-1.78-2-3.22-4.49-3.22a5.94,5.94,0,0,0-2.18.41,6.34,6.34,0,0,0-4.64-1.91c-3,0-5.53,1.91-5.95,4.47-2.77.58-4.68,2.39-4.68,4.45,0,2.56,2.93,4.65,6.54,4.65a8.54,8.54,0,0,0,3.51-.73A5,5,0,0,0,33.32,33l.58,0A6.2,6.2,0,0,0,35,32.9a5.28,5.28,0,0,0,1.87-.69,8.88,8.88,0,0,0,2.29.29c3.6,0,6.53-2.08,6.53-4.65C45.65,26.12,44.27,24.52,42.11,23.73Z" style="fill:#8ac0cf"/><path d="M25.76,27.43a1.79,1.79,0,0,0,0-.18c0-1.45-1.55-2.63-3.46-2.63a4.34,4.34,0,0,0-1.68.33,4.74,4.74,0,0,0-3.57-1.56A4.5,4.5,0,0,0,12.48,27c-2.13.47-3.6,2-3.6,3.64,0,2.1,2.26,3.8,5,3.8a6.24,6.24,0,0,0,2.7-.6A3.71,3.71,0,0,0,19,35l.45,0a4.49,4.49,0,0,0,.81-.07,3.92,3.92,0,0,0,1.44-.56,6.45,6.45,0,0,0,1.76.24c2.77,0,5-1.71,5-3.8A3.85,3.85,0,0,0,25.76,27.43Z" style="fill:#cae2e9"/><path d="M36.15,37.59c0,1.14.47,1.65,1.05,1.65s1.05-.51,1.05-1.65-.82-2.72-1.05-3.87C37,34.87,36.15,36.44,36.15,37.59Z" style="fill:#5da7bd"/><path d="M29.44,42c0,1.14.47,1.65,1.05,1.65s1.05-.51,1.05-1.65-.82-2.72-1.05-3.87C30.28,39.24,29.44,40.82,29.44,42Z" style="fill:#5da7bd"/><path d="M23.65,39.06c0,1.14.47,1.66,1.05,1.66s1.05-.51,1.05-1.66-.82-2.72-1.05-3.87C24.49,36.34,23.65,37.91,23.65,39.06Z" style="fill:#5da7bd"/><path d="M18.68,43.51c0,1.14.47,1.66,1.05,1.66s1.05-.51,1.05-1.66-.82-2.72-1.05-3.87C19.52,40.8,18.68,42.37,18.68,43.51Z" style="fill:#5da7bd"/><path d="M13.6,38.2c0,1.14.47,1.66,1.05,1.66s1.05-.51,1.05-1.66-.82-2.72-1.05-3.87C14.44,35.48,13.6,37.06,13.6,38.2Z" style="fill:#5da7bd"/><rect width="49" height="49" style="fill:none"/></svg>