<svg xmlns="http://www.w3.org/2000/svg" viewBox="0 0 38.59 41.36"><title>Asset 14</title><path d="M33.23,9.21c0-.14,0-.28,0-.41,0-3.3-3.05-6-6.81-6a7.56,7.56,0,0,0-3.31.76A8.81,8.81,0,0,0,16.1,0a9.27,9.27,0,0,0-9,8.33C2.9,9.4,0,12.77,0,16.61c0,4.77,4.44,8.65,9.9,8.65a10.93,10.93,0,0,0,5.32-1.35,6.94,6.94,0,0,0,4.68,2.48,8,8,0,0,0,.88,0,7.78,7.78,0,0,0,1.6-.17A7.16,7.16,0,0,0,25.22,25a11.15,11.15,0,0,0,3.47.55c5.46,0,9.9-3.88,9.9-8.65A8.62,8.62,0,0,0,33.23,9.21Z" style="fill:#b6d7e1"/><path d="M19.06,33.69a1,1,0,0,0-.31-.08.74.74,0,0,1-.26-.06c-.07,0,0-.24.07-.26a1.59,1.59,0,0,0,.15-.22s.11-.18,0-.27-.27,0-.27,0a1.86,1.86,0,0,0-.31.24L18,33.2a2,2,0,0,1-.31.24l-.31.13a2,2,0,0,1-.39,0h-.1a.93.93,0,0,1-.33-.06c-.07,0,.08-.28.16-.35l.57-.57a1.8,1.8,0,0,0,.24-.31s.11-.18,0-.27-.27,0-.27,0a1.84,1.84,0,0,0-.31.24l-.9.89a2,2,0,0,1-.31.24l-.31.13a2,2,0,0,1-.39,0h-.33a.27.27,0,0,1-.25-.19l-.36-.87a.27.27,0,0,1,0-.31l.24-.24a2,2,0,0,1,.31-.24l.31-.13a2,2,0,0,1,.39,0h1.27a1.84,1.84,0,0,0,.39,0s.2-.05.2-.18-.2-.18-.2-.18a1.84,1.84,0,0,0-.39,0h-.81a.93.93,0,0,1-.33-.06c-.07,0,.08-.28.16-.35l.07-.07a2,2,0,0,1,.31-.24l.31-.13a2,2,0,0,1,.39,0H17a1.83,1.83,0,0,0,.39,0s.2-.05.2-.18-.2-.18-.2-.18l-.26,0a.68.68,0,0,1-.2-.06c-.07,0,.06-.26.11-.31a1,1,0,0,0,.16-.27.31.31,0,0,0-.42-.42,1,1,0,0,0-.27.16.75.75,0,0,1-.23.14c-.08,0-.14-.2-.14-.23a1.54,1.54,0,0,0,0-.26s-.05-.2-.18-.2-.18.2-.18.2a1.79,1.79,0,0,0-.05.38v.2a2,2,0,0,1,0,.39l-.13.31a2,2,0,0,1-.24.31l-.07.07a.91.91,0,0,1-.28.19c-.08,0-.14-.25-.14-.36v-.81a1.83,1.83,0,0,0,0-.39s-.05-.2-.18-.2-.18.2-.18.2a1.83,1.83,0,0,0,0,.39v1.27a2,2,0,0,1,0,.39l-.13.31a2,2,0,0,1-.24.31l-.24.24a.27.27,0,0,1-.31,0l-.87-.36a.27.27,0,0,1-.19-.25v-.33a2,2,0,0,1,0-.39l.13-.31a2.05,2.05,0,0,1,.24-.31l.9-.89a1.86,1.86,0,0,0,.24-.31s.1-.18,0-.27-.27,0-.27,0a1.88,1.88,0,0,0-.31.24l-.57.57a.92.92,0,0,1-.28.19c-.08,0-.14-.25-.14-.36v-.1a2,2,0,0,1,0-.39l.13-.31a2,2,0,0,1,.24-.31l.14-.14a1.86,1.86,0,0,0,.24-.31s.11-.18,0-.27-.27,0-.27,0l-.22.15a.63.63,0,0,1-.19.1c-.08,0-.14-.22-.14-.29a1,1,0,0,0-.08-.31.31.31,0,0,0-.59,0,1,1,0,0,0-.08.31.74.74,0,0,1-.06.26c0,.07-.24,0-.26-.07L11,27.18s-.18-.11-.27,0,0,.27,0,.27a1.91,1.91,0,0,0,.24.31l.14.14a2,2,0,0,1,.24.31l.13.31a2,2,0,0,1,0,.39V29a.93.93,0,0,1-.06.33c0,.07-.28-.08-.35-.16l-.57-.57a1.86,1.86,0,0,0-.31-.24s-.18-.11-.27,0,0,.27,0,.27a1.86,1.86,0,0,0,.24.31l.9.9a2,2,0,0,1,.24.31l.13.31a2,2,0,0,1,0,.39v.33a.27.27,0,0,1-.19.25l-.87.36a.27.27,0,0,1-.31,0l-.24-.24a2,2,0,0,1-.24-.3l-.13-.31a2,2,0,0,1,0-.39V29.21a1.8,1.8,0,0,0-.05-.39s-.05-.2-.18-.2-.18.2-.18.2a1.81,1.81,0,0,0-.05.39V30a.94.94,0,0,1-.06.33c0,.07-.28-.08-.35-.16l-.07-.07a2,2,0,0,1-.24-.31l-.13-.31a2,2,0,0,1,0-.39v-.2a1.79,1.79,0,0,0,0-.38s-.05-.2-.18-.2-.18.2-.18.2a1.49,1.49,0,0,0,0,.26.67.67,0,0,1-.06.2c0,.07-.26-.06-.31-.11A1,1,0,0,0,7,28.71a.31.31,0,0,0-.42.42,1,1,0,0,0,.16.27.75.75,0,0,1,.14.23c0,.08-.2.14-.23.14l-.26,0s-.2.05-.2.18.2.18.2.18a1.82,1.82,0,0,0,.38.05H7a2,2,0,0,1,.39,0l.31.13a2,2,0,0,1,.31.24l.07.07a1,1,0,0,1,.19.28c0,.08-.25.14-.36.14H7.12a1.83,1.83,0,0,0-.39,0s-.2.05-.2.18.2.18.2.18a1.83,1.83,0,0,0,.39,0H8.38a2,2,0,0,1,.39,0l.31.13a2,2,0,0,1,.3.24l.24.24a.27.27,0,0,1,0,.31l-.36.87a.27.27,0,0,1-.25.19H8.72a2,2,0,0,1-.39,0L8,33.44a2,2,0,0,1-.3-.24l-.9-.89a1.85,1.85,0,0,0-.31-.24s-.18-.11-.27,0,0,.27,0,.27a1.83,1.83,0,0,0,.24.31l.57.57a.94.94,0,0,1,.19.28c0,.08-.25.14-.36.14h-.1a2,2,0,0,1-.39,0l-.31-.13a2,2,0,0,1-.31-.24l-.14-.14a1.9,1.9,0,0,0-.31-.24s-.18-.1-.27,0,0,.27,0,.27a1.51,1.51,0,0,0,.15.22.64.64,0,0,1,.1.19c0,.08-.22.14-.29.14a1,1,0,0,0-.31.08.31.31,0,0,0,0,.59,1,1,0,0,0,.31.08.74.74,0,0,1,.26.06c.07,0,0,.24-.07.26a1.57,1.57,0,0,0-.15.22s-.11.18,0,.27.27,0,.27,0a1.87,1.87,0,0,0,.31-.24l.14-.14a2,2,0,0,1,.31-.24l.31-.13a2,2,0,0,1,.39,0h.1a.93.93,0,0,1,.33.06c.07,0-.08.28-.16.35l-.57.57a1.85,1.85,0,0,0-.24.31s-.1.18,0,.27.27,0,.27,0a1.86,1.86,0,0,0,.31-.24l.89-.9A2.06,2.06,0,0,1,8,34.54l.31-.13a2,2,0,0,1,.39,0h.33a.27.27,0,0,1,.25.19l.36.87a.27.27,0,0,1,0,.31L9.38,36a2,2,0,0,1-.31.24l-.31.13a2,2,0,0,1-.39,0H7.12a1.84,1.84,0,0,0-.39,0s-.2.05-.2.18.2.18.2.18a1.83,1.83,0,0,0,.39,0h.81a.94.94,0,0,1,.33.06c.07,0-.08.28-.16.35L8,37.33a2,2,0,0,1-.31.24l-.31.13a2,2,0,0,1-.39,0h-.2a1.83,1.83,0,0,0-.39,0s-.2.05-.2.18.2.18.2.18l.26.05a.67.67,0,0,1,.2.06c.07,0-.06.26-.11.31a1,1,0,0,0-.16.27.31.31,0,0,0,.42.42,1,1,0,0,0,.27-.16A.75.75,0,0,1,7.54,39c.08,0,.14.2.14.23a1.55,1.55,0,0,0,0,.26s.05.2.18.2.18-.2.18-.2a1.87,1.87,0,0,0,0-.39v-.2a2,2,0,0,1,0-.39l.13-.31a2,2,0,0,1,.24-.31l.07-.07a.92.92,0,0,1,.28-.19c.08,0,.14.25.14.36v.81a1.8,1.8,0,0,0,.05.38s.05.2.18.2.18-.2.18-.2a1.79,1.79,0,0,0,.05-.38V37.5a2,2,0,0,1,0-.39l.13-.31a2,2,0,0,1,.24-.31l.24-.24a.27.27,0,0,1,.31,0l.87.36a.27.27,0,0,1,.19.25v.33a2,2,0,0,1,0,.39l-.13.31a2,2,0,0,1-.24.31l-.9.9a1.86,1.86,0,0,0-.24.31s-.11.18,0,.27.27,0,.27,0a1.86,1.86,0,0,0,.31-.24l.57-.57a1,1,0,0,1,.28-.19c.08,0,.14.25.14.36v.11a2,2,0,0,1,0,.38l-.13.31a2,2,0,0,1-.24.31l-.14.14a1.9,1.9,0,0,0-.24.31s-.1.18,0,.27.27,0,.27,0l.22-.15a.63.63,0,0,1,.19-.1c.08,0,.14.22.14.29a1,1,0,0,0,.08.31.31.31,0,0,0,.59,0,1,1,0,0,0,.08-.31.75.75,0,0,1,.06-.26c0-.07.24,0,.26.07l.22.15s.18.11.27,0,0-.27,0-.27a1.85,1.85,0,0,0-.24-.31l-.14-.14a2,2,0,0,1-.24-.31l-.13-.31a2,2,0,0,1,0-.39V39a.93.93,0,0,1,.06-.33c0-.07.28.08.35.16l.57.57a1.89,1.89,0,0,0,.31.24s.18.11.27,0,0-.27,0-.27a1.87,1.87,0,0,0-.24-.31l-.9-.89a2,2,0,0,1-.24-.31l-.13-.31a2,2,0,0,1,0-.39v-.33a.27.27,0,0,1,.19-.25l.88-.36a.27.27,0,0,1,.31,0l.24.24a2,2,0,0,1,.24.31l.13.31a2,2,0,0,1,0,.39v1.27a1.82,1.82,0,0,0,0,.38s.05.2.18.2.18-.2.18-.2a1.83,1.83,0,0,0,0-.38V38a.94.94,0,0,1,.06-.33c0-.07.28.08.35.16l.07.07a2,2,0,0,1,.24.31l.13.31a2,2,0,0,1,0,.39v.2a1.81,1.81,0,0,0,.05.39s.05.2.18.2.18-.2.18-.2a1.45,1.45,0,0,0,0-.26.66.66,0,0,1,.06-.2c0-.07.26.06.31.11a1,1,0,0,0,.27.16.31.31,0,0,0,.42-.42,1,1,0,0,0-.16-.27.73.73,0,0,1-.14-.23c0-.08.2-.14.23-.14l.26-.05s.2-.05.2-.18-.2-.18-.2-.18a1.84,1.84,0,0,0-.39,0h-.2a2,2,0,0,1-.39,0l-.31-.13a2,2,0,0,1-.31-.24l-.07-.07a.94.94,0,0,1-.19-.28c0-.08.25-.14.36-.14h.81a1.83,1.83,0,0,0,.39,0s.2-.05.2-.18-.2-.18-.2-.18a1.81,1.81,0,0,0-.39-.05H15.41a2,2,0,0,1-.39,0l-.31-.13a2,2,0,0,1-.31-.24l-.24-.24a.27.27,0,0,1,0-.31l.36-.87a.27.27,0,0,1,.25-.19h.33a2,2,0,0,1,.39,0l.31.13a1.94,1.94,0,0,1,.31.24l.9.9a1.85,1.85,0,0,0,.31.24s.18.11.27,0,0-.27,0-.27a1.82,1.82,0,0,0-.24-.31l-.57-.57a.93.93,0,0,1-.19-.28c0-.08.25-.14.36-.14H17a2,2,0,0,1,.39,0l.31.13a2,2,0,0,1,.31.24l.14.14a1.83,1.83,0,0,0,.31.24s.18.11.27,0,0-.27,0-.27a1.59,1.59,0,0,0-.15-.22.63.63,0,0,1-.1-.19c0-.08.22-.14.29-.14a1,1,0,0,0,.31-.08.31.31,0,0,0,0-.59Z" style="fill:#b6d7e1"/><path d="M32.83,31.82a.69.69,0,0,0-.23-.06.53.53,0,0,1-.19,0c-.05,0,0-.17,0-.19l.11-.16s.08-.13,0-.2-.2,0-.2,0a1.4,1.4,0,0,0-.23.17l-.11.11a1.43,1.43,0,0,1-.23.18l-.23.09-.28,0h-.08a.67.67,0,0,1-.24,0c-.05,0,.06-.2.12-.26l.42-.42a1.33,1.33,0,0,0,.17-.23s.08-.13,0-.2-.2,0-.2,0a1.34,1.34,0,0,0-.23.17l-.66.66a1.46,1.46,0,0,1-.22.18l-.23.09-.28,0h-.25a.2.2,0,0,1-.18-.14L29.21,31a.2.2,0,0,1,0-.23l.17-.17a1.51,1.51,0,0,1,.22-.18l.23-.09.28,0h.93a1.32,1.32,0,0,0,.28,0s.15,0,.15-.13-.15-.13-.15-.13a1.35,1.35,0,0,0-.28,0h-.6a.69.69,0,0,1-.24,0c-.05,0,.06-.2.12-.26l.05-.06a1.43,1.43,0,0,1,.22-.18l.23-.09.28,0h.15a1.36,1.36,0,0,0,.28,0s.15,0,.15-.13-.15-.13-.15-.13l-.19,0-.15,0c-.05,0,0-.19.08-.23a.72.72,0,0,0,.12-.2.23.23,0,0,0-.31-.31.71.71,0,0,0-.2.12.55.55,0,0,1-.17.11c-.06,0-.1-.14-.1-.17a1.13,1.13,0,0,0,0-.19s0-.15-.13-.15-.13.15-.13.15a1.32,1.32,0,0,0,0,.28v.15a1.46,1.46,0,0,1,0,.28L30.2,29a1.43,1.43,0,0,1-.18.23l-.05.05a.67.67,0,0,1-.2.14c-.06,0-.1-.19-.1-.26v-.6a1.35,1.35,0,0,0,0-.28s0-.15-.13-.15-.13.15-.13.15a1.33,1.33,0,0,0,0,.28v.93a1.47,1.47,0,0,1,0,.28L29.2,30a1.44,1.44,0,0,1-.18.22l-.17.17a.2.2,0,0,1-.23,0L28,30.13a.2.2,0,0,1-.14-.18V29.7a1.46,1.46,0,0,1,0-.28l.09-.23a1.49,1.49,0,0,1,.18-.23l.66-.66a1.36,1.36,0,0,0,.18-.23s.08-.13,0-.2-.2,0-.2,0a1.38,1.38,0,0,0-.23.17l-.42.42a.67.67,0,0,1-.2.14c-.06,0-.1-.19-.1-.27v-.08a1.46,1.46,0,0,1,0-.28l.09-.23a1.51,1.51,0,0,1,.18-.23l.11-.11a1.42,1.42,0,0,0,.17-.23s.08-.13,0-.2-.2,0-.2,0l-.16.11a.45.45,0,0,1-.14.07c-.06,0-.1-.16-.1-.22a.7.7,0,0,0-.06-.23.23.23,0,0,0-.44,0,.71.71,0,0,0-.06.23.54.54,0,0,1,0,.19c0,.05-.17,0-.19,0L26.89,27s-.13-.08-.2,0,0,.2,0,.2a1.45,1.45,0,0,0,.17.23l.11.11a1.48,1.48,0,0,1,.18.23l.09.23a1.44,1.44,0,0,1,0,.28v.08a.69.69,0,0,1,0,.24c0,.05-.2-.06-.26-.12l-.42-.42a1.38,1.38,0,0,0-.23-.17s-.13-.08-.2,0,0,.2,0,.2a1.38,1.38,0,0,0,.17.23L27,29a1.44,1.44,0,0,1,.18.22l.09.23a1.46,1.46,0,0,1,0,.28v.25a.2.2,0,0,1-.14.18l-.64.27a.2.2,0,0,1-.23,0l-.17-.17a1.48,1.48,0,0,1-.18-.22l-.09-.23a1.46,1.46,0,0,1,0-.28v-.93a1.33,1.33,0,0,0,0-.28s0-.15-.13-.15-.13.15-.13.15a1.33,1.33,0,0,0,0,.28v.6a.69.69,0,0,1,0,.24c0,.05-.2-.06-.26-.12l-.05-.05a1.43,1.43,0,0,1-.18-.23l-.09-.23a1.46,1.46,0,0,1,0-.28V28.3a1.32,1.32,0,0,0,0-.28s0-.15-.13-.15-.13.15-.13.15a1.08,1.08,0,0,0,0,.19.49.49,0,0,1,0,.15c0,.05-.19,0-.23-.08a.7.7,0,0,0-.2-.12.23.23,0,0,0-.31.31.71.71,0,0,0,.12.2.56.56,0,0,1,.1.17c0,.06-.14.1-.17.1l-.19,0s-.15,0-.15.13.15.13.15.13a1.35,1.35,0,0,0,.28,0H24l.28,0,.23.09a1.41,1.41,0,0,1,.22.18l.05.06a.68.68,0,0,1,.14.2c0,.06-.19.1-.27.1H24a1.34,1.34,0,0,0-.28,0s-.15,0-.15.13.15.13.15.13a1.31,1.31,0,0,0,.28,0H25l.28,0,.23.09a1.48,1.48,0,0,1,.22.18l.17.17a.2.2,0,0,1,0,.23l-.27.64a.2.2,0,0,1-.18.14h-.25l-.28,0-.23-.09a1.43,1.43,0,0,1-.22-.18l-.66-.66a1.37,1.37,0,0,0-.23-.17s-.13-.08-.2,0,0,.2,0,.2a1.35,1.35,0,0,0,.17.23l.42.42a.7.7,0,0,1,.14.2c0,.06-.19.1-.26.1h-.08l-.28,0-.23-.09a1.48,1.48,0,0,1-.23-.18L23,31.35a1.43,1.43,0,0,0-.23-.17s-.13-.08-.2,0,0,.2,0,.2a1.12,1.12,0,0,0,.11.16.5.5,0,0,1,.07.14c0,.06-.16.1-.22.1a.69.69,0,0,0-.23.06.23.23,0,0,0,0,.44.69.69,0,0,0,.23.06.53.53,0,0,1,.19,0c.05,0,0,.17,0,.19l-.11.16s-.08.13,0,.2.2,0,.2,0a1.37,1.37,0,0,0,.23-.17l.11-.11a1.45,1.45,0,0,1,.22-.18l.23-.09.28,0h.08a.67.67,0,0,1,.24,0c.05,0-.06.2-.11.26l-.42.42a1.37,1.37,0,0,0-.17.23s-.08.13,0,.2.2,0,.2,0a1.4,1.4,0,0,0,.23-.17l.66-.66a1.47,1.47,0,0,1,.23-.18l.23-.09.28,0h.25a.2.2,0,0,1,.18.14l.27.64a.2.2,0,0,1,0,.23l-.17.17a1.42,1.42,0,0,1-.22.18l-.23.09-.28,0H24a1.33,1.33,0,0,0-.28,0s-.15,0-.15.13.15.13.15.13a1.36,1.36,0,0,0,.28,0h.59a.69.69,0,0,1,.24,0c.05,0-.06.2-.12.26l-.05.06a1.42,1.42,0,0,1-.22.18l-.23.09-.28,0h-.15a1.36,1.36,0,0,0-.28,0s-.15,0-.15.13.15.13.15.13l.19,0,.15,0c.05,0,0,.19-.08.23a.72.72,0,0,0-.12.2.23.23,0,0,0,.31.31.71.71,0,0,0,.2-.12.55.55,0,0,1,.17-.1c.06,0,.1.14.1.17a1.09,1.09,0,0,0,0,.19s0,.15.13.15.13-.15.13-.15a1.42,1.42,0,0,0,0-.28v-.15a1.49,1.49,0,0,1,0-.28l.09-.23a1.48,1.48,0,0,1,.18-.23l.06-.05a.68.68,0,0,1,.2-.14c.06,0,.1.19.1.26v.6a1.32,1.32,0,0,0,0,.28s0,.15.13.15.13-.15.13-.15a1.32,1.32,0,0,0,0-.28v-.93a1.42,1.42,0,0,1,0-.28l.09-.23a1.53,1.53,0,0,1,.18-.22l.17-.17a.2.2,0,0,1,.23,0l.64.27a.2.2,0,0,1,.14.18v.25a1.46,1.46,0,0,1,0,.28l-.09.23a1.43,1.43,0,0,1-.18.22l-.66.66a1.38,1.38,0,0,0-.17.23s-.08.13,0,.2.2,0,.2,0a1.37,1.37,0,0,0,.23-.17l.42-.42a.71.71,0,0,1,.2-.14c.06,0,.1.19.1.27v.08a1.45,1.45,0,0,1,0,.28l-.09.23a1.48,1.48,0,0,1-.18.23l-.11.11a1.4,1.4,0,0,0-.17.23s-.08.13,0,.2.2,0,.2,0l.16-.11.14-.07c.06,0,.1.16.1.22a.7.7,0,0,0,.06.23.23.23,0,0,0,.44,0,.7.7,0,0,0,.06-.23.55.55,0,0,1,0-.19c0-.05.17,0,.19.05l.16.11s.13.08.2,0,0-.2,0-.2a1.37,1.37,0,0,0-.17-.23l-.11-.11A1.51,1.51,0,0,1,28,36.3l-.09-.23a1.47,1.47,0,0,1,0-.28v-.08a.69.69,0,0,1,0-.24c0-.05.2.06.26.12l.42.42a1.37,1.37,0,0,0,.23.17s.13.08.2,0,0-.2,0-.2a1.36,1.36,0,0,0-.18-.23l-.66-.66a1.48,1.48,0,0,1-.18-.23l-.09-.23a1.46,1.46,0,0,1,0-.28v-.25a.2.2,0,0,1,.14-.18l.64-.27a.2.2,0,0,1,.23,0l.17.17a1.43,1.43,0,0,1,.18.22l.09.23a1.46,1.46,0,0,1,0,.28v.93a1.32,1.32,0,0,0,0,.28s0,.15.13.15.13-.15.13-.15a1.35,1.35,0,0,0,0-.28V35a.69.69,0,0,1,0-.24c0-.05.2.06.26.12l.05.05a1.39,1.39,0,0,1,.18.23l.09.23a1.45,1.45,0,0,1,0,.28v.15a1.33,1.33,0,0,0,0,.28s0,.15.13.15.13-.15.13-.15a1,1,0,0,0,0-.19.5.5,0,0,1,0-.15c0-.05.19,0,.23.08a.7.7,0,0,0,.2.12.23.23,0,0,0,.31-.31.73.73,0,0,0-.12-.2.55.55,0,0,1-.1-.17c0-.06.14-.1.17-.1l.19,0s.15,0,.15-.13-.15-.13-.15-.13a1.36,1.36,0,0,0-.28,0h-.15l-.28,0-.23-.09a1.46,1.46,0,0,1-.23-.18l-.05-.05a.69.69,0,0,1-.14-.2c0-.06.19-.1.27-.1h.6a1.35,1.35,0,0,0,.28,0s.15,0,.15-.13-.15-.13-.15-.13a1.32,1.32,0,0,0-.28,0h-.93l-.28,0-.23-.1a1.47,1.47,0,0,1-.22-.18l-.17-.17a.2.2,0,0,1,0-.23l.27-.64a.2.2,0,0,1,.18-.14h.25l.28,0,.23.09a1.43,1.43,0,0,1,.22.18l.66.66a1.37,1.37,0,0,0,.23.17s.13.08.2,0,0-.2,0-.2a1.35,1.35,0,0,0-.17-.23l-.42-.42a.7.7,0,0,1-.14-.2c0-.06.19-.1.26-.1h.08l.28,0,.23.09a1.47,1.47,0,0,1,.23.18l.11.11a1.34,1.34,0,0,0,.23.17s.13.08.2,0,0-.2,0-.2l-.11-.16a.48.48,0,0,1-.07-.14c0-.06.16-.1.22-.1a.69.69,0,0,0,.23-.06.23.23,0,0,0,0-.44Z" style="fill:#b6d7e1"/></svg>