<svg xmlns="http://www.w3.org/2000/svg" viewBox="0 0 49 49"><title>sunny</title><circle cx="25.47" cy="24.5" r="12.85" transform="translate(-8.94 16.44) rotate(-30.7)" style="fill:#fecd81"/><path d="M15.17,14.51l.31-.31-4.09-4.09a.22.22,0,0,0-.31.31Z" style="fill:#fecd81"/><path d="M18.66,8.06a.22.22,0,0,0-.12.29l1.23,3,.41-.16-1.24-3A.22.22,0,0,0,18.66,8.06Z" style="fill:#fecd81"/><path d="M25.47,4.15a.22.22,0,0,0-.22.22v5.78h.44V4.37A.22.22,0,0,0,25.47,4.15Z" style="fill:#fecd81"/><path d="M12.13,19.21l.17-.41-3-1.23a.22.22,0,1,0-.17.41Z" style="fill:#fecd81"/><path d="M38.81,19.21l3-1.24a.22.22,0,1,0-.17-.41l-3,1.23C38.7,18.94,38.76,19.08,38.81,19.21Z" style="fill:#fecd81"/><path d="M11.13,24.28H5.34a.22.22,0,0,0,0,.44h5.78C11.12,24.57,11.12,24.43,11.13,24.28Z" style="fill:#fecd81"/><path d="M39.86,10.42a.22.22,0,0,0-.31-.31L35.46,14.2l.31.31Z" style="fill:#fecd81"/><path d="M32.4,8.35A.22.22,0,0,0,32,8.18l-1.23,3,.41.17Z" style="fill:#fecd81"/><path d="M45.6,24.28H39.82c0,.15,0,.29,0,.44H45.6a.22.22,0,1,0,0-.44Z" style="fill:#fecd81"/><path d="M35.77,34.49l-.31.31,4.09,4.09a.22.22,0,0,0,.31-.31Z" style="fill:#fecd81"/><path d="M38.81,29.79l-.17.41,3,1.23.08,0a.22.22,0,0,0,.08-.42Z" style="fill:#fecd81"/><path d="M12.13,29.79,9.15,31a.22.22,0,0,0,.08.42l.08,0,3-1.23Z" style="fill:#fecd81"/><path d="M30.76,37.84l1.23,3a.22.22,0,0,0,.2.14l.08,0a.22.22,0,0,0,.12-.29l-1.23-3Z" style="fill:#fecd81"/><path d="M11.08,38.58a.22.22,0,1,0,.31.31l4.09-4.09-.31-.31Z" style="fill:#fecd81"/><path d="M18.54,40.65a.22.22,0,0,0,.12.29l.08,0a.22.22,0,0,0,.2-.14l1.24-3-.41-.17Z" style="fill:#fecd81"/><path d="M25.25,44.63a.22.22,0,0,0,.44,0V38.85h-.44Z" style="fill:#fecd81"/><rect width="49" height="49" style="fill:none"/></svg>