<svg xmlns="http://www.w3.org/2000/svg" viewBox="0 0 49 49"><title>cloudy</title><path d="M40,22.66c0-.15,0-.29,0-.43A6.22,6.22,0,0,0,33.86,16a6.08,6.08,0,0,0-3,.79A7.68,7.68,0,0,0,24.49,13c-4.14,0-7.58,3.71-8.15,8.7a9,9,0,0,0,2.54,17.7A8.86,8.86,0,0,0,23.7,38a6.08,6.08,0,0,0,4.24,2.59,6.2,6.2,0,0,0,.79.05,6.08,6.08,0,0,0,4-1.52,8.84,8.84,0,0,0,3.14.57A9,9,0,0,0,40,22.66Z" style="fill:#8ac0cf"/><path d="M29.66,25.62c0-.13,0-.25,0-.36A5.49,5.49,0,0,0,24,19.93a5.88,5.88,0,0,0-2.74.67,7.13,7.13,0,0,0-5.81-3.17c-3.78,0-6.92,3.16-7.45,7.4a7.76,7.76,0,0,0-5.86,7.37,8,8,0,0,0,8.19,7.69,8.53,8.53,0,0,0,4.4-1.2,5.63,5.63,0,0,0,3.87,2.21,6,6,0,0,0,2.05-.11A5.72,5.72,0,0,0,23,39.65a8.61,8.61,0,0,0,2.87.49,8,8,0,0,0,8.19-7.69A7.67,7.67,0,0,0,29.66,25.62Z" style="fill:#cae2e9"/><rect width="49" height="49" style="fill:none"/></svg>