<svg xmlns="http://www.w3.org/2000/svg" viewBox="0 0 51.41 28.16"><title>Asset 4</title><path d="M45.7,9.81c0-.15,0-.29,0-.44C45.72,5.85,42.47,3,38.47,3a8,8,0,0,0-3.53.8A9.39,9.39,0,0,0,27.45,0a9.88,9.88,0,0,0-9.6,8.87C13.39,10,10.3,13.6,10.3,17.7c0,5.08,4.73,9.21,10.55,9.21a11.63,11.63,0,0,0,5.67-1.44,7.39,7.39,0,0,0,5,2.64,8.4,8.4,0,0,0,.93.05A8.26,8.26,0,0,0,34.14,28a7.61,7.61,0,0,0,3-1.37,11.84,11.84,0,0,0,3.7.58c5.82,0,10.55-4.13,10.55-9.21A9.18,9.18,0,0,0,45.7,9.81Z" style="fill:#8ac0cf"/><path d="M30.55,14.12c0-.12,0-.23,0-.33,0-2.69-2.81-4.89-6.26-4.89a7.68,7.68,0,0,0-3,.62,8.48,8.48,0,0,0-6.47-2.9A8.2,8.2,0,0,0,6.52,13.4C2.67,14.28,0,17,0,20.15,0,24,4.08,27.21,9.1,27.21A11.07,11.07,0,0,0,14,26.1a6.65,6.65,0,0,0,4.3,2q.4,0,.81,0A8,8,0,0,0,20.58,28a7,7,0,0,0,2.61-1,11.43,11.43,0,0,0,3.19.45c5,0,9.11-3.16,9.11-7C35.48,17.74,33.56,15.32,30.55,14.12Z" style="fill:#cae2e9"/></svg>