<svg xmlns="http://www.w3.org/2000/svg" viewBox="0 0 41.51 42.25"><title>Asset 17</title><path d="M36.15,9.21c0-.14,0-.28,0-.41,0-3.3-3.05-6-6.81-6a7.56,7.56,0,0,0-3.31.76A8.81,8.81,0,0,0,19,0a9.27,9.27,0,0,0-9,8.33C5.82,9.4,2.92,12.77,2.92,16.61c0,4.77,4.44,8.65,9.9,8.65a10.93,10.93,0,0,0,5.32-1.35,6.94,6.94,0,0,0,4.68,2.48,8,8,0,0,0,.88,0,7.78,7.78,0,0,0,1.6-.17A7.16,7.16,0,0,0,28.14,25a11.15,11.15,0,0,0,3.47.55c5.46,0,9.9-3.88,9.9-8.65A8.62,8.62,0,0,0,36.15,9.21Z" style="fill:#b6d7e1"/><path d="M13.26,36.29l-.17,0-.14,0s0-.13,0-.14l.08-.12s.06-.1,0-.15-.15,0-.15,0l-.17.13-.08.08-.16.13-.17.07-.21,0h-.06a.51.51,0,0,1-.18,0s0-.15.09-.19l.31-.31a1,1,0,0,0,.13-.17s.06-.1,0-.15-.15,0-.15,0l-.17.13-.48.48-.17.13-.17.07-.21,0h-.18a.15.15,0,0,1-.13-.1l-.2-.47a.15.15,0,0,1,0-.17l.13-.13.17-.13.17-.07.21,0H12l.21,0s.11,0,.11-.1-.11-.1-.11-.1l-.21,0h-.44a.51.51,0,0,1-.18,0s0-.15.08-.19l0,0,.16-.13.17-.07.21,0h.11l.21,0s.11,0,.11-.1-.11-.1-.11-.1l-.14,0-.11,0s0-.14.06-.17a.51.51,0,0,0,.09-.15A.17.17,0,0,0,12,33.6a.52.52,0,0,0-.15.09.4.4,0,0,1-.12.08s-.07-.11-.07-.13a.9.9,0,0,0,0-.14s0-.11-.1-.11-.1.11-.1.11a1,1,0,0,0,0,.21v.11a1.07,1.07,0,0,1,0,.21l-.07.17a1.07,1.07,0,0,1-.13.16l0,0a.49.49,0,0,1-.15.1s-.07-.14-.07-.19v-.44a1,1,0,0,0,0-.21s0-.11-.1-.11-.1.11-.1.11a1,1,0,0,0,0,.21v.68a1.07,1.07,0,0,1,0,.21l-.07.17a1.05,1.05,0,0,1-.13.16l-.13.13a.14.14,0,0,1-.17,0L9.69,35a.15.15,0,0,1-.1-.13v-.18a1.06,1.06,0,0,1,0-.21l.07-.17a1.11,1.11,0,0,1,.13-.17l.48-.48a1,1,0,0,0,.13-.17s.06-.1,0-.15-.14,0-.14,0l-.17.13-.31.31a.49.49,0,0,1-.15.1s-.07-.14-.07-.19v-.06a1.07,1.07,0,0,1,0-.21l.07-.17a1.06,1.06,0,0,1,.13-.16l.08-.08a1,1,0,0,0,.13-.17s.06-.1,0-.15-.15,0-.15,0l-.12.08-.1.05s-.07-.12-.07-.16a.52.52,0,0,0,0-.17.17.17,0,0,0-.32,0,.51.51,0,0,0,0,.17.39.39,0,0,1,0,.14s-.13,0-.14,0l-.12-.08s-.1-.06-.15,0,0,.15,0,.15a1.05,1.05,0,0,0,.13.17l.08.08a1,1,0,0,1,.13.16l.07.17a1.1,1.1,0,0,1,0,.21v.06a.5.5,0,0,1,0,.18s-.15,0-.19-.08l-.31-.31-.17-.13s-.1-.06-.15,0,0,.15,0,.15a1,1,0,0,0,.13.17l.48.48a1.05,1.05,0,0,1,.13.16l.07.17a1.1,1.1,0,0,1,0,.21v.18a.15.15,0,0,1-.1.13l-.47.2a.15.15,0,0,1-.17,0l-.13-.13a1,1,0,0,1-.13-.16l-.07-.17a1.11,1.11,0,0,1,0-.21v-.68a1,1,0,0,0,0-.21s0-.11-.1-.11-.1.11-.1.11a1,1,0,0,0,0,.21v.44a.52.52,0,0,1,0,.18s-.15,0-.19-.08l0,0a1,1,0,0,1-.13-.16L7.39,34a1.11,1.11,0,0,1,0-.21v-.11a1,1,0,0,0,0-.21s0-.11-.1-.11-.1.11-.1.11a.79.79,0,0,0,0,.14.37.37,0,0,1,0,.11s-.14,0-.17-.06a.52.52,0,0,0-.15-.09.17.17,0,0,0-.23.23.51.51,0,0,0,.09.15.4.4,0,0,1,.08.12s-.11.08-.13.08l-.14,0s-.11,0-.11.1.11.1.11.1l.21,0h.11l.21,0,.17.07.16.13,0,0a.51.51,0,0,1,.1.15s-.14.08-.19.08H6.81l-.21,0s-.11,0-.11.1.11.1.11.1l.21,0h.68l.21,0,.17.07.16.13.13.13a.15.15,0,0,1,0,.17l-.2.47a.15.15,0,0,1-.13.1H7.67l-.21,0-.17-.07L7.13,36l-.48-.48-.17-.13s-.1-.06-.14,0,0,.15,0,.15a1,1,0,0,0,.13.17l.31.31a.5.5,0,0,1,.1.15s-.14.07-.19.07H6.63l-.21,0-.17-.07L6.09,36,6,35.95l-.17-.13s-.1-.06-.15,0,0,.15,0,.15l.08.12a.35.35,0,0,1,.05.1s-.12.07-.16.07l-.17,0a.17.17,0,0,0,0,.32l.17,0,.14,0s0,.13,0,.14l-.08.12s-.06.1,0,.14.15,0,.15,0L6,37l.08-.08.16-.13.17-.07.21,0h.06a.5.5,0,0,1,.18,0s0,.15-.08.19l-.31.31a1,1,0,0,0-.13.17s-.06.1,0,.15.14,0,.14,0l.17-.13.48-.48.16-.13.17-.07.21,0h.18a.15.15,0,0,1,.13.1l.2.47a.15.15,0,0,1,0,.17L8,37.52l-.16.13-.17.07-.21,0H6.81l-.21,0s-.11,0-.11.1.11.1.11.1l.21,0h.44a.51.51,0,0,1,.18,0s0,.15-.08.19l0,0-.16.13L7,38.46l-.21,0H6.65l-.21,0s-.11,0-.11.1.11.1.11.1l.14,0,.11,0s0,.14-.06.17a.51.51,0,0,0-.09.15.17.17,0,0,0,.23.23.51.51,0,0,0,.15-.09A.4.4,0,0,1,7,39.14s.08.11.08.13a.83.83,0,0,0,0,.14s0,.11.1.11.1-.11.1-.11a1,1,0,0,0,0-.21v-.11a1.07,1.07,0,0,1,0-.21l.07-.17a1.08,1.08,0,0,1,.13-.16l0,0a.49.49,0,0,1,.15-.1s.07.14.07.19V39a1,1,0,0,0,0,.21s0,.11.1.11.1-.11.1-.11a1,1,0,0,0,0-.21v-.68a1.07,1.07,0,0,1,0-.21L8.19,38a1.08,1.08,0,0,1,.13-.16l.13-.13a.15.15,0,0,1,.17,0l.47.2a.15.15,0,0,1,.1.13v.18a1.1,1.1,0,0,1,0,.21l-.07.17a1,1,0,0,1-.13.16l-.48.48a1.08,1.08,0,0,0-.13.17s-.06.1,0,.15.15,0,.15,0l.17-.13L9,39.06a.53.53,0,0,1,.15-.1s.08.14.08.19v.06a1.09,1.09,0,0,1,0,.21l-.07.17a1,1,0,0,1-.13.17l-.08.08a1,1,0,0,0-.13.17s-.06.1,0,.15.15,0,.15,0L9,40l.1-.05s.08.12.08.16a.5.5,0,0,0,0,.17.17.17,0,0,0,.32,0,.52.52,0,0,0,0-.17.41.41,0,0,1,0-.14s.13,0,.14,0l.12.08s.1.06.15,0S10,40,10,40a1,1,0,0,0-.13-.17l-.08-.08a1.07,1.07,0,0,1-.13-.17l-.07-.17a1.07,1.07,0,0,1,0-.21v-.06a.51.51,0,0,1,0-.18s.15,0,.19.08l.31.31.17.13s.1.06.14,0,0-.15,0-.15a1,1,0,0,0-.13-.17l-.48-.48a1.09,1.09,0,0,1-.13-.17l-.07-.17a1.06,1.06,0,0,1,0-.21V38a.15.15,0,0,1,.1-.13l.47-.2a.14.14,0,0,1,.17,0l.13.13a1.08,1.08,0,0,1,.13.16l.07.17a1.07,1.07,0,0,1,0,.21V39a1,1,0,0,0,0,.21s0,.11.1.11.1-.11.1-.11a1,1,0,0,0,0-.21V38.6a.52.52,0,0,1,0-.18s.15,0,.19.08l0,0a1.09,1.09,0,0,1,.13.16l.07.17a1.07,1.07,0,0,1,0,.21v.11a1,1,0,0,0,0,.21s0,.11.1.11.1-.11.1-.11a.86.86,0,0,0,0-.14.35.35,0,0,1,0-.11s.14,0,.16.06a.5.5,0,0,0,.15.09.17.17,0,0,0,.23-.23.52.52,0,0,0-.09-.15.39.39,0,0,1-.08-.12s.11-.07.13-.07l.14,0s.11,0,.11-.1-.11-.1-.11-.1l-.21,0H12l-.21,0-.17-.07-.17-.13,0,0a.49.49,0,0,1-.1-.15s.14-.07.19-.07H12l.21,0s.11,0,.11-.1-.11-.1-.11-.1l-.21,0h-.68l-.21,0-.17-.07-.16-.13-.13-.13a.15.15,0,0,1,0-.17l.2-.47a.15.15,0,0,1,.13-.1h.18l.21,0,.17.07.17.13.48.48.17.13s.1.06.15,0,0-.15,0-.15a1,1,0,0,0-.13-.17L12,36.88a.51.51,0,0,1-.1-.15s.14-.07.19-.07h.06l.21,0,.17.07.16.13.08.08.17.13s.1.06.15,0,0-.14,0-.14L13,36.83a.35.35,0,0,1-.05-.1s.12-.07.16-.07l.17,0a.17.17,0,0,0,0-.32Z" style="fill:#b6d7e1"/><path d="M31.92,31.82a.69.69,0,0,0-.23-.06.53.53,0,0,1-.19,0c-.05,0,0-.17,0-.19l.11-.16s.08-.13,0-.2-.2,0-.2,0a1.41,1.41,0,0,0-.23.17l-.11.11a1.44,1.44,0,0,1-.23.18l-.23.09-.28,0h-.08a.67.67,0,0,1-.24,0c-.05,0,.06-.2.12-.26l.42-.42a1.33,1.33,0,0,0,.17-.23s.08-.13,0-.2-.2,0-.2,0a1.34,1.34,0,0,0-.23.17l-.66.66a1.46,1.46,0,0,1-.22.18l-.23.09-.28,0h-.25a.2.2,0,0,1-.18-.14L28.29,31a.2.2,0,0,1,0-.23l.17-.17a1.51,1.51,0,0,1,.22-.18l.23-.09.28,0h.93a1.32,1.32,0,0,0,.28,0s.15,0,.15-.13-.15-.13-.15-.13a1.35,1.35,0,0,0-.28,0h-.6a.69.69,0,0,1-.24,0c-.05,0,.06-.2.12-.26l.05-.06a1.42,1.42,0,0,1,.22-.18l.23-.09.28,0h.15a1.36,1.36,0,0,0,.28,0s.15,0,.15-.13-.15-.13-.15-.13l-.19,0-.15,0c-.05,0,0-.19.08-.23a.72.72,0,0,0,.12-.2.23.23,0,0,0-.31-.31.71.71,0,0,0-.2.12.55.55,0,0,1-.17.11c-.06,0-.1-.14-.1-.17a1.12,1.12,0,0,0,0-.19s0-.15-.13-.15-.13.15-.13.15a1.31,1.31,0,0,0,0,.28v.15a1.45,1.45,0,0,1,0,.28l-.09.23a1.43,1.43,0,0,1-.18.23l-.05.05a.67.67,0,0,1-.2.14c-.06,0-.1-.19-.1-.26v-.6a1.35,1.35,0,0,0,0-.28s0-.15-.13-.15-.13.15-.13.15a1.33,1.33,0,0,0,0,.28v.93a1.47,1.47,0,0,1,0,.28l-.09.23a1.43,1.43,0,0,1-.18.22l-.17.17a.2.2,0,0,1-.23,0l-.64-.27a.2.2,0,0,1-.14-.18V29.7a1.47,1.47,0,0,1,0-.28l.09-.23a1.5,1.5,0,0,1,.18-.23l.66-.66a1.35,1.35,0,0,0,.18-.23s.08-.13,0-.2-.2,0-.2,0a1.38,1.38,0,0,0-.23.17l-.42.42a.66.66,0,0,1-.2.14c-.06,0-.1-.19-.1-.27v-.08A1.47,1.47,0,0,1,27,28l.09-.23a1.52,1.52,0,0,1,.18-.23l.11-.11a1.42,1.42,0,0,0,.17-.23s.08-.13,0-.2-.2,0-.2,0l-.16.11a.45.45,0,0,1-.14.07c-.06,0-.1-.16-.1-.22a.7.7,0,0,0-.06-.23.23.23,0,0,0-.44,0,.71.71,0,0,0-.06.23.54.54,0,0,1,0,.19c0,.05-.17,0-.19,0L26,27s-.13-.08-.2,0,0,.2,0,.2a1.45,1.45,0,0,0,.17.23l.11.11a1.48,1.48,0,0,1,.18.23l.09.23a1.44,1.44,0,0,1,0,.28v.08a.69.69,0,0,1,0,.24c0,.05-.2-.06-.26-.12l-.42-.42a1.38,1.38,0,0,0-.23-.17s-.13-.08-.2,0,0,.2,0,.2a1.38,1.38,0,0,0,.17.23l.66.66a1.44,1.44,0,0,1,.18.22l.09.23a1.46,1.46,0,0,1,0,.28v.25a.2.2,0,0,1-.14.18l-.64.27a.2.2,0,0,1-.23,0l-.17-.17A1.48,1.48,0,0,1,25,30l-.09-.23a1.45,1.45,0,0,1,0-.28v-.93a1.33,1.33,0,0,0,0-.28s0-.15-.13-.15-.13.15-.13.15a1.33,1.33,0,0,0,0,.28v.6a.69.69,0,0,1,0,.24c0,.05-.2-.06-.26-.12l-.05-.05A1.43,1.43,0,0,1,24,29l-.09-.23a1.46,1.46,0,0,1,0-.28V28.3a1.32,1.32,0,0,0,0-.28s0-.15-.13-.15-.13.15-.13.15a1.08,1.08,0,0,0,0,.19.49.49,0,0,1,0,.15c0,.05-.19,0-.23-.08a.7.7,0,0,0-.2-.12.23.23,0,0,0-.31.31.71.71,0,0,0,.12.2.57.57,0,0,1,.1.17c0,.06-.14.1-.17.1l-.19,0s-.15,0-.15.13.15.13.15.13a1.35,1.35,0,0,0,.28,0h.15l.28,0,.23.09a1.41,1.41,0,0,1,.22.18l.05.06a.68.68,0,0,1,.14.2c0,.06-.19.1-.27.1h-.59a1.34,1.34,0,0,0-.28,0s-.15,0-.15.13.15.13.15.13a1.31,1.31,0,0,0,.28,0h.93l.28,0,.23.09a1.48,1.48,0,0,1,.22.18l.17.17A.2.2,0,0,1,25,31l-.27.64a.2.2,0,0,1-.18.14h-.25l-.28,0-.23-.09a1.43,1.43,0,0,1-.22-.18l-.66-.66a1.37,1.37,0,0,0-.23-.17s-.13-.08-.2,0,0,.2,0,.2a1.35,1.35,0,0,0,.17.23l.42.42a.7.7,0,0,1,.14.2c0,.06-.19.1-.26.1h-.08l-.28,0-.23-.09a1.48,1.48,0,0,1-.23-.18L22,31.35a1.43,1.43,0,0,0-.23-.17s-.13-.08-.2,0,0,.2,0,.2a1.12,1.12,0,0,0,.11.16.5.5,0,0,1,.07.14c0,.06-.16.1-.22.1a.69.69,0,0,0-.23.06.23.23,0,0,0,0,.44.69.69,0,0,0,.23.06.53.53,0,0,1,.19,0c.05,0,0,.17,0,.19l-.11.16s-.08.13,0,.2.2,0,.2,0a1.37,1.37,0,0,0,.23-.17l.11-.11a1.44,1.44,0,0,1,.22-.18l.23-.09.28,0H23a.67.67,0,0,1,.24,0c.05,0-.06.2-.11.26l-.42.42a1.37,1.37,0,0,0-.17.23s-.08.13,0,.2.2,0,.2,0a1.4,1.4,0,0,0,.23-.17l.66-.66a1.46,1.46,0,0,1,.23-.18l.23-.09.28,0h.25a.2.2,0,0,1,.18.14l.27.64a.2.2,0,0,1,0,.23l-.17.17a1.42,1.42,0,0,1-.22.18l-.23.09-.28,0h-.93a1.33,1.33,0,0,0-.28,0s-.15,0-.15.13.15.13.15.13a1.36,1.36,0,0,0,.28,0h.59a.69.69,0,0,1,.24,0c.05,0-.06.2-.12.26l-.05.06a1.42,1.42,0,0,1-.22.18l-.23.09-.28,0h-.15a1.36,1.36,0,0,0-.28,0s-.15,0-.15.13.15.13.15.13l.19,0,.15,0c.05,0,0,.19-.08.23a.72.72,0,0,0-.12.2.23.23,0,0,0,.31.31.71.71,0,0,0,.2-.12.55.55,0,0,1,.17-.1c.06,0,.1.14.1.17a1.09,1.09,0,0,0,0,.19s0,.15.13.15.13-.15.13-.15a1.43,1.43,0,0,0,0-.28v-.15a1.49,1.49,0,0,1,0-.28l.09-.23a1.47,1.47,0,0,1,.18-.23l.06-.05a.68.68,0,0,1,.2-.14c.06,0,.1.19.1.26v.6a1.32,1.32,0,0,0,0,.28s0,.15.13.15.13-.15.13-.15a1.32,1.32,0,0,0,0-.28v-.93a1.42,1.42,0,0,1,0-.28l.09-.23a1.53,1.53,0,0,1,.18-.22l.17-.17a.2.2,0,0,1,.23,0l.64.27a.2.2,0,0,1,.14.18v.25a1.46,1.46,0,0,1,0,.28l-.09.23a1.43,1.43,0,0,1-.18.22l-.66.66a1.38,1.38,0,0,0-.17.23s-.08.13,0,.2.2,0,.2,0a1.37,1.37,0,0,0,.23-.17l.42-.42a.71.71,0,0,1,.2-.14c.06,0,.1.19.1.27v.08a1.45,1.45,0,0,1,0,.28l-.09.23a1.48,1.48,0,0,1-.18.23l-.11.11a1.4,1.4,0,0,0-.17.23s-.08.13,0,.2.2,0,.2,0l.16-.11.14-.07c.06,0,.1.16.1.22a.7.7,0,0,0,.06.23.23.23,0,0,0,.44,0,.7.7,0,0,0,.06-.23.55.55,0,0,1,0-.19c0-.05.17,0,.19.05l.16.11s.13.08.2,0,0-.2,0-.2a1.37,1.37,0,0,0-.17-.23l-.11-.11A1.51,1.51,0,0,1,27,36.3L27,36.08a1.48,1.48,0,0,1,0-.28v-.08a.69.69,0,0,1,0-.24c0-.05.2.06.26.12l.42.42a1.37,1.37,0,0,0,.23.17s.13.08.2,0,0-.2,0-.2a1.35,1.35,0,0,0-.18-.23l-.66-.66a1.49,1.49,0,0,1-.18-.23L27,34.66a1.47,1.47,0,0,1,0-.28v-.25a.2.2,0,0,1,.14-.18l.64-.27a.2.2,0,0,1,.23,0l.17.17a1.42,1.42,0,0,1,.18.22l.09.23a1.46,1.46,0,0,1,0,.28v.93a1.32,1.32,0,0,0,0,.28s0,.15.13.15.13-.15.13-.15a1.35,1.35,0,0,0,0-.28V35a.69.69,0,0,1,0-.24c0-.05.2.06.26.12l.05.05a1.39,1.39,0,0,1,.18.23l.09.23a1.45,1.45,0,0,1,0,.28v.15a1.32,1.32,0,0,0,0,.28s0,.15.13.15.13-.15.13-.15a1,1,0,0,0,0-.19.5.5,0,0,1,0-.15c0-.05.19,0,.23.08a.7.7,0,0,0,.2.12.23.23,0,0,0,.31-.31.73.73,0,0,0-.12-.2.55.55,0,0,1-.1-.17c0-.06.14-.1.17-.1l.19,0s.15,0,.15-.13-.15-.13-.15-.13a1.36,1.36,0,0,0-.28,0h-.15l-.28,0-.23-.09a1.46,1.46,0,0,1-.23-.18l-.05-.05a.68.68,0,0,1-.14-.2c0-.06.19-.1.27-.1h.6a1.35,1.35,0,0,0,.28,0s.15,0,.15-.13-.15-.13-.15-.13a1.32,1.32,0,0,0-.28,0h-.93l-.28,0-.23-.1a1.47,1.47,0,0,1-.22-.18l-.17-.17a.2.2,0,0,1,0-.23l.27-.64a.2.2,0,0,1,.18-.14H29l.28,0,.23.09a1.43,1.43,0,0,1,.22.18l.66.66a1.37,1.37,0,0,0,.23.17s.13.08.2,0,0-.2,0-.2a1.35,1.35,0,0,0-.17-.23l-.42-.42a.7.7,0,0,1-.14-.2c0-.06.19-.1.26-.1h.08l.28,0,.23.09a1.48,1.48,0,0,1,.23.18l.11.11a1.35,1.35,0,0,0,.23.17s.13.08.2,0,0-.2,0-.2l-.11-.16a.47.47,0,0,1-.07-.14c0-.06.16-.1.22-.1a.69.69,0,0,0,.23-.06.23.23,0,0,0,0-.44Z" style="fill:#b6d7e1"/><path d="M5.74,28a.48.48,0,0,0-.46.29L0,41.88c-.07.18.11.34.41.37A.65.65,0,0,0,1.07,42L6,28.34A.25.25,0,0,0,5.74,28Z" style="fill:#b6d7e1"/><path d="M19.94,28a.48.48,0,0,0-.46.29l-5.26,13.6c-.07.18.11.34.41.37a.65.65,0,0,0,.65-.28l4.89-13.63A.25.25,0,0,0,19.94,28Z" style="fill:#b6d7e1"/><path d="M36.17,28a.48.48,0,0,0-.46.29l-5.26,13.6c-.07.18.11.34.41.37a.65.65,0,0,0,.65-.28l4.89-13.63A.25.25,0,0,0,36.17,28Z" style="fill:#b6d7e1"/></svg>