<svg xmlns="http://www.w3.org/2000/svg" viewBox="0 0 49 49"><title>hazy</title><path d="M41.17,18.89c0-.16,0-.32,0-.47a6.58,6.58,0,0,0-6.29-6.83,5.9,5.9,0,0,0-3.06.86,7.76,7.76,0,0,0-6.49-4.06c-4.22,0-7.74,4-8.32,9.49a9.78,9.78,0,0,0-6.55,9.45c0,5.44,4.1,9.86,9.15,9.86a8.62,8.62,0,0,0,4.91-1.54,6.16,6.16,0,0,0,4.32,2.83,5.92,5.92,0,0,0,.81.06,5.86,5.86,0,0,0,1.48-.19,6.1,6.1,0,0,0,2.62-1.46A8.5,8.5,0,0,0,37,37.5c5,0,9.15-4.42,9.15-9.86A10,10,0,0,0,41.17,18.89Z" style="fill:#8fafb7;opacity:0.65"/><path d="M30.62,22.12c0-.14,0-.27,0-.4a5.78,5.78,0,0,0-5.74-5.81,5.69,5.69,0,0,0-2.79.73,7.16,7.16,0,0,0-5.93-3.45c-3.85,0-7.07,3.45-7.6,8.08A8.39,8.39,0,0,0,10.95,37.7a8.28,8.28,0,0,0,4.49-1.31,5.67,5.67,0,0,0,3.95,2.41,5.69,5.69,0,0,0,4.48-1.36,8.27,8.27,0,0,0,2.93.53,8.39,8.39,0,0,0,3.83-15.84Z" style="fill:#e1e7e5"/><rect width="49" height="49" style="fill:none"/></svg>