<svg xmlns="http://www.w3.org/2000/svg" viewBox="0 0 48 46.4"><title>Asset 18</title><path d="M45.8,22.72c0-.06,0-.11,0-.17A2.64,2.64,0,0,0,43,20.09a3.09,3.09,0,0,0-1.36.31,3.61,3.61,0,0,0-2.88-1.46,3.8,3.8,0,0,0-3.69,3.41,3.64,3.64,0,0,0-2.91,3.4,3.83,3.83,0,0,0,4.06,3.55,4.47,4.47,0,0,0,2.18-.56,2.84,2.84,0,0,0,1.92,1l.36,0a3.15,3.15,0,0,0,.66-.07,2.92,2.92,0,0,0,1.16-.53,4.55,4.55,0,0,0,1.42.22A3.83,3.83,0,0,0,48,25.86,3.53,3.53,0,0,0,45.8,22.72Z" style="fill:#8ac0cf"/><circle cx="23.2" cy="23.2" r="14.65" transform="translate(-8.59 15.1) rotate(-30.7)" style="fill:#fecd81"/><path d="M11.45,11.81l.35-.35L7.15,6.8a.25.25,0,0,0-.35.35Z" style="fill:#fecd81"/><path d="M15.44,4.46a.25.25,0,0,0-.14.33l1.41,3.4L17.17,8l-1.41-3.4A.25.25,0,0,0,15.44,4.46Z" style="fill:#fecd81"/><path d="M23.2,0a.25.25,0,0,0-.25.25V6.84h.5V.25A.25.25,0,0,0,23.2,0Z" style="fill:#fecd81"/><path d="M8,17.17l.19-.46L4.78,15.3a.25.25,0,1,0-.19.46Z" style="fill:#fecd81"/><path d="M38.4,17.17l3.4-1.41a.25.25,0,1,0-.19-.46l-3.4,1.41C38.28,16.86,38.34,17,38.4,17.17Z" style="fill:#fecd81"/><path d="M6.84,22.95H.25a.25.25,0,0,0,0,.5H6.84C6.83,23.28,6.84,23.12,6.84,22.95Z" style="fill:#fecd81"/><path d="M39.6,7.15a.25.25,0,1,0-.35-.35l-4.66,4.66.35.35Z" style="fill:#fecd81"/><path d="M31.1,4.78a.25.25,0,1,0-.46-.19L29.23,8l.46.19Z" style="fill:#fecd81"/><path d="M46.15,22.95H39.56c0,.17,0,.33,0,.5h6.59a.25.25,0,0,0,0-.5Z" style="fill:#fecd81"/><path d="M34.94,34.59l-.35.35,4.66,4.66a.25.25,0,1,0,.35-.35Z" style="fill:#fecd81"/><path d="M38.41,29.23l-.19.46,3.4,1.41.1,0a.25.25,0,0,0,.1-.48Z" style="fill:#fecd81"/><path d="M8,29.23l-3.4,1.41a.25.25,0,0,0,.1.48l.1,0,3.4-1.41C8.11,29.54,8.05,29.38,8,29.23Z" style="fill:#fecd81"/><path d="M29.23,38.41l1.41,3.4a.25.25,0,0,0,.23.15l.1,0a.25.25,0,0,0,.14-.33l-1.41-3.39Z" style="fill:#fecd81"/><path d="M6.79,39.25a.25.25,0,1,0,.35.35l4.66-4.66-.35-.35Z" style="fill:#fecd81"/><path d="M15.3,41.62a.25.25,0,0,0,.14.33l.1,0a.25.25,0,0,0,.23-.15l1.41-3.4-.46-.19Z" style="fill:#fecd81"/><path d="M22.95,46.15a.25.25,0,1,0,.5,0V39.56h-.5Z" style="fill:#fecd81"/><path d="M16.91,29.29c0-.06,0-.12,0-.17,0-1.38-1.39-2.5-3.11-2.5a3.71,3.71,0,0,0-1.51.32,4.16,4.16,0,0,0-3.21-1.49A4.11,4.11,0,0,0,5,28.92a3.82,3.82,0,0,0-3.24,3.46c0,2,2,3.61,4.52,3.61a5.36,5.36,0,0,0,2.43-.57,3.27,3.27,0,0,0,2.14,1l.4,0a3.82,3.82,0,0,0,.73-.07,3.43,3.43,0,0,0,1.3-.54,5.51,5.51,0,0,0,1.59.23c2.49,0,4.52-1.62,4.52-3.61A3.62,3.62,0,0,0,16.91,29.29Z" style="fill:#b6d7e1"/></svg>