<svg xmlns="http://www.w3.org/2000/svg" viewBox="0 0 49 49"><title>mostlycloudy</title><circle cx="24.25" cy="24.91" r="12.02" transform="translate(-9.32 15.88) rotate(-30.7)" style="fill:#fecd81"/><path d="M14.61,15.56l.29-.29-3.82-3.82a.21.21,0,1,0-.29.29Z" style="fill:#fecd81"/><path d="M17.88,9.53a.21.21,0,0,0-.11.27l1.15,2.79.38-.15L18.15,9.64A.2.2,0,0,0,17.88,9.53Z" style="fill:#fecd81"/><path d="M24.25,5.87a.21.21,0,0,0-.21.21v5.41h.41V6.08A.21.21,0,0,0,24.25,5.87Z" style="fill:#fecd81"/><path d="M11.77,20l.16-.38L9.14,18.43a.21.21,0,1,0-.16.38Z" style="fill:#fecd81"/><path d="M36.73,20l2.79-1.16a.21.21,0,0,0-.16-.38l-2.79,1.16Z" style="fill:#fecd81"/><path d="M10.83,24.71H5.42a.21.21,0,0,0,0,.41h5.41C10.82,25,10.83,24.85,10.83,24.71Z" style="fill:#fecd81"/><path d="M37.72,11.74a.21.21,0,1,0-.29-.29L33.6,15.28l.29.29Z" style="fill:#fecd81"/><path d="M30.74,9.8a.21.21,0,0,0-.38-.16L29.2,12.43l.38.16Z" style="fill:#fecd81"/><path d="M43.09,24.71H37.68c0,.14,0,.27,0,.41h5.41a.21.21,0,0,0,0-.41Z" style="fill:#fecd81"/><path d="M36.74,29.86l-.16.38,2.79,1.16.08,0a.21.21,0,0,0,.08-.39Z" style="fill:#fecd81"/><path d="M11.77,29.86,9,31a.21.21,0,0,0,.08.39l.08,0,2.79-1.16Z" style="fill:#fecd81"/><path d="M41,26c0-.1,0-.2,0-.3,0-2.42-2.23-4.38-5-4.38a5.52,5.52,0,0,0-2.42.55,6.45,6.45,0,0,0-5.14-2.6,6.78,6.78,0,0,0-6.59,6.09,6.49,6.49,0,0,0-5.19,6.06c0,3.49,3.25,6.33,7.24,6.33a8,8,0,0,0,3.89-1,5.07,5.07,0,0,0,3.42,1.81,5.67,5.67,0,0,0,1.81-.09,5.22,5.22,0,0,0,2.08-.94,8.13,8.13,0,0,0,2.54.4c4,0,7.24-2.84,7.24-6.33A6.3,6.3,0,0,0,41,26Z" style="fill:#8ac0cf"/><path d="M25.26,30.41c0-.09,0-.17,0-.25a4,4,0,0,0-4.18-3.68,4.64,4.64,0,0,0-2,.46,5.41,5.41,0,0,0-4.32-2.18,5.69,5.69,0,0,0-5.53,5.11A5.45,5.45,0,0,0,4.85,35c0,2.93,2.73,5.31,6.08,5.31a6.7,6.7,0,0,0,3.27-.83A4.26,4.26,0,0,0,17.07,41a4.8,4.8,0,0,0,.54,0,4.72,4.72,0,0,0,1-.1,4.39,4.39,0,0,0,1.74-.79,6.82,6.82,0,0,0,2.13.34c3.35,0,6.08-2.38,6.08-5.31A5.29,5.29,0,0,0,25.26,30.41Z" style="fill:#cae2e9"/><rect width="49" height="49" style="fill:none"/></svg>