<svg xmlns="http://www.w3.org/2000/svg" viewBox="0 0 49 49"><title>nt_chancerain</title><circle cx="23.39" cy="19.71" r="13.33" style="fill:#dee0dc"/><ellipse cx="26.2" cy="25.38" rx="1.06" ry="0.91" transform="translate(-2.21 2.5) rotate(-5.24)" style="fill:#f1f2f0"/><path d="M32,10.74c-.12.13-.38-.06-.67-.34s-.45-.49-.33-.62.4-.06.69.22S32.17,10.61,32,10.74Z" style="fill:#f1f2f0"/><path d="M11.66,22c-.11-.21-.29-.68-.4-.93a8.84,8.84,0,0,1-.39-1,5.55,5.55,0,0,1-.25-1.18c0-.43-.11-.84-.11-1.25a7.8,7.8,0,0,1,.77-2.76,10.54,10.54,0,0,1,.47-1.15,10.67,10.67,0,0,1,.68-1.15,12.33,12.33,0,0,1,1.51-1.83,4.73,4.73,0,0,1,.83-.67c.51-.27.25.37.58.45.18,0,.32-.05.51,0a3.78,3.78,0,0,0,.51,0,1.72,1.72,0,0,0,.93-.4,2,2,0,0,1,.78-.39c.21-.08.82-.17.63.3-.09.23-.73.33-.94.41a5.29,5.29,0,0,0-.91.5c-.28.17-.59.23-.88.4s.2.39-.11.66-.52.36-.56.77a.4.4,0,0,0,.17.4c.06.05.12.08.16.15s0,.18.07.23.86-.39,1-.47a2.4,2.4,0,0,0,.84-.68c.22-.28.33-.61.52-.89s.51-.3.86-.35A3.83,3.83,0,0,0,20,11c.37-.17.57-.4,1-.35a1,1,0,0,1,.46.2c.16.11.4.06.48.22.19.39.73.13.91.11a1.3,1.3,0,0,1,1,.25c.25.17.34.49.56.72a5.85,5.85,0,0,0,.79.67,1.43,1.43,0,0,1,.55.79c.09.28,0,.29-.2.46a3.61,3.61,0,0,0-.55.6c-.25.34,0,.59.07.95s-.14.7-.51,1-.8.37-1.17.62c-.14.1-.41.25-.4.45s.24.31.38.33c.45.07,1-.33,1.43-.3a2.35,2.35,0,0,1,.55.11c.18.07.3.18.49.24s.75.2.75.62c0,.18-.12.38-.13.57a1.34,1.34,0,0,1,0,.53c-.16.29-.75.22-1,.18s-.62-.38-1-.44a1,1,0,0,0-1,.49c-.23.46.53.67.82.79.47.2.54.58.41,1.06a.79.79,0,0,1-1.07.58c-.23-.06-.88-.36-1.05-.16a2.25,2.25,0,0,0-.13.56,4.66,4.66,0,0,0,0,.55,1.19,1.19,0,0,0,0,.53,2.56,2.56,0,0,0,.34.44.48.48,0,0,1,.13.31c0,.13-.08.18-.09.29s.17.26.31.41c.36.38-.06.74-.42.89-.2.08-.34.12-.18.35a1.1,1.1,0,0,1,.28.53c0,.25,0,.36-.2.46a7.13,7.13,0,0,1-.83.28,3.23,3.23,0,0,1-1.09,0,.74.74,0,0,0-.57.18,2.63,2.63,0,0,0-.25.48c-.17.31-.61.61-1,.44s-.31-.71-.58-.92-.82,0-1.08,0c-.73,0-1.83-.5-1.44-1.43.21-.49.77-.52,1.19-.74s-.16-.59-.42-.68a8.25,8.25,0,0,1-1.07-.55,1.13,1.13,0,0,0-1.06.06c-.17.07-.28.23-.44.27a.72.72,0,0,1-.51-.13c-.44-.26-.46-.58-.45-1C13,23,11.88,22.47,11.66,22Z" style="fill:#ccd0ca"/><path d="M11.43,23.21a.91.91,0,0,1-.1-.4c0-.13.07-.29.23-.29.35,0,.47.45.53.7a.7.7,0,0,1,0,.44.28.28,0,0,1-.3,0A1,1,0,0,1,11.43,23.21Z" style="fill:#c2c6bf"/><ellipse cx="22.26" cy="30.43" rx="0.56" ry="0.77" transform="matrix(0.19, -0.98, 0.98, 0.19, -11.87, 46.44)" style="fill:#c2c6bf"/><path d="M20.25,9.07a1.32,1.32,0,0,1,.86-.3,3.47,3.47,0,0,0,.64,0,1.52,1.52,0,0,1,.68,0c.21.06.31.27.51.34s.38,0,.59-.09a.87.87,0,0,1,.61.06,4,4,0,0,1,.41.37,4.87,4.87,0,0,0,.57.35.74.74,0,0,0,.59.14l.64,0A1.61,1.61,0,0,0,27,9.63a2.16,2.16,0,0,1,.68-.25,1.39,1.39,0,0,1,.62.09,3,3,0,0,0,.6.14,1.58,1.58,0,0,1,.54.3c.18.12.34.17.33.43s-.18.4-.09.59.32.3.34.55-.14.45.15.59a2.08,2.08,0,0,1,.43.21,1.71,1.71,0,0,1,.33.46c.15.25.54.25.54.59s-.22.34-.47.29a.65.65,0,0,1-.3-.1c-.1-.08-.15-.17-.27-.22a1.84,1.84,0,0,0-.81-.09,2.11,2.11,0,0,1-.74,0,.45.45,0,0,1-.32-.33,2.16,2.16,0,0,1,0-.32c0-.27-.36-.38-.25-.69.06-.15.22-.27,0-.36a1.22,1.22,0,0,0-.51,0c-.48,0-.94.2-1.43.21a3.57,3.57,0,0,1-.77,0c-.32-.08-.21-.38-.22-.62s-.28-.32-.51-.41-.51-.05-.62-.26,0-.21-.07-.31-.16-.12-.27-.15l-.71-.15a1.87,1.87,0,0,0-.73-.08,1.17,1.17,0,0,0-.59.32.66.66,0,0,1-.57.22c-.1,0-.19-.08-.29-.12a.4.4,0,0,0-.29,0,1.28,1.28,0,0,1-.64.05c-.2,0-.18-.08-.21-.26s-.1-.17-.17-.27S20.09,9.22,20.25,9.07Z" style="fill:#ccd0ca"/><path d="M39.38,23.4c0-.09,0-.17,0-.25a4,4,0,0,0-4.17-3.67,4.62,4.62,0,0,0-2,.46,5.4,5.4,0,0,0-4.31-2.18,5.68,5.68,0,0,0-5.52,5.1A5.43,5.43,0,0,0,19,27.93c0,2.92,2.72,5.3,6.06,5.3a6.69,6.69,0,0,0,3.26-.83,4.25,4.25,0,0,0,2.87,1.52,4.75,4.75,0,0,0,1.52-.07,4.37,4.37,0,0,0,1.74-.79,6.8,6.8,0,0,0,2.13.34c3.34,0,6.06-2.37,6.06-5.29A5.27,5.27,0,0,0,39.38,23.4Z" style="fill:#adbdb8"/><path d="M22.25,26.28c0-.06,0-.12,0-.18a2.84,2.84,0,0,0-3-2.64,3.33,3.33,0,0,0-1.46.33,3.88,3.88,0,0,0-3.1-1.57,4.08,4.08,0,0,0-4,3.67,3.91,3.91,0,0,0-3.12,3.65A4.12,4.12,0,0,0,12,33.34a4.81,4.81,0,0,0,2.34-.6,3.06,3.06,0,0,0,2.06,1.09l.39,0a3.38,3.38,0,0,0,.71-.07,3.15,3.15,0,0,0,1.25-.57,4.89,4.89,0,0,0,1.53.24,4.12,4.12,0,0,0,4.36-3.81A3.79,3.79,0,0,0,22.25,26.28Z" style="fill:#e1e7e5"/><path d="M34.05,38.64c0,.95.39,1.37.87,1.37s.87-.42.87-1.37a20.14,20.14,0,0,0-.87-3.2C34.75,36.39,34.05,37.7,34.05,38.64Z" style="fill:#8ac0cf"/><path d="M28.5,42.26c0,.95.39,1.37.87,1.37s.87-.42.87-1.37a20.12,20.12,0,0,0-.87-3.2C29.19,40,28.5,41.32,28.5,42.26Z" style="fill:#8ac0cf"/><path d="M23.71,39.86c0,.95.39,1.37.87,1.37s.87-.42.87-1.37a20.18,20.18,0,0,0-.87-3.2C24.4,37.61,23.71,38.91,23.71,39.86Z" style="fill:#8ac0cf"/><path d="M19.6,43.55c0,.95.39,1.37.87,1.37s.87-.42.87-1.37a20.12,20.12,0,0,0-.87-3.2C20.29,41.3,19.6,42.6,19.6,43.55Z" style="fill:#8ac0cf"/><path d="M15.39,39.15c0,.95.39,1.37.87,1.37s.87-.42.87-1.37a20.11,20.11,0,0,0-.87-3.2C16.09,36.9,15.39,38.2,15.39,39.15Z" style="fill:#8ac0cf"/><rect width="49" height="49" style="fill:none"/></svg>