<svg xmlns="http://www.w3.org/2000/svg" viewBox="0 0 33.25 35.77"><title>Asset 23</title><path d="M15.25,29a17.82,17.82,0,0,1,2.1-24.4Q18,4,18.69,3.49A17.81,17.81,0,0,1,23.58.94a17.89,17.89,0,1,0,0,33.89A17.9,17.9,0,0,1,15.25,29Z" style="fill:#c8ccc5"/><path d="M14.61,5.79c-.57-.08-.84.24-1.33.47a5.13,5.13,0,0,1-1.36.21c-.48.07-.86,0-1.16.47s-.4.82-.7,1.2A3.23,3.23,0,0,1,8.93,9c-.2.11-1.18.73-1.36.63s0-.21-.09-.3-.14-.13-.21-.2A.54.54,0,0,1,7,8.63c0-.55.38-.71.75-1s-.42-.54.15-.89c.38-.23.8-.3,1.18-.53a7.09,7.09,0,0,1,1.21-.67c.29-.11,1.14-.24,1.27-.56.25-.63-.56-.52-.84-.41a2.65,2.65,0,0,0-1,.52,2.3,2.3,0,0,1-1.24.54,5.11,5.11,0,0,1-.68-.06c-.26,0-.45.12-.68.06-.44-.11-.1-1-.78-.6a6.35,6.35,0,0,0-1.12.89,16.6,16.6,0,0,0-2,2.46,14.25,14.25,0,0,0-.91,1.54,14.16,14.16,0,0,0-.63,1.54,10.47,10.47,0,0,0-1,3.7c0,.56.12,1.11.15,1.68a7.45,7.45,0,0,0,.33,1.58,11.91,11.91,0,0,0,.53,1.33c.14.34.39,1,.53,1.24.31.61,1.75,1.35,1.71,2.46,0,.61,0,1,.6,1.4a1,1,0,0,0,.68.17c.21-.06.35-.27.59-.36a1.51,1.51,0,0,1,1.42-.08,11,11,0,0,0,1.44.74c.36.12,1.26.54.57.91s-1.31.33-1.59,1c-.52,1.24.95,1.91,1.93,1.91.34,0,1.18-.15,1.44.06s.26,1,.78,1.24,1.07-.18,1.3-.59a3.52,3.52,0,0,1,.34-.64,1,1,0,0,1,.76-.24c.42,0,.77.08,1.14,0a17.83,17.83,0,0,1,.47-22.75,2.17,2.17,0,0,1-.49-.17A1.3,1.3,0,0,0,14.61,5.79Z" style="fill:#dadcd8"/><path d="M2,21.66c-.21,0-.3.21-.31.38a1.24,1.24,0,0,0,.13.54,1.31,1.31,0,0,0,.45.66.38.38,0,0,0,.41-.05.93.93,0,0,0,0-.59C2.65,22.27,2.48,21.66,2,21.66Z" style="fill:#c2c6bf"/><ellipse cx="16.38" cy="32.26" rx="0.75" ry="1.03" transform="translate(-18.43 42.15) rotate(-78.95)" style="fill:#b9bdb5"/><path d="M18.08,3.47c-.27.07-.49.22-.79.12s-.4-.37-.69-.45a2,2,0,0,0-.91.05,4.67,4.67,0,0,1-.86,0,1.77,1.77,0,0,0-1.15.4c-.22.21-.86.55-.66.89.08.15.2.19.22.37s0,.31.28.35a1.72,1.72,0,0,0,.86-.07.53.53,0,0,1,.39,0c.13,0,.25.12.39.15A.89.89,0,0,0,15.92,5a1.57,1.57,0,0,1,.79-.43,1.63,1.63,0,0,1,.63,0Q18,4,18.69,3.49A1.26,1.26,0,0,0,18.08,3.47Z" style="fill:#b9bdb5"/><polygon points="33.25 11.05 28.93 9.33 27.67 13.81 27.98 9.17 23.33 9.36 27.84 8.21 26.22 3.85 28.7 7.78 32.35 4.9 29.38 8.48 33.25 11.05" style="fill:#d7dad5"/><polygon points="20.1 22.53 18.31 19.48 15.47 21.58 17.82 18.94 14.95 16.89 18.18 18.3 19.25 14.94 18.9 18.45 22.43 18.42 18.98 19.18 20.1 22.53" style="fill:#d7dad5"/><polygon points="30.25 30.66 27.74 28.18 25.54 30.95 27.12 27.79 23.81 26.55 27.3 27.08 27.46 23.55 28.04 27.03 31.44 26.09 28.31 27.72 30.25 30.66" style="fill:#d7dad5"/></svg>