<svg xmlns="http://www.w3.org/2000/svg" viewBox="0 0 49 49"><title>nt_clear</title><circle cx="25.3" cy="24.5" r="17.54" style="fill:#c8ccc5"/><ellipse cx="28.99" cy="31.96" rx="1.39" ry="1.19" transform="translate(-2.8 2.78) rotate(-5.24)" style="fill:#e2e4e1"/><path d="M36.68,12.7c-.16.17-.5-.08-.89-.44s-.6-.65-.43-.82.52-.08.91.29S36.85,12.53,36.68,12.7Z" style="fill:#e2e4e1"/><path d="M39.63,21.71a4.64,4.64,0,0,1,.15-1.29,1.35,1.35,0,0,1,.48-.44c.11,0,.19-.24.28-.24.3,0,.64.67.82.86A2.79,2.79,0,0,1,42,22c0,.2.14.59,0,.75a.69.69,0,0,0-.3.6c0,.25-.13.4-.25.62s-.31.15-.44.33c-.35.5-.72-.88-.91-1.05a2,2,0,0,1-.45-1.51Z" style="fill:#e2e4e1"/><path d="M32,26.38c-.07-.13,0-.36,0-.53s0-.38-.07-.57a8.06,8.06,0,0,0-.1-1.23c-.11-.43.08-.64.37-1s.48-.6.07-.84c-.68-.4-1.61-.13-2.3-.52a1.32,1.32,0,0,1-.44-.33,1.55,1.55,0,0,1-.15-.55c-.09-.34-.26-.68-.38-1a1.54,1.54,0,0,0-.44-.82c-.14-.11-.33-.13-.44-.28a.88.88,0,0,1-.13-.53c.07-.41.58-.46.9-.57s.32-.57.48-.89c.31-.65.74-1.31,1.61-1.08.67.18,1.15,1.17,1.9.88.38-.15.77-.5,1.21-.28s.36.65.3.93a.89.89,0,0,0,.19.93c.25.25.58.33.68.72A1.43,1.43,0,0,1,35,19.94a1.2,1.2,0,0,0,.06,1c.12.31.09.79.34,1s.7.42.91.3.32-.72.51-1,.26-.15.5-.12.34,0,.39.27c.16.69-.38,1.53.2,2.12.26.26.69.38.9.68s.27.61.56.87a1.51,1.51,0,0,1,.57.88c.05.36,0,.81.25,1.1a.93.93,0,0,0,1,.07c.46-.19.58,0,.53.46a5,5,0,0,1-.21,1.21,9.54,9.54,0,0,1-1.07,1.88c-.36.55-.76,1.08-1.14,1.61a6.89,6.89,0,0,1-1,1.24c-.24.2-.8.48-1.13.3s-.23-.65-.13-.89a3.62,3.62,0,0,1,.25-.48c.1-.17.42-.38.43-.55s-.17-.38-.21-.49a5.47,5.47,0,0,1-.21-.53c-.11-.4.17-.71.14-1.11a1.54,1.54,0,0,1,0-.59,5.54,5.54,0,0,0,.21-.53c.18-.89-.79-1.45-1.56-1.26-.41.1-.78.19-.91.65a2.87,2.87,0,0,0,.08,1.14c0,.32-.05.87.15,1.13s.78.2,1.07.45.18.75.09,1a5.58,5.58,0,0,1-.8,1.22c-.25.34-.76.65-1.18.39-.23-.14-.24-.37-.38-.56a2.18,2.18,0,0,0-.44-.38c-.39-.33-.22-.82-.14-1.26a1.62,1.62,0,0,0,.07-.61,2.12,2.12,0,0,0-.25-.53A1.35,1.35,0,0,1,33.42,29c.06-.29.21-.7,0-.94s-.68-.28-.95-.51a1.55,1.55,0,0,1-.34-.42C32,26.92,32,26.55,32,26.38Z" style="fill:#e2e4e1"/><path d="M9.87,27.53c-.14-.28-.38-.89-.52-1.22A11.63,11.63,0,0,1,8.83,25a7.31,7.31,0,0,1-.33-1.55c0-.56-.15-1.1-.15-1.65a10.26,10.26,0,0,1,1-3.63A13.89,13.89,0,0,1,10,16.68a14,14,0,0,1,.89-1.51,16.23,16.23,0,0,1,2-2.41,6.22,6.22,0,0,1,1.1-.88c.66-.35.33.48.76.59.23.06.42-.07.67-.06a5,5,0,0,0,.67.06,2.26,2.26,0,0,0,1.22-.53,2.6,2.6,0,0,1,1-.51c.28-.11,1.07-.22.83.4-.12.31-1,.44-1.24.55a7,7,0,0,0-1.19.65c-.37.22-.78.3-1.15.52-.56.34.27.51-.15.87s-.69.47-.73,1a.53.53,0,0,0,.23.53c.07.07.15.1.21.2s0,.24.09.3,1.14-.51,1.34-.62a3.16,3.16,0,0,0,1.11-.89c.29-.37.43-.8.68-1.17s.67-.39,1.14-.46a5,5,0,0,0,1.34-.21c.49-.22.75-.53,1.31-.46a1.29,1.29,0,0,1,.61.26c.22.15.53.07.64.29.25.52,1,.18,1.19.14a1.72,1.72,0,0,1,1.3.33c.33.23.45.64.73.94a7.69,7.69,0,0,0,1,.88,1.88,1.88,0,0,1,.73,1c.12.36,0,.38-.27.6a4.75,4.75,0,0,0-.73.79c-.32.45,0,.78.1,1.25.16.63-.18.92-.67,1.32s-1,.49-1.53.82c-.18.13-.54.33-.52.59s.32.4.5.43c.59.09,1.26-.44,1.88-.4a3.1,3.1,0,0,1,.72.14c.24.09.39.24.64.31.43.13,1,.27,1,.82,0,.24-.16.5-.18.75a1.76,1.76,0,0,1-.06.7c-.21.38-1,.29-1.36.23s-.81-.5-1.28-.57a1.37,1.37,0,0,0-1.3.64c-.3.6.7.88,1.08,1,.62.26.71.76.53,1.39a1,1,0,0,1-1.4.77c-.3-.08-1.16-.47-1.38-.22a3,3,0,0,0-.17.73,6.13,6.13,0,0,0-.06.72,1.56,1.56,0,0,0,0,.7,3.36,3.36,0,0,0,.45.57.64.64,0,0,1,.17.41c0,.17-.1.24-.12.38,0,.31.22.34.41.54.48.49-.08,1-.56,1.17-.26.1-.44.16-.23.46a1.45,1.45,0,0,1,.37.7c0,.33,0,.47-.26.61a9.38,9.38,0,0,1-1.09.37,4.25,4.25,0,0,1-1.43,0,1,1,0,0,0-.75.23,3.45,3.45,0,0,0-.33.63c-.23.4-.8.8-1.27.58s-.41-.93-.76-1.21-1.08-.06-1.42-.06c-1,0-2.4-.66-1.89-1.88.27-.65,1-.69,1.56-1s-.21-.78-.56-.89A10.84,10.84,0,0,1,14.77,31a1.48,1.48,0,0,0-1.39.08c-.23.09-.36.3-.57.35a1,1,0,0,1-.67-.17c-.58-.34-.61-.77-.59-1.37C11.58,28.85,10.17,28.13,9.87,27.53Z" style="fill:#b9bdb5"/><path d="M9.57,29.11a1.2,1.2,0,0,1-.13-.53c0-.18.09-.38.3-.38.45,0,.61.6.69.92a.92.92,0,0,1,0,.58.37.37,0,0,1-.4.05A1.29,1.29,0,0,1,9.57,29.11Z" style="fill:#c2c6bf"/><ellipse cx="23.82" cy="38.6" rx="0.74" ry="1.01" transform="translate(-18.63 54.57) rotate(-78.95)" style="fill:#c2c6bf"/><path d="M21.17,10.5a1.73,1.73,0,0,1,1.13-.4,4.57,4.57,0,0,0,.85,0A2,2,0,0,1,24,10c.28.08.41.36.67.44s.5,0,.77-.12a1.15,1.15,0,0,1,.81.07,5.29,5.29,0,0,1,.54.49,6.41,6.41,0,0,0,.75.46,1,1,0,0,0,.77.18l.85-.07a2.12,2.12,0,0,0,.83-.25,2.84,2.84,0,0,1,.89-.33,1.83,1.83,0,0,1,.81.12,3.88,3.88,0,0,0,.79.19,2.08,2.08,0,0,1,.72.4c.24.15.45.23.43.56s-.23.53-.12.78.42.39.45.72-.18.59.2.78a2.73,2.73,0,0,1,.57.27,2.25,2.25,0,0,1,.43.61c.2.33.71.33.71.77s-.29.44-.62.38a.86.86,0,0,1-.4-.14c-.13-.1-.2-.22-.36-.29a2.42,2.42,0,0,0-1.07-.12,2.78,2.78,0,0,1-1,0,.6.6,0,0,1-.42-.43,2.84,2.84,0,0,1,.05-.42c0-.36-.48-.5-.32-.91.08-.2.29-.36,0-.47a1.6,1.6,0,0,0-.67,0c-.63.06-1.24.27-1.88.28a4.7,4.7,0,0,1-1,0c-.42-.1-.28-.5-.29-.81s-.37-.42-.67-.54-.67-.07-.81-.34,0-.28-.09-.41-.21-.16-.36-.19l-.93-.2a2.46,2.46,0,0,0-1-.1,1.54,1.54,0,0,0-.77.43.87.87,0,0,1-.76.29c-.14,0-.25-.11-.38-.15a.52.52,0,0,0-.38,0,1.69,1.69,0,0,1-.84.07c-.26,0-.24-.1-.27-.34s-.14-.22-.22-.36C20.33,11,21,10.71,21.17,10.5Z" style="fill:#b9bdb5"/><rect width="49" height="49" style="fill:none"/></svg>