<svg xmlns="http://www.w3.org/2000/svg" viewBox="0 0 49 49"><title>nt_cloudy</title><circle cx="24" cy="24.45" r="15.42" style="fill:#dee0dc"/><ellipse cx="27.25" cy="31.01" rx="1.22" ry="1.05" transform="translate(-2.72 2.62) rotate(-5.24)" style="fill:#f1f2f0"/><path d="M34,14.07c-.14.15-.44-.07-.78-.39s-.52-.57-.38-.72.46-.07.8.25S34.15,13.92,34,14.07Z" style="fill:#f1f2f0"/><path d="M10.42,27.12c-.13-.25-.33-.78-.46-1.07a10.23,10.23,0,0,1-.45-1.15,6.43,6.43,0,0,1-.29-1.36c0-.49-.13-1-.13-1.45A9,9,0,0,1,10,18.9a12.21,12.21,0,0,1,.54-1.33,12.34,12.34,0,0,1,.78-1.33,14.27,14.27,0,0,1,1.75-2.12,5.47,5.47,0,0,1,1-.77c.58-.31.29.42.67.52.2,0,.37-.06.59-.05a4.38,4.38,0,0,0,.59.05,2,2,0,0,0,1.07-.47,2.29,2.29,0,0,1,.9-.45c.25-.09.94-.19.73.35-.11.27-.84.39-1.09.48a6.12,6.12,0,0,0-1,.57c-.33.2-.69.26-1,.46-.49.3.23.45-.13.77s-.61.41-.64.89a.46.46,0,0,0,.2.47c.06.06.14.09.18.17s0,.21.08.26,1-.45,1.18-.54a2.78,2.78,0,0,0,1-.79c.26-.32.38-.7.6-1s.59-.34,1-.4A4.42,4.42,0,0,0,20,14.42c.43-.19.66-.47,1.15-.4a1.13,1.13,0,0,1,.54.23c.19.13.46.07.56.26.22.45.85.15,1.05.12a1.51,1.51,0,0,1,1.15.29c.29.2.4.57.65.83a6.76,6.76,0,0,0,.91.78,1.65,1.65,0,0,1,.64.91c.11.32,0,.33-.24.53a4.18,4.18,0,0,0-.64.7c-.28.39,0,.69.08,1.1s-.16.81-.59,1.16-.92.43-1.35.72c-.16.11-.47.29-.46.52s.28.35.44.38c.52.08,1.1-.39,1.65-.35a2.72,2.72,0,0,1,.64.13c.21.08.34.21.56.28.38.11.87.24.87.72,0,.21-.14.44-.15.66a1.55,1.55,0,0,1-.05.61c-.18.33-.87.26-1.19.2s-.72-.44-1.12-.5a1.21,1.21,0,0,0-1.14.57c-.26.53.62.77.95.91.54.23.62.67.47,1.22a.91.91,0,0,1-1.23.67c-.26-.07-1-.41-1.22-.19a2.61,2.61,0,0,0-.15.64,5.38,5.38,0,0,0-.06.63,1.37,1.37,0,0,0,0,.62,3,3,0,0,0,.4.51.56.56,0,0,1,.15.36c0,.15-.09.21-.1.33s.2.3.36.48c.42.43-.07.86-.49,1-.23.09-.39.14-.2.4a1.28,1.28,0,0,1,.32.62c0,.29,0,.41-.23.54A8.25,8.25,0,0,1,22,34a3.74,3.74,0,0,1-1.26,0,.86.86,0,0,0-.66.2,3,3,0,0,0-.29.55c-.2.35-.7.71-1.12.51s-.36-.82-.67-1.07-1-.05-1.24-.05c-.85,0-2.11-.58-1.67-1.65.24-.57.89-.61,1.37-.86s-.18-.69-.49-.79a9.53,9.53,0,0,1-1.24-.64,1.3,1.3,0,0,0-1.23.07c-.2.08-.32.26-.5.31a.84.84,0,0,1-.59-.15c-.51-.3-.53-.68-.52-1.21C11.93,28.28,10.69,27.64,10.42,27.12Z" style="fill:#ccd0ca"/><path d="M10.16,28.5A1.05,1.05,0,0,1,10,28c0-.15.08-.33.26-.33.4,0,.54.52.61.81a.81.81,0,0,1,0,.51.33.33,0,0,1-.35,0A1.14,1.14,0,0,1,10.16,28.5Z" style="fill:#c2c6bf"/><ellipse cx="22.69" cy="36.85" rx="0.65" ry="0.89" transform="translate(-17.82 52.06) rotate(-78.94)" style="fill:#c2c6bf"/><path d="M20.37,12.14a1.52,1.52,0,0,1,1-.35,4,4,0,0,0,.74,0,1.76,1.76,0,0,1,.79,0c.24.07.36.31.59.39s.44,0,.68-.1a1,1,0,0,1,.71.06,4.65,4.65,0,0,1,.47.43,5.63,5.63,0,0,0,.66.4.86.86,0,0,0,.68.16l.74-.06a1.86,1.86,0,0,0,.73-.22,2.5,2.5,0,0,1,.78-.29,1.61,1.61,0,0,1,.71.11,3.41,3.41,0,0,0,.7.17,1.83,1.83,0,0,1,.63.35c.21.14.39.2.38.5s-.21.47-.11.68.37.35.4.63-.16.52.18.68a2.4,2.4,0,0,1,.5.24,2,2,0,0,1,.38.53c.18.29.62.29.62.68s-.25.39-.55.33a.76.76,0,0,1-.35-.12c-.11-.09-.17-.19-.31-.25a2.13,2.13,0,0,0-.94-.11,2.45,2.45,0,0,1-.86,0,.52.52,0,0,1-.37-.38,2.5,2.5,0,0,1,0-.37c0-.31-.42-.44-.28-.8.07-.18.26-.31,0-.41a1.41,1.41,0,0,0-.59,0c-.56.05-1.09.24-1.65.24a4.14,4.14,0,0,1-.89,0c-.37-.09-.25-.44-.26-.71s-.33-.37-.59-.47-.59-.06-.71-.3,0-.25-.08-.36-.18-.14-.31-.17L23.83,13a2.17,2.17,0,0,0-.85-.09,1.36,1.36,0,0,0-.68.37.76.76,0,0,1-.66.25c-.12,0-.22-.09-.33-.13a.46.46,0,0,0-.33,0,1.49,1.49,0,0,1-.74.06c-.23,0-.21-.09-.24-.3s-.12-.19-.19-.32C19.63,12.62,20.18,12.32,20.37,12.14Z" style="fill:#ccd0ca"/><path d="M42.5,28.72c0-.1,0-.2,0-.29a4.57,4.57,0,0,0-4.82-4.24,5.34,5.34,0,0,0-2.34.53,6.24,6.24,0,0,0-5-2.52A6.57,6.57,0,0,0,24,28.1,6.29,6.29,0,0,0,19,34c0,3.38,3.15,6.13,7,6.13a7.74,7.74,0,0,0,3.77-1,4.91,4.91,0,0,0,3.31,1.76,5.49,5.49,0,0,0,1.76-.08,5.06,5.06,0,0,0,2-.91,7.87,7.87,0,0,0,2.46.39c3.87,0,7-2.75,7-6.13A6.1,6.1,0,0,0,42.5,28.72Z" style="fill:#adbdb8"/><path d="M22.68,32c0-.07,0-.14,0-.21a3.28,3.28,0,0,0-3.47-3.05,3.85,3.85,0,0,0-1.69.38A4.49,4.49,0,0,0,14,27.36,4.72,4.72,0,0,0,9.36,31.6a4.52,4.52,0,0,0-3.61,4.22c0,2.43,2.26,4.41,5,4.41a5.56,5.56,0,0,0,2.71-.69,3.53,3.53,0,0,0,2.38,1.26l.45,0a3.91,3.91,0,0,0,.82-.09,3.64,3.64,0,0,0,1.45-.65,5.66,5.66,0,0,0,1.77.28c2.78,0,5-2,5-4.4A4.39,4.39,0,0,0,22.68,32Z" style="fill:#ebefee"/><rect width="49" height="49" style="fill:none"/></svg>