<svg xmlns="http://www.w3.org/2000/svg" viewBox="0 0 35.72 35.72"><title>Asset 22</title><circle cx="17.86" cy="17.86" r="17.86" style="fill:#c8ccc5"/><ellipse cx="21.62" cy="25.46" rx="1.42" ry="1.22" transform="matrix(1, -0.09, 0.09, 1, -2.24, 2.08)" style="fill:#e2e4e1"/><path d="M29.46,5.85c-.17.18-.51-.08-.9-.45s-.61-.66-.44-.84.53-.08.93.29S29.62,5.67,29.46,5.85Z" style="fill:#e2e4e1"/><path d="M32.46,15a4.73,4.73,0,0,1,.15-1.31,1.37,1.37,0,0,1,.49-.45c.11,0,.2-.24.29-.24.3,0,.65.68.84.87a2.84,2.84,0,0,1,.66,1.4c0,.2.14.6,0,.76a.7.7,0,0,0-.3.61c0,.26-.13.41-.25.63s-.32.15-.45.34c-.36.51-.73-.89-.93-1.07A2,2,0,0,1,32.46,15Z" style="fill:#e2e4e1"/><path d="M24.64,19.78c-.07-.13,0-.36,0-.54s0-.39-.07-.58a8.2,8.2,0,0,0-.1-1.26c-.11-.44.08-.65.38-1s.49-.61.07-.86c-.69-.41-1.64-.13-2.34-.53a1.35,1.35,0,0,1-.44-.33,1.58,1.58,0,0,1-.15-.56c-.09-.35-.26-.69-.39-1a1.57,1.57,0,0,0-.44-.83c-.14-.11-.33-.14-.44-.28a.9.9,0,0,1-.13-.54c.08-.42.59-.46.91-.58s.32-.58.48-.91c.32-.66.76-1.34,1.64-1.1.68.18,1.17,1.19,1.94.9.38-.15.78-.51,1.23-.28s.37.67.31,1a.91.91,0,0,0,.19,1c.25.26.59.34.7.73a1.45,1.45,0,0,1-.25,1.1,1.22,1.22,0,0,0,.06,1c.12.32.09.8.35,1.05s.71.42.93.3.32-.73.52-1,.27-.15.51-.12.34,0,.4.28c.16.7-.39,1.56.21,2.15.26.27.7.39.92.69s.27.62.57.88a1.54,1.54,0,0,1,.58.89c.05.37,0,.83.25,1.12a1,1,0,0,0,1,.07c.47-.2.59,0,.54.47a5.06,5.06,0,0,1-.22,1.23,9.71,9.71,0,0,1-1.09,1.91c-.37.56-.77,1.1-1.16,1.64a7,7,0,0,1-1,1.26c-.24.21-.82.49-1.15.31s-.23-.66-.13-.91a3.69,3.69,0,0,1,.26-.49c.1-.17.43-.39.44-.56s-.17-.38-.22-.5a5.57,5.57,0,0,1-.21-.54c-.12-.4.17-.73.15-1.13a1.57,1.57,0,0,1,0-.6,5.64,5.64,0,0,0,.22-.54c.19-.91-.81-1.48-1.59-1.28-.42.11-.8.2-.93.66a2.93,2.93,0,0,0,.09,1.16c0,.33-.05.88.16,1.15s.8.2,1.09.46.19.76.09,1.06a5.69,5.69,0,0,1-.82,1.24c-.25.35-.78.67-1.2.4-.23-.15-.25-.37-.39-.57a2.22,2.22,0,0,0-.45-.39c-.4-.33-.23-.83-.14-1.28a1.65,1.65,0,0,0,.07-.62,2.16,2.16,0,0,0-.26-.54,1.37,1.37,0,0,1-.12-1.07c.06-.29.22-.71,0-1s-.69-.28-1-.52a1.58,1.58,0,0,1-.35-.43C24.68,20.33,24.73,19.95,24.64,19.78Z" style="fill:#e2e4e1"/><path d="M2.15,20.95c-.14-.29-.39-.91-.53-1.24a11.84,11.84,0,0,1-.52-1.33A7.44,7.44,0,0,1,.76,16.8c0-.57-.15-1.12-.15-1.68a10.45,10.45,0,0,1,1-3.7,14.14,14.14,0,0,1,.63-1.54,14.29,14.29,0,0,1,.91-1.54,16.53,16.53,0,0,1,2-2.45A6.33,6.33,0,0,1,6.31,5c.68-.36.34.49.78.6.23.06.42-.07.68-.06a5.07,5.07,0,0,0,.68.06,2.3,2.3,0,0,0,1.24-.54,2.65,2.65,0,0,1,1-.52c.29-.11,1.09-.22.84.41-.12.31-1,.45-1.27.56a7.08,7.08,0,0,0-1.21.66c-.38.23-.79.3-1.18.53-.57.34.27.52-.15.89s-.7.48-.75,1a.54.54,0,0,0,.23.54c.07.07.16.1.21.2s0,.25.09.3S8.71,9.14,8.92,9A3.22,3.22,0,0,0,10,8.13c.3-.38.44-.81.7-1.2s.68-.4,1.16-.47a5.12,5.12,0,0,0,1.36-.21c.5-.22.76-.54,1.33-.47a1.31,1.31,0,0,1,.62.27c.22.15.54.08.65.3.25.53,1,.18,1.22.14a1.75,1.75,0,0,1,1.33.33c.33.23.46.66.75,1a7.83,7.83,0,0,0,1.06.9,1.91,1.91,0,0,1,.74,1.06c.13.37,0,.38-.27.61a4.84,4.84,0,0,0-.74.81c-.33.46,0,.8.1,1.27.17.64-.19.94-.69,1.34s-1.07.5-1.56.84c-.19.13-.54.34-.53.6s.33.41.51.44c.6.09,1.28-.45,1.92-.41a3.15,3.15,0,0,1,.74.15c.25.09.4.24.65.32.44.13,1,.27,1,.83,0,.24-.16.5-.18.76a1.79,1.79,0,0,1-.06.71c-.21.39-1,.3-1.38.24s-.83-.51-1.3-.58a1.4,1.4,0,0,0-1.32.66c-.31.61.71.9,1.1,1.06.63.27.72.77.54,1.41a1.06,1.06,0,0,1-1.43.78c-.3-.08-1.18-.48-1.41-.22a3,3,0,0,0-.17.75,6.24,6.24,0,0,0-.06.73,1.59,1.59,0,0,0,0,.72,3.43,3.43,0,0,0,.46.58.65.65,0,0,1,.17.42c0,.17-.1.24-.12.39,0,.31.23.35.42.55.48.5-.08,1-.57,1.19-.27.11-.45.16-.24.47a1.48,1.48,0,0,1,.38.72c0,.33,0,.48-.26.62a9.56,9.56,0,0,1-1.11.38,4.33,4.33,0,0,1-1.46,0,1,1,0,0,0-.76.24,3.52,3.52,0,0,0-.34.64c-.23.41-.81.82-1.29.59s-.42-1-.78-1.23-1.1-.06-1.44-.06c-1,0-2.45-.67-1.93-1.91.28-.66,1-.7,1.59-1s-.21-.79-.57-.91a11,11,0,0,1-1.43-.74,1.51,1.51,0,0,0-1.42.08c-.23.09-.37.3-.58.36a1,1,0,0,1-.68-.17c-.59-.35-.62-.78-.6-1.4C3.89,22.3,2.45,21.56,2.15,20.95Z" style="fill:#b9bdb5"/><path d="M1.84,22.55A1.22,1.22,0,0,1,1.71,22c0-.18.09-.38.31-.38.46,0,.63.61.7.94a.93.93,0,0,1,0,.59.38.38,0,0,1-.41.05A1.31,1.31,0,0,1,1.84,22.55Z" style="fill:#c2c6bf"/><ellipse cx="16.35" cy="32.22" rx="0.75" ry="1.03" transform="translate(-18.4 42.09) rotate(-78.95)" style="fill:#c2c6bf"/><path d="M13.66,3.61a1.76,1.76,0,0,1,1.15-.4,4.65,4.65,0,0,0,.86,0,2,2,0,0,1,.91-.05c.28.08.41.36.69.45s.51,0,.78-.12a1.17,1.17,0,0,1,.82.07,5.39,5.39,0,0,1,.55.5,6.53,6.53,0,0,0,.77.47,1,1,0,0,0,.78.18l.86-.07a2.16,2.16,0,0,0,.84-.26A2.89,2.89,0,0,1,23.59,4a1.87,1.87,0,0,1,.82.12,4,4,0,0,0,.81.19,2.12,2.12,0,0,1,.73.41c.24.16.46.23.44.57s-.24.54-.13.79.43.4.46.73-.18.6.21.79a2.78,2.78,0,0,1,.58.27,2.3,2.3,0,0,1,.44.62c.21.34.72.33.72.78s-.29.45-.63.38a.88.88,0,0,1-.41-.14c-.13-.1-.2-.22-.36-.29a2.46,2.46,0,0,0-1.09-.13,2.83,2.83,0,0,1-1,0,.61.61,0,0,1-.43-.44,2.9,2.9,0,0,1,.05-.43c0-.36-.49-.51-.33-.92.08-.21.3-.36,0-.48a1.63,1.63,0,0,0-.68,0c-.64.06-1.26.27-1.91.28a4.78,4.78,0,0,1-1,0c-.43-.1-.29-.51-.3-.83s-.38-.43-.68-.55-.68-.07-.83-.34S19,5.18,19,5s-.21-.17-.36-.2l-.95-.21a2.51,2.51,0,0,0-1-.1A1.57,1.57,0,0,0,15.9,5a.88.88,0,0,1-.77.29c-.14,0-.25-.11-.39-.15a.53.53,0,0,0-.39,0,1.72,1.72,0,0,1-.85.07c-.26,0-.25-.11-.28-.35s-.14-.22-.22-.37C12.8,4.16,13.44,3.81,13.66,3.61Z" style="fill:#b9bdb5"/></svg>