<svg xmlns="http://www.w3.org/2000/svg" viewBox="0 0 49 49"><title>nt_cloudy</title><circle cx="24.8" cy="24.23" r="12.9" style="fill:#dee0dc"/><ellipse cx="27.52" cy="29.72" rx="1.02" ry="0.88" transform="translate(-2.6 2.64) rotate(-5.24)" style="fill:#f1f2f0"/><path d="M33.17,15.55c-.12.13-.37-.06-.65-.32s-.44-.48-.32-.6.38-.06.67.21S33.29,15.43,33.17,15.55Z" style="fill:#f1f2f0"/><path d="M13.45,26.46c-.1-.21-.28-.65-.38-.9a8.55,8.55,0,0,1-.38-1,5.38,5.38,0,0,1-.24-1.14c0-.41-.11-.81-.11-1.21a7.55,7.55,0,0,1,.74-2.67,10.21,10.21,0,0,1,.45-1.11,10.32,10.32,0,0,1,.65-1.11,11.93,11.93,0,0,1,1.46-1.77,4.57,4.57,0,0,1,.81-.64c.49-.26.24.35.56.43s.31-.05.49,0a3.66,3.66,0,0,0,.49,0A1.66,1.66,0,0,0,18.9,15a1.91,1.91,0,0,1,.75-.37c.21-.08.79-.16.61.29-.09.23-.7.32-.91.4a5.12,5.12,0,0,0-.88.48c-.27.17-.57.22-.85.38s.2.38-.11.64-.51.35-.54.74a.39.39,0,0,0,.17.39c.05.05.11.08.15.14s0,.18.06.22.84-.38,1-.45a2.33,2.33,0,0,0,.82-.66c.22-.27.31-.59.5-.86s.49-.29.84-.34a3.7,3.7,0,0,0,1-.15c.36-.16.55-.39,1-.34a1,1,0,0,1,.45.19c.16.11.39.05.47.22.18.38.71.13.88.1a1.26,1.26,0,0,1,1,.24c.24.17.33.47.54.69a5.65,5.65,0,0,0,.76.65,1.38,1.38,0,0,1,.53.76c.09.27,0,.28-.2.44a3.5,3.5,0,0,0-.53.58c-.24.33,0,.58.07.92s-.14.68-.5,1-.77.36-1.13.6c-.13.09-.39.24-.38.43s.24.3.37.32c.43.07.92-.32,1.38-.29a2.28,2.28,0,0,1,.53.11c.18.06.29.18.47.23s.73.2.73.6c0,.17-.11.36-.13.55a1.29,1.29,0,0,1,0,.51c-.15.28-.72.21-1,.17s-.6-.37-.94-.42a1,1,0,0,0-1,.47c-.22.44.51.65.79.76.45.19.52.56.39,1a.76.76,0,0,1-1,.56c-.22-.06-.85-.35-1-.16a2.19,2.19,0,0,0-.12.54,4.5,4.5,0,0,0,0,.53,1.15,1.15,0,0,0,0,.52,2.47,2.47,0,0,0,.33.42.47.47,0,0,1,.12.3c0,.12-.07.17-.09.28s.16.25.3.4c.35.36-.06.72-.41.86-.19.08-.32.12-.17.34a1.07,1.07,0,0,1,.27.52c0,.24,0,.34-.19.45a6.9,6.9,0,0,1-.8.27,3.13,3.13,0,0,1-1.05,0,.72.72,0,0,0-.55.17,2.54,2.54,0,0,0-.24.46c-.17.3-.59.59-.94.43s-.3-.69-.56-.89-.8,0-1,0c-.71,0-1.77-.49-1.39-1.38.2-.48.75-.51,1.15-.72s-.15-.57-.41-.66a8,8,0,0,1-1-.53,1.09,1.09,0,0,0-1,.06c-.17.06-.27.22-.42.26a.7.7,0,0,1-.49-.12c-.43-.25-.45-.57-.43-1C14.71,27.43,13.67,26.9,13.45,26.46Z" style="fill:#ccd0ca"/><path d="M13.23,27.62a.88.88,0,0,1-.09-.39c0-.13.07-.28.22-.28.33,0,.45.44.51.68a.67.67,0,0,1,0,.43.27.27,0,0,1-.29,0A1,1,0,0,1,13.23,27.62Z" style="fill:#c2c6bf"/><ellipse cx="23.71" cy="34.6" rx="0.54" ry="0.74" transform="translate(-14.79 51.24) rotate(-78.94)" style="fill:#c2c6bf"/><path d="M21.77,13.94a1.27,1.27,0,0,1,.83-.29,3.37,3.37,0,0,0,.62,0,1.47,1.47,0,0,1,.66,0c.2.06.3.26.5.33s.37,0,.57-.09a.84.84,0,0,1,.59.05,3.89,3.89,0,0,1,.39.36,4.71,4.71,0,0,0,.55.34.72.72,0,0,0,.57.13l.62,0a1.56,1.56,0,0,0,.61-.19,2.09,2.09,0,0,1,.66-.24,1.35,1.35,0,0,1,.6.09,2.85,2.85,0,0,0,.58.14,1.53,1.53,0,0,1,.53.29c.18.11.33.17.32.41s-.17.39-.09.57.31.29.33.53-.13.43.15.57a2,2,0,0,1,.42.2,1.66,1.66,0,0,1,.32.45c.15.24.52.24.52.57s-.21.33-.46.28a.63.63,0,0,1-.29-.1c-.09-.07-.14-.16-.26-.21a1.78,1.78,0,0,0-.78-.09,2,2,0,0,1-.72,0,.44.44,0,0,1-.31-.32,2.09,2.09,0,0,1,0-.31c0-.26-.35-.37-.24-.67s.21-.26,0-.34a1.18,1.18,0,0,0-.49,0c-.46,0-.91.2-1.38.2a3.46,3.46,0,0,1-.74,0c-.31-.07-.21-.37-.21-.6s-.27-.31-.49-.4-.49-.05-.6-.25,0-.21-.06-.3-.15-.12-.26-.14l-.68-.15a1.81,1.81,0,0,0-.71-.08,1.13,1.13,0,0,0-.57.31.64.64,0,0,1-.56.21c-.1,0-.18-.08-.28-.11a.38.38,0,0,0-.28,0,1.24,1.24,0,0,1-.62,0c-.19,0-.18-.08-.2-.25s-.1-.16-.16-.27S21.61,14.09,21.77,13.94Z" style="fill:#ccd0ca"/><path d="M40.28,27.8c0-.08,0-.16,0-.24a3.82,3.82,0,0,0-4-3.55,4.47,4.47,0,0,0-2,.45,5.22,5.22,0,0,0-4.16-2.11,5.49,5.49,0,0,0-5.34,4.93,5.26,5.26,0,0,0-4.2,4.91c0,2.83,2.63,5.12,5.87,5.12a6.47,6.47,0,0,0,3.15-.8A4.11,4.11,0,0,0,32.38,38l.52,0a4.55,4.55,0,0,0,.95-.1,4.23,4.23,0,0,0,1.68-.76,6.58,6.58,0,0,0,2.06.32c3.23,0,5.86-2.3,5.86-5.12A5.1,5.1,0,0,0,40.28,27.8Z" style="fill:#adbdb8"/><path d="M23.7,30.58c0-.06,0-.12,0-.17a2.75,2.75,0,0,0-2.9-2.55,3.22,3.22,0,0,0-1.41.32,3.75,3.75,0,0,0-3-1.52,4,4,0,0,0-3.84,3.55,3.78,3.78,0,0,0-3,3.53,4,4,0,0,0,4.22,3.68A4.65,4.65,0,0,0,16,36.85a3,3,0,0,0,2,1.06l.37,0a3.27,3.27,0,0,0,.68-.07,3,3,0,0,0,1.21-.55,4.73,4.73,0,0,0,1.48.23A4,4,0,0,0,26,33.86,3.67,3.67,0,0,0,23.7,30.58Z" style="fill:#ebefee"/><rect width="49" height="49" style="fill:none"/></svg>