<svg xmlns="http://www.w3.org/2000/svg" viewBox="0 0 49 49"><title>nt_rain</title><rect width="49" height="49" style="fill:none"/><path d="M38.18,15.73c0-.14,0-.27,0-.4,0-3.24-3-5.88-6.68-5.88a7.42,7.42,0,0,0-3.25.74,8.65,8.65,0,0,0-6.9-3.49,9.11,9.11,0,0,0-8.85,8.18c-4.12,1.06-7,4.36-7,8.14,0,4.68,4.36,8.49,9.72,8.49a10.73,10.73,0,0,0,5.22-1.33,6.81,6.81,0,0,0,4.59,2.44,7.85,7.85,0,0,0,.86,0,7.63,7.63,0,0,0,1.57-.16,7,7,0,0,0,2.79-1.26,10.94,10.94,0,0,0,3.41.54c5.36,0,9.72-3.81,9.72-8.49A8.46,8.46,0,0,0,38.18,15.73Z" style="fill:#adbdb8"/><path d="M33.89,37c0,1.07.44,1.55,1,1.55s1-.48,1-1.55-.77-2.55-1-3.62C34.68,34.41,33.89,35.89,33.89,37Z" style="fill:#adbdb8"/><path d="M27.61,41.06c0,1.07.44,1.55,1,1.55s1-.48,1-1.55-.77-2.55-1-3.62C28.39,38.51,27.61,40,27.61,41.06Z" style="fill:#adbdb8"/><path d="M22.19,38.34c0,1.07.44,1.55,1,1.55s1-.48,1-1.55-.77-2.55-1-3.62C23,35.79,22.19,37.27,22.19,38.34Z" style="fill:#adbdb8"/><path d="M17.54,42.51c0,1.07.44,1.55,1,1.55s1-.48,1-1.55-.77-2.55-1-3.62C18.32,40,17.54,41.44,17.54,42.51Z" style="fill:#adbdb8"/><path d="M12.78,37.53c0,1.07.44,1.55,1,1.55s1-.48,1-1.55-.77-2.55-1-3.62C13.57,35,12.78,36.46,12.78,37.53Z" style="fill:#adbdb8"/></svg>