<svg xmlns="http://www.w3.org/2000/svg" viewBox="0 0 46.95 55.33"><title>Asset 25</title><circle cx="21.13" cy="17.86" r="17.86" style="fill:#dee0dc"/><ellipse cx="24.89" cy="25.46" rx="1.42" ry="1.22" transform="translate(-2.22 2.38) rotate(-5.24)" style="fill:#f1f2f0"/><path d="M32.72,5.85c-.17.18-.51-.08-.9-.45s-.61-.66-.44-.84.53-.08.93.29S32.89,5.67,32.72,5.85Z" style="fill:#f1f2f0"/><path d="M5.41,20.95c-.14-.29-.39-.91-.53-1.24a11.84,11.84,0,0,1-.52-1.33A7.44,7.44,0,0,1,4,16.8c0-.57-.15-1.12-.15-1.68a10.45,10.45,0,0,1,1-3.7,14.12,14.12,0,0,1,.63-1.54,14.29,14.29,0,0,1,.91-1.54,16.52,16.52,0,0,1,2-2.45A6.33,6.33,0,0,1,9.57,5c.68-.36.34.49.78.6.23.06.42-.07.68-.06a5.07,5.07,0,0,0,.68.06,2.3,2.3,0,0,0,1.24-.54,2.65,2.65,0,0,1,1-.52c.29-.11,1.09-.22.84.41-.12.31-1,.45-1.27.56a7.09,7.09,0,0,0-1.21.66c-.38.23-.79.3-1.18.53-.57.34.27.52-.15.89s-.7.48-.75,1a.54.54,0,0,0,.23.54c.07.07.16.1.21.2s0,.25.09.3S12,9.14,12.18,9a3.22,3.22,0,0,0,1.13-.91c.3-.38.44-.81.7-1.2s.68-.4,1.16-.47a5.13,5.13,0,0,0,1.36-.21c.5-.22.76-.54,1.33-.47a1.31,1.31,0,0,1,.62.27c.22.15.54.08.65.3.25.53,1,.18,1.22.14a1.75,1.75,0,0,1,1.33.33c.33.23.46.66.75,1a7.84,7.84,0,0,0,1.06.9,1.91,1.91,0,0,1,.74,1.06c.13.37,0,.38-.27.61a4.84,4.84,0,0,0-.74.81c-.33.46,0,.8.1,1.27.17.64-.19.94-.69,1.34s-1.07.5-1.56.84c-.19.13-.54.34-.53.6s.33.41.51.44c.6.09,1.28-.45,1.92-.41a3.15,3.15,0,0,1,.74.15c.25.09.4.24.65.32.44.13,1,.27,1,.83,0,.24-.16.5-.18.76a1.79,1.79,0,0,1-.06.71c-.21.39-1,.3-1.38.24s-.83-.51-1.3-.58a1.4,1.4,0,0,0-1.32.66c-.31.61.71.9,1.1,1.06.63.27.72.77.54,1.41a1.06,1.06,0,0,1-1.43.78c-.3-.08-1.18-.48-1.41-.22a3,3,0,0,0-.17.75,6.25,6.25,0,0,0-.06.73,1.59,1.59,0,0,0,0,.72,3.43,3.43,0,0,0,.46.58.65.65,0,0,1,.17.42c0,.17-.1.24-.12.39,0,.31.23.35.42.55.48.5-.08,1-.57,1.19-.27.11-.45.16-.24.47a1.48,1.48,0,0,1,.38.72c0,.33,0,.48-.26.62a9.56,9.56,0,0,1-1.11.38,4.33,4.33,0,0,1-1.46,0,1,1,0,0,0-.76.24,3.52,3.52,0,0,0-.34.64c-.23.41-.81.82-1.29.59s-.42-1-.78-1.23-1.1-.06-1.44-.06c-1,0-2.45-.67-1.93-1.91.28-.66,1-.7,1.59-1s-.21-.79-.57-.91a11.05,11.05,0,0,1-1.43-.74A1.51,1.51,0,0,0,9,24.61c-.23.09-.37.3-.58.36a1,1,0,0,1-.68-.17c-.59-.35-.62-.78-.6-1.4C7.15,22.3,5.72,21.56,5.41,20.95Z" style="fill:#ccd0ca"/><path d="M5.1,22.55A1.22,1.22,0,0,1,5,22c0-.18.09-.38.31-.38.46,0,.63.61.7.94a.93.93,0,0,1,0,.59.38.38,0,0,1-.41.05A1.32,1.32,0,0,1,5.1,22.55Z" style="fill:#c2c6bf"/><ellipse cx="19.62" cy="32.22" rx="0.75" ry="1.03" transform="translate(-15.76 45.3) rotate(-78.95)" style="fill:#c2c6bf"/><path d="M16.92,3.61a1.76,1.76,0,0,1,1.15-.4,4.65,4.65,0,0,0,.86,0,2,2,0,0,1,.91-.05c.28.08.41.36.69.45s.51,0,.78-.12a1.17,1.17,0,0,1,.82.07,5.39,5.39,0,0,1,.55.5,6.52,6.52,0,0,0,.77.47,1,1,0,0,0,.78.18l.86-.07a2.16,2.16,0,0,0,.84-.26A2.89,2.89,0,0,1,26.85,4a1.87,1.87,0,0,1,.82.12,4,4,0,0,0,.81.19,2.12,2.12,0,0,1,.73.41c.24.16.46.23.44.57s-.24.54-.13.79.43.4.46.73-.18.6.21.79a2.78,2.78,0,0,1,.58.27,2.3,2.3,0,0,1,.44.62c.21.34.72.33.72.78s-.29.45-.63.38a.88.88,0,0,1-.41-.14c-.13-.1-.2-.22-.36-.29a2.46,2.46,0,0,0-1.09-.13,2.83,2.83,0,0,1-1,0A.61.61,0,0,1,28,8.72a2.9,2.9,0,0,1,.05-.43c0-.36-.49-.51-.33-.92.08-.21.3-.36,0-.48a1.63,1.63,0,0,0-.68,0c-.64.06-1.26.27-1.91.28a4.78,4.78,0,0,1-1,0c-.43-.1-.29-.51-.3-.83s-.38-.43-.68-.55-.68-.07-.83-.34,0-.29-.09-.42-.21-.17-.36-.2l-.95-.21a2.51,2.51,0,0,0-1-.1,1.57,1.57,0,0,0-.79.43.88.88,0,0,1-.77.29c-.14,0-.25-.11-.39-.15a.53.53,0,0,0-.39,0,1.72,1.72,0,0,1-.85.07c-.26,0-.25-.11-.28-.35s-.14-.22-.22-.37C16.07,4.16,16.71,3.81,16.92,3.61Z" style="fill:#ccd0ca"/><path d="M42.55,22.8c0-.12,0-.23,0-.34,0-2.71-2.5-4.91-5.58-4.91a6.19,6.19,0,0,0-2.72.62,7.23,7.23,0,0,0-5.77-2.92,7.61,7.61,0,0,0-7.39,6.83c-3.44.88-5.82,3.64-5.82,6.8,0,3.91,3.64,7.09,8.12,7.09a9,9,0,0,0,4.36-1.11,5.69,5.69,0,0,0,3.84,2,6.36,6.36,0,0,0,2-.1A5.85,5.85,0,0,0,36,35.75a9.11,9.11,0,0,0,2.85.45C43.31,36.2,47,33,47,29.1A7.07,7.07,0,0,0,42.55,22.8Z" style="fill:#adbdb8"/><path d="M19.6,26.66c0-.08,0-.16,0-.24a3.8,3.8,0,0,0-4-3.53,4.46,4.46,0,0,0-2,.44,5.2,5.2,0,0,0-4.15-2.1,5.47,5.47,0,0,0-5.31,4.91A5.24,5.24,0,0,0,0,31c0,2.81,2.62,5.1,5.84,5.1A6.44,6.44,0,0,0,9,35.33a4.09,4.09,0,0,0,2.76,1.46l.52,0a4.53,4.53,0,0,0,.94-.1A4.22,4.22,0,0,0,14.87,36a6.55,6.55,0,0,0,2,.32c3.22,0,5.84-2.29,5.84-5.1A5.08,5.08,0,0,0,19.6,26.66Z" style="fill:#e1e7e5"/><path d="M33.68,41.36c0,1.11.46,1.61,1,1.61s1-.5,1-1.61-.8-2.64-1-3.75C34.49,38.72,33.68,40.25,33.68,41.36Z" style="fill:#bfccc8"/><path d="M27.75,49.78c0,1.11.46,1.6,1,1.6s1-.5,1-1.6-.8-2.64-1-3.75C28.57,47.15,27.75,48.67,27.75,49.78Z" style="fill:#bfccc8"/><path d="M19,47.1c0,1.11.46,1.61,1,1.61s1-.5,1-1.61-.8-2.64-1-3.75C19.87,44.47,19,46,19,47.1Z" style="fill:#bfccc8"/><path d="M13.36,53.72c0,1.11.46,1.61,1,1.61s1-.5,1-1.61-.8-2.64-1-3.75C14.18,51.09,13.36,52.61,13.36,53.72Z" style="fill:#bfccc8"/><path d="M9.16,45.2c0,1.11.46,1.61,1,1.61s1-.5,1-1.61-.8-2.64-1-3.75C10,42.56,9.16,44.09,9.16,45.2Z" style="fill:#bfccc8"/></svg>