<svg xmlns="http://www.w3.org/2000/svg" viewBox="0 0 49 49"><title>nt_snow</title><path d="M37.22,13.19c0-.13,0-.26,0-.38,0-3.05-2.82-5.54-6.29-5.54a7,7,0,0,0-3.06.7,8.14,8.14,0,0,0-6.5-3.29,8.57,8.57,0,0,0-8.33,7.7c-3.88,1-6.56,4.11-6.56,7.66,0,4.41,4.11,8,9.15,8a10.1,10.1,0,0,0,4.92-1.25,6.41,6.41,0,0,0,4.32,2.29,7.37,7.37,0,0,0,.81,0A7.18,7.18,0,0,0,27.2,29a6.62,6.62,0,0,0,2.62-1.19,10.3,10.3,0,0,0,3.21.51c5,0,9.15-3.59,9.15-8A8,8,0,0,0,37.22,13.19Z" style="fill:#b9c7c3"/><path d="M24.13,35.82a.89.89,0,0,0-.29-.07.68.68,0,0,1-.24-.06c-.07,0,0-.22.06-.24a1.47,1.47,0,0,0,.14-.2s.1-.17,0-.25-.25,0-.25,0a1.72,1.72,0,0,0-.28.22l-.13.13a1.81,1.81,0,0,1-.28.22l-.29.12a1.86,1.86,0,0,1-.36,0h-.1a.86.86,0,0,1-.3-.06c-.07,0,.07-.26.15-.33l.53-.53a1.67,1.67,0,0,0,.22-.28s.1-.17,0-.25-.25,0-.25,0a1.71,1.71,0,0,0-.28.22l-.83.83a1.81,1.81,0,0,1-.28.22l-.29.12a1.86,1.86,0,0,1-.36,0h-.31a.25.25,0,0,1-.23-.17l-.33-.81a.25.25,0,0,1,0-.28l.22-.22a1.86,1.86,0,0,1,.28-.22l.29-.12a1.83,1.83,0,0,1,.36,0h1.17a1.7,1.7,0,0,0,.36,0s.19,0,.19-.17-.19-.16-.19-.16a1.69,1.69,0,0,0-.36,0h-.75a.86.86,0,0,1-.3-.06c-.07,0,.07-.26.14-.33l.07-.07a1.86,1.86,0,0,1,.28-.22l.29-.12a1.82,1.82,0,0,1,.36,0h.19a1.69,1.69,0,0,0,.36,0s.19,0,.19-.16-.19-.17-.19-.17l-.24,0a.62.62,0,0,1-.19-.06c-.07,0,.06-.24.1-.28a.89.89,0,0,0,.15-.25.29.29,0,0,0-.39-.39.89.89,0,0,0-.25.15.7.7,0,0,1-.21.13c-.07,0-.13-.18-.13-.22a1.43,1.43,0,0,0,0-.24s0-.19-.17-.19S21,31,21,31a1.65,1.65,0,0,0,0,.36v.19a1.83,1.83,0,0,1,0,.36l-.12.29a1.84,1.84,0,0,1-.22.28l-.07.07a.84.84,0,0,1-.26.17c-.07,0-.13-.23-.13-.33v-.75a1.69,1.69,0,0,0,0-.36s0-.19-.17-.19-.16.19-.16.19a1.7,1.7,0,0,0,0,.36v1.17a1.82,1.82,0,0,1,0,.36l-.12.29a1.82,1.82,0,0,1-.22.28l-.22.22a.25.25,0,0,1-.28,0L18,33.69a.25.25,0,0,1-.17-.23v-.31a1.86,1.86,0,0,1,0-.36l.12-.29a1.89,1.89,0,0,1,.22-.28l.83-.83a1.72,1.72,0,0,0,.22-.28s.1-.17,0-.25-.25,0-.25,0a1.73,1.73,0,0,0-.28.22l-.53.53a.85.85,0,0,1-.26.17c-.07,0-.13-.23-.13-.33v-.1a1.86,1.86,0,0,1,0-.36l.12-.29a1.86,1.86,0,0,1,.22-.28l.13-.13a1.71,1.71,0,0,0,.22-.28s.1-.17,0-.25-.25,0-.25,0l-.2.14A.58.58,0,0,1,18,30c-.07,0-.13-.21-.13-.27a.89.89,0,0,0-.07-.29.29.29,0,0,0-.55,0,.88.88,0,0,0-.07.29.68.68,0,0,1-.06.24c0,.07-.22,0-.24-.06l-.2-.14s-.17-.1-.25,0,0,.25,0,.25a1.76,1.76,0,0,0,.22.28l.13.13a1.83,1.83,0,0,1,.22.28l.12.29a1.85,1.85,0,0,1,0,.36v.1a.86.86,0,0,1-.06.3c0,.07-.25-.07-.33-.15l-.53-.53a1.71,1.71,0,0,0-.28-.22s-.17-.1-.25,0,0,.25,0,.25a1.71,1.71,0,0,0,.22.28l.83.83a1.83,1.83,0,0,1,.22.28l.12.29a1.86,1.86,0,0,1,0,.36v.31a.25.25,0,0,1-.17.23l-.81.33a.25.25,0,0,1-.28,0l-.22-.22a1.84,1.84,0,0,1-.22-.28l-.12-.29a1.82,1.82,0,0,1,0-.36V31.68a1.67,1.67,0,0,0,0-.36s0-.19-.17-.19-.16.19-.16.19a1.67,1.67,0,0,0,0,.36v.75a.87.87,0,0,1-.06.3c0,.07-.26-.08-.33-.15l-.07-.07a1.85,1.85,0,0,1-.22-.28l-.12-.29a1.83,1.83,0,0,1,0-.36V31.4A1.65,1.65,0,0,0,14,31s0-.19-.16-.19-.17.19-.17.19a1.38,1.38,0,0,0,0,.24.62.62,0,0,1-.06.19c0,.07-.24-.06-.28-.1a.88.88,0,0,0-.25-.15.29.29,0,0,0-.39.39.88.88,0,0,0,.15.25.7.7,0,0,1,.13.21c0,.07-.18.13-.22.13l-.24,0s-.19,0-.19.17.19.16.19.16a1.68,1.68,0,0,0,.36,0H13a1.82,1.82,0,0,1,.36,0l.29.12a1.84,1.84,0,0,1,.28.22l.07.07a.87.87,0,0,1,.17.26c0,.07-.23.13-.33.13h-.75a1.68,1.68,0,0,0-.36,0s-.19,0-.19.17.19.16.19.16a1.69,1.69,0,0,0,.36,0h1.17a1.82,1.82,0,0,1,.36,0l.29.12a1.86,1.86,0,0,1,.28.22l.22.22a.25.25,0,0,1,0,.28l-.33.81a.25.25,0,0,1-.23.17h-.31a1.86,1.86,0,0,1-.36,0l-.29-.12a1.8,1.8,0,0,1-.28-.22l-.83-.83a1.71,1.71,0,0,0-.28-.22s-.17-.1-.25,0,0,.25,0,.25a1.69,1.69,0,0,0,.22.28l.53.53a.87.87,0,0,1,.17.26c0,.07-.23.13-.33.13h-.1a1.86,1.86,0,0,1-.36,0l-.29-.12a1.83,1.83,0,0,1-.28-.22l-.13-.13a1.76,1.76,0,0,0-.28-.22s-.17-.1-.25,0,0,.25,0,.25a1.39,1.39,0,0,0,.14.2.59.59,0,0,1,.09.17c0,.07-.21.13-.27.13a.89.89,0,0,0-.29.07.29.29,0,0,0,0,.55.89.89,0,0,0,.29.07.68.68,0,0,1,.24.06c.07,0,0,.22-.06.24a1.44,1.44,0,0,0-.14.2s-.1.17,0,.25.25,0,.25,0a1.73,1.73,0,0,0,.28-.22l.13-.13a1.8,1.8,0,0,1,.28-.22l.29-.12a1.85,1.85,0,0,1,.36,0h.1a.86.86,0,0,1,.3.06c.07,0-.07.25-.14.33l-.53.53a1.71,1.71,0,0,0-.22.28s-.1.17,0,.25.25,0,.25,0a1.71,1.71,0,0,0,.28-.22l.83-.83a1.89,1.89,0,0,1,.28-.22l.29-.12a1.86,1.86,0,0,1,.36,0h.31a.25.25,0,0,1,.23.17l.33.81a.25.25,0,0,1,0,.28l-.22.22a1.83,1.83,0,0,1-.28.22l-.29.12a1.82,1.82,0,0,1-.36,0H13.09a1.7,1.7,0,0,0-.36,0s-.19,0-.19.17.19.16.19.16a1.7,1.7,0,0,0,.36,0h.75a.87.87,0,0,1,.3.06c.07,0-.07.26-.14.33l-.07.07a1.85,1.85,0,0,1-.28.22l-.29.12a1.82,1.82,0,0,1-.36,0h-.19a1.69,1.69,0,0,0-.36,0s-.19,0-.19.16.19.17.19.17l.24,0a.62.62,0,0,1,.19.06c.07,0-.06.24-.1.28a.89.89,0,0,0-.15.25A.29.29,0,0,0,13,41a.89.89,0,0,0,.25-.15.69.69,0,0,1,.21-.13c.07,0,.13.18.13.22a1.43,1.43,0,0,0,0,.24s0,.19.17.19.16-.19.16-.19a1.72,1.72,0,0,0,0-.36V40.6a1.85,1.85,0,0,1,0-.36l.12-.29a1.82,1.82,0,0,1,.22-.28l.07-.07a.85.85,0,0,1,.26-.17c.07,0,.13.23.13.33v.75a1.66,1.66,0,0,0,0,.36s0,.19.16.19.17-.19.17-.19a1.66,1.66,0,0,0,0-.36V39.34a1.86,1.86,0,0,1,0-.36l.12-.29a1.87,1.87,0,0,1,.22-.28l.22-.22a.25.25,0,0,1,.28,0l.81.33a.25.25,0,0,1,.17.23V39a1.86,1.86,0,0,1,0,.36l-.12.29a1.79,1.79,0,0,1-.22.28l-.83.83a1.71,1.71,0,0,0-.22.28s-.1.17,0,.25.25,0,.25,0a1.71,1.71,0,0,0,.28-.22l.53-.53a.88.88,0,0,1,.26-.17c.07,0,.13.23.13.33v.1a1.85,1.85,0,0,1,0,.36l-.12.29a1.83,1.83,0,0,1-.22.28l-.13.13a1.77,1.77,0,0,0-.22.28s-.1.17,0,.25.25,0,.25,0l.2-.14a.59.59,0,0,1,.17-.09c.07,0,.13.21.13.27a.88.88,0,0,0,.07.29.29.29,0,0,0,.55,0,.89.89,0,0,0,.07-.29.69.69,0,0,1,.06-.24c0-.07.22,0,.24.06l.2.14s.17.1.25,0,0-.25,0-.25a1.71,1.71,0,0,0-.22-.28l-.13-.13a1.86,1.86,0,0,1-.22-.28l-.12-.29a1.86,1.86,0,0,1,0-.36v-.1a.86.86,0,0,1,.06-.3c0-.07.26.07.33.15l.53.53a1.73,1.73,0,0,0,.28.22s.17.1.25,0,0-.25,0-.25a1.72,1.72,0,0,0-.22-.28L18.23,40a1.87,1.87,0,0,1-.22-.28l-.12-.29a1.86,1.86,0,0,1,0-.36v-.31a.25.25,0,0,1,.17-.23l.81-.33a.25.25,0,0,1,.28,0l.22.22a1.85,1.85,0,0,1,.22.28l.12.29a1.82,1.82,0,0,1,0,.36v1.17a1.69,1.69,0,0,0,0,.36s0,.19.16.19.17-.19.17-.19a1.68,1.68,0,0,0,0-.36v-.75a.87.87,0,0,1,.06-.3c0-.07.26.07.33.14l.07.07a1.82,1.82,0,0,1,.22.28l.12.29a1.83,1.83,0,0,1,0,.36v.19a1.66,1.66,0,0,0,0,.36s0,.19.16.19.17-.19.17-.19a1.35,1.35,0,0,0,0-.24.61.61,0,0,1,.06-.19c0-.07.24.06.28.1A.88.88,0,0,0,22,41a.29.29,0,0,0,.39-.39.9.9,0,0,0-.15-.25.68.68,0,0,1-.13-.21c0-.07.18-.13.22-.13l.24,0s.19,0,.19-.17-.19-.16-.19-.16a1.69,1.69,0,0,0-.36,0H22a1.83,1.83,0,0,1-.36,0l-.29-.12a1.87,1.87,0,0,1-.28-.22L21,39.12a.87.87,0,0,1-.17-.26c0-.07.23-.13.33-.13h.75a1.7,1.7,0,0,0,.36,0s.19,0,.19-.16-.19-.17-.19-.17a1.67,1.67,0,0,0-.36,0H20.75a1.85,1.85,0,0,1-.36,0l-.29-.12a1.81,1.81,0,0,1-.28-.22l-.22-.22a.25.25,0,0,1,0-.28l.33-.81a.25.25,0,0,1,.23-.17h.31a1.86,1.86,0,0,1,.36,0l.29.12a1.79,1.79,0,0,1,.28.22l.83.83a1.71,1.71,0,0,0,.28.22s.17.1.25,0,0-.25,0-.25a1.68,1.68,0,0,0-.22-.28L22,36.82a.86.86,0,0,1-.17-.26c0-.07.23-.13.33-.13h.1a1.85,1.85,0,0,1,.36,0l.29.12a1.83,1.83,0,0,1,.28.22l.13.13a1.69,1.69,0,0,0,.28.22s.17.1.25,0,0-.25,0-.25a1.47,1.47,0,0,0-.14-.2.57.57,0,0,1-.09-.17c0-.07.21-.13.27-.13a.89.89,0,0,0,.29-.07.29.29,0,0,0,0-.55Z" style="fill:#b9c7c3"/><path d="M36.86,34.09a.64.64,0,0,0-.21-.05.49.49,0,0,1-.18,0c-.05,0,0-.16,0-.18l.1-.15s.07-.12,0-.18-.18,0-.18,0a1.3,1.3,0,0,0-.21.16l-.1.1a1.33,1.33,0,0,1-.21.16l-.21.09-.26,0h-.07a.62.62,0,0,1-.22,0c-.05,0,.06-.19.11-.24l.39-.39a1.22,1.22,0,0,0,.16-.21s.07-.12,0-.18-.18,0-.18,0a1.25,1.25,0,0,0-.21.16l-.61.61a1.34,1.34,0,0,1-.21.16l-.21.09-.26,0h-.23a.19.19,0,0,1-.17-.13l-.25-.59a.18.18,0,0,1,0-.21l.16-.16a1.38,1.38,0,0,1,.21-.16l.21-.09.26,0h.86l.26,0s.14,0,.14-.12-.14-.12-.14-.12l-.26,0h-.55a.64.64,0,0,1-.22,0s.06-.19.11-.24l.05-.05a1.32,1.32,0,0,1,.21-.16l.21-.09.26,0h.14l.26,0s.14,0,.14-.12-.14-.12-.14-.12l-.18,0-.14,0s0-.17.08-.21a.67.67,0,0,0,.11-.19.21.21,0,0,0-.29-.29.65.65,0,0,0-.19.11.51.51,0,0,1-.16.1c-.05,0-.09-.13-.09-.16a1,1,0,0,0,0-.18s0-.14-.12-.14-.12.14-.12.14a1.22,1.22,0,0,0,0,.26V31a1.34,1.34,0,0,1,0,.26l-.09.21a1.32,1.32,0,0,1-.16.21l-.05.05a.62.62,0,0,1-.19.13c-.05,0-.09-.17-.09-.24V31a1.24,1.24,0,0,0,0-.26s0-.14-.12-.14-.12.14-.12.14a1.22,1.22,0,0,0,0,.26v.86a1.35,1.35,0,0,1,0,.26l-.09.21a1.32,1.32,0,0,1-.16.21l-.16.16a.18.18,0,0,1-.21,0l-.6-.25a.19.19,0,0,1-.13-.17v-.23a1.36,1.36,0,0,1,0-.26l.09-.21a1.37,1.37,0,0,1,.16-.21l.61-.61a1.26,1.26,0,0,0,.16-.21s.07-.12,0-.18-.18,0-.18,0a1.26,1.26,0,0,0-.21.16l-.39.39a.62.62,0,0,1-.19.13c-.05,0-.09-.17-.09-.25v-.07a1.36,1.36,0,0,1,0-.26l.09-.21a1.4,1.4,0,0,1,.16-.21l.1-.1a1.32,1.32,0,0,0,.16-.21s.07-.12,0-.18-.18,0-.18,0l-.15.1-.13.07c-.05,0-.09-.15-.09-.2a.65.65,0,0,0-.05-.21.21.21,0,0,0-.4,0,.65.65,0,0,0-.05.21.5.5,0,0,1,0,.18c0,.05-.16,0-.18,0l-.15-.1s-.12-.07-.18,0,0,.18,0,.18a1.35,1.35,0,0,0,.16.21l.1.1a1.38,1.38,0,0,1,.16.21l.09.21a1.34,1.34,0,0,1,0,.26v.07a.64.64,0,0,1,0,.22c0,.05-.19-.06-.24-.11l-.39-.39a1.26,1.26,0,0,0-.21-.16s-.12-.07-.18,0,0,.18,0,.18a1.27,1.27,0,0,0,.16.21l.61.61a1.32,1.32,0,0,1,.16.21l.09.21a1.36,1.36,0,0,1,0,.26v.23a.18.18,0,0,1-.13.17l-.59.25a.18.18,0,0,1-.21,0l-.16-.16a1.37,1.37,0,0,1-.16-.21l-.09-.21a1.34,1.34,0,0,1,0-.26V31a1.22,1.22,0,0,0,0-.26s0-.14-.12-.14-.12.14-.12.14A1.22,1.22,0,0,0,30,31v.55a.64.64,0,0,1,0,.22s-.19-.06-.24-.11l-.05-.05a1.32,1.32,0,0,1-.16-.21l-.09-.21a1.34,1.34,0,0,1,0-.26v-.14a1.22,1.22,0,0,0,0-.26s0-.14-.12-.14-.12.14-.12.14a1,1,0,0,0,0,.18.45.45,0,0,1,0,.14c0,.05-.17,0-.21-.08a.65.65,0,0,0-.19-.11.21.21,0,0,0-.29.29.65.65,0,0,0,.11.19.52.52,0,0,1,.1.16c0,.05-.13.09-.16.09l-.18,0s-.14,0-.14.12.14.12.14.12l.26,0h.14l.26,0,.21.09a1.3,1.3,0,0,1,.21.16l.05.05a.63.63,0,0,1,.13.19c0,.05-.17.09-.25.09h-.55l-.26,0s-.14,0-.14.12.14.12.14.12l.26,0h.86l.26,0,.21.09a1.36,1.36,0,0,1,.21.16l.16.16a.18.18,0,0,1,0,.21l-.25.59a.19.19,0,0,1-.17.13h-.23l-.26,0-.21-.09a1.31,1.31,0,0,1-.21-.16l-.61-.61a1.28,1.28,0,0,0-.21-.16s-.12-.07-.18,0,0,.18,0,.18a1.24,1.24,0,0,0,.16.21l.39.39a.65.65,0,0,1,.13.19c0,.05-.17.09-.24.09h-.07l-.26,0L28,33.92a1.37,1.37,0,0,1-.21-.16l-.1-.1a1.33,1.33,0,0,0-.21-.16s-.12-.07-.18,0,0,.18,0,.18l.1.15a.46.46,0,0,1,.07.13c0,.05-.15.09-.2.09a.64.64,0,0,0-.21.05.21.21,0,0,0,0,.4.64.64,0,0,0,.21.05.49.49,0,0,1,.18,0c.05,0,0,.16,0,.18l-.1.15s-.07.12,0,.18.18,0,.18,0a1.27,1.27,0,0,0,.21-.16l.1-.1a1.35,1.35,0,0,1,.21-.16l.21-.09.26,0h.07a.62.62,0,0,1,.22,0c.05,0-.05.19-.11.24l-.39.39a1.26,1.26,0,0,0-.16.21s-.07.12,0,.18.18,0,.18,0a1.3,1.3,0,0,0,.21-.16l.61-.61a1.34,1.34,0,0,1,.21-.16l.21-.09.26,0h.23a.19.19,0,0,1,.17.13l.25.59a.18.18,0,0,1,0,.21l-.16.16a1.32,1.32,0,0,1-.21.16l-.21.09-.26,0h-.86l-.26,0s-.14,0-.14.12.14.12.14.12l.26,0h.55a.64.64,0,0,1,.22,0c.05,0-.05.19-.11.24l-.05.05a1.3,1.3,0,0,1-.21.16l-.21.09-.26,0h-.14l-.26,0s-.14,0-.14.12.14.12.14.12l.18,0,.14,0s0,.17-.08.21a.67.67,0,0,0-.11.19.21.21,0,0,0,.29.29.66.66,0,0,0,.19-.11.51.51,0,0,1,.16-.1c.05,0,.09.13.09.16a1,1,0,0,0,0,.18s0,.14.12.14.12-.14.12-.14a1.32,1.32,0,0,0,0-.26v-.14a1.37,1.37,0,0,1,0-.26l.09-.21a1.35,1.35,0,0,1,.16-.21l.05-.05a.62.62,0,0,1,.19-.13c.05,0,.09.17.09.24v.55a1.22,1.22,0,0,0,0,.26s0,.14.12.14.12-.14.12-.14a1.22,1.22,0,0,0,0-.26v-.86a1.31,1.31,0,0,1,0-.26l.09-.21a1.42,1.42,0,0,1,.16-.21l.16-.16a.18.18,0,0,1,.21,0l.59.25a.18.18,0,0,1,.13.17v.23a1.36,1.36,0,0,1,0,.26l-.09.21a1.33,1.33,0,0,1-.16.21l-.61.61a1.27,1.27,0,0,0-.16.21s-.07.12,0,.18.18,0,.18,0a1.26,1.26,0,0,0,.21-.16l.39-.39a.65.65,0,0,1,.19-.13c.05,0,.09.17.09.25v.07a1.35,1.35,0,0,1,0,.26l-.09.21a1.38,1.38,0,0,1-.16.21l-.1.1a1.3,1.3,0,0,0-.16.21s-.07.12,0,.18.18,0,.18,0l.15-.1.13-.07c.05,0,.09.15.09.2a.65.65,0,0,0,.05.21.21.21,0,0,0,.4,0,.65.65,0,0,0,.05-.21.51.51,0,0,1,0-.18c0-.05.16,0,.18,0l.15.1s.12.07.18,0,0-.18,0-.18a1.28,1.28,0,0,0-.16-.21l-.1-.1a1.4,1.4,0,0,1-.16-.21L32.27,38a1.36,1.36,0,0,1,0-.26v-.07a.64.64,0,0,1,0-.22c0-.05.19.06.24.11l.39.39a1.27,1.27,0,0,0,.21.16s.12.07.18,0,0-.18,0-.18a1.26,1.26,0,0,0-.16-.21l-.61-.61a1.37,1.37,0,0,1-.16-.21l-.09-.21a1.36,1.36,0,0,1,0-.26v-.23a.19.19,0,0,1,.13-.17l.6-.25a.18.18,0,0,1,.21,0l.16.16a1.31,1.31,0,0,1,.16.21l.09.21a1.34,1.34,0,0,1,0,.26v.86a1.22,1.22,0,0,0,0,.26s0,.14.12.14.12-.14.12-.14a1.24,1.24,0,0,0,0-.26V37a.64.64,0,0,1,0-.22s.19.06.24.11l.05.05a1.27,1.27,0,0,1,.16.21l.09.21a1.34,1.34,0,0,1,0,.26v.14a1.23,1.23,0,0,0,0,.26s0,.14.12.14.12-.14.12-.14a1,1,0,0,0,0-.18.46.46,0,0,1,0-.14s.17,0,.21.07a.64.64,0,0,0,.19.11.21.21,0,0,0,.29-.29.67.67,0,0,0-.11-.19.51.51,0,0,1-.1-.16c0-.05.13-.09.16-.09l.18,0s.14,0,.14-.12-.14-.12-.14-.12l-.26,0H35.3l-.26,0-.21-.09a1.34,1.34,0,0,1-.21-.16l0-.05a.63.63,0,0,1-.13-.19c0-.05.17-.09.25-.09h.55l.26,0s.14,0,.14-.12S35.5,36,35.5,36l-.26,0h-.86l-.26,0-.21-.09a1.36,1.36,0,0,1-.21-.16l-.16-.16a.18.18,0,0,1,0-.21l.25-.59a.18.18,0,0,1,.17-.13h.23l.26,0,.21.09a1.32,1.32,0,0,1,.21.16l.61.61a1.27,1.27,0,0,0,.21.16s.12.07.18,0,0-.18,0-.18a1.24,1.24,0,0,0-.16-.21l-.39-.39a.65.65,0,0,1-.13-.19c0-.05.17-.09.24-.09h.07l.26,0,.21.09a1.37,1.37,0,0,1,.21.16l.1.1a1.25,1.25,0,0,0,.21.16s.12.07.18,0,0-.18,0-.18l-.1-.15a.44.44,0,0,1-.07-.13c0-.05.15-.09.2-.09a.64.64,0,0,0,.21-.05.21.21,0,0,0,0-.4Z" style="fill:#b9c7c3"/><rect width="49" height="49" style="fill:none"/></svg>