<svg xmlns="http://www.w3.org/2000/svg" viewBox="0 0 49 49"><title>nt_tstorms</title><path d="M12.68,34.49a.36.36,0,0,0-.35.22l-4,10.23c-.05.13.09.26.31.28A.49.49,0,0,0,9.17,45l3.68-10.26A.19.19,0,0,0,12.68,34.49Z" style="fill:#99b8bf"/><path d="M17,34.13a.29.29,0,0,0-.28.18l-3.15,8.15c0,.11.07.21.25.22a.39.39,0,0,0,.39-.17l2.93-8.17A.15.15,0,0,0,17,34.13Z" style="fill:#99b8bf"/><path d="M31.27,32.57a.37.37,0,0,0-.35.22l-4,10.28c-.05.14.09.26.31.28a.49.49,0,0,0,.49-.21l3.69-10.3A.19.19,0,0,0,31.27,32.57Z" style="fill:#99b8bf"/><polygon points="31.32 26.67 21.07 28.87 26.53 18.96 22.2 18.96 16.19 32.95 26.01 30.49 19.95 43.79 31.32 26.67" style="fill:#fecd81"/><path d="M37.34,14.79c0-.14,0-.27,0-.39,0-3.18-2.94-5.76-6.55-5.76a7.27,7.27,0,0,0-3.18.73,8.48,8.48,0,0,0-6.76-3.42,8.92,8.92,0,0,0-8.67,8c-4,1-6.82,4.27-6.82,8,0,4.59,4.27,8.32,9.53,8.32a5.71,5.71,0,0,0,1.05-.1L21.32,17.6h7.42l-5.09,9.32,10.57-2.21-3.37,5.35a6.3,6.3,0,0,0,2.11.43c5.25,0,9.53-3.73,9.53-8.32A8.29,8.29,0,0,0,37.34,14.79Z" style="fill:#adbdb8"/><path d="M35.21,32.36a.37.37,0,0,0-.35.22l-4,10.28c-.05.14.09.26.31.28a.49.49,0,0,0,.49-.21l3.69-10.3A.19.19,0,0,0,35.21,32.36Z" style="fill:#99b8bf"/><rect width="49" height="49" style="fill:none"/></svg>