<svg xmlns="http://www.w3.org/2000/svg" viewBox="0 0 38.59 44.18"><title>Asset 28</title><polygon points="26.98 21.56 16.32 23.85 22 13.55 17.5 13.55 11.25 28.09 21.45 25.53 15.15 39.36 26.98 21.56" style="fill:#fecd81"/><path d="M33.23,9.21c0-.14,0-.28,0-.41,0-3.3-3.05-6-6.81-6a7.56,7.56,0,0,0-3.31.76A8.81,8.81,0,0,0,16.1,0a9.27,9.27,0,0,0-9,8.33C2.9,9.4,0,12.77,0,16.61c0,4.77,4.44,8.65,9.9,8.65a5.94,5.94,0,0,0,1.1-.11l5.58-13H24.3L19,21.83l11-2.3-3.5,5.56a6.55,6.55,0,0,0,2.19.45c5.46,0,9.9-3.88,9.9-8.65A8.62,8.62,0,0,0,33.23,9.21Z" style="fill:#b9c7c3"/><path d="M7.3,29.91a.48.48,0,0,0-.46.29L1.58,43.81c-.07.18.11.34.41.37a.65.65,0,0,0,.65-.28L7.52,30.27A.25.25,0,0,0,7.3,29.91Z" style="fill:#b9c7c3"/><path d="M14.84,29.91a.48.48,0,0,0-.46.29L9.12,43.81c-.07.18.11.34.41.37a.65.65,0,0,0,.65-.28l4.89-13.63A.25.25,0,0,0,14.84,29.91Z" style="fill:#b9c7c3"/><path d="M27,29.91a.48.48,0,0,0-.46.29l-5.26,13.6c-.07.18.11.34.41.37a.65.65,0,0,0,.65-.28l4.89-13.63A.25.25,0,0,0,27,29.91Z" style="fill:#b9c7c3"/></svg>