<svg xmlns="http://www.w3.org/2000/svg" viewBox="0 0 38.72 44.18"><title>Asset 29</title><path d="M33.36,9.21c0-.14,0-.28,0-.41,0-3.3-3.05-6-6.81-6a7.56,7.56,0,0,0-3.31.76,8.81,8.81,0,0,0-7-3.56,9.27,9.27,0,0,0-9,8.33C3,9.4.12,12.77.12,16.61c0,4.77,4.44,8.65,9.9,8.65a10.93,10.93,0,0,0,5.32-1.35A6.94,6.94,0,0,0,20,26.39a8,8,0,0,0,.88,0,7.78,7.78,0,0,0,1.6-.17A7.16,7.16,0,0,0,25.34,25a11.15,11.15,0,0,0,3.47.55c5.46,0,9.9-3.88,9.9-8.65A8.62,8.62,0,0,0,33.36,9.21Z" style="fill:#b9c7c3"/><path d="M5.74,29.91a.48.48,0,0,0-.46.29L0,43.81c-.07.18.11.34.41.37a.65.65,0,0,0,.65-.28L6,30.27A.25.25,0,0,0,5.74,29.91Z" style="fill:#b9c7c3"/><path d="M16.31,29.91a.48.48,0,0,0-.46.29l-5.26,13.6c-.07.18.11.34.41.37a.65.65,0,0,0,.65-.28l4.89-13.63A.25.25,0,0,0,16.31,29.91Z" style="fill:#b9c7c3"/><path d="M28.47,29.91a.48.48,0,0,0-.46.29l-5.26,13.6c-.07.18.11.34.41.37a.65.65,0,0,0,.65-.28L28.7,30.27A.25.25,0,0,0,28.47,29.91Z" style="fill:#b9c7c3"/><circle cx="20.58" cy="32.36" r="1.9" style="fill:#b9c7c3"/><circle cx="7.17" cy="40.17" r="1.9" style="fill:#b9c7c3"/><circle cx="30.62" cy="38.72" r="1.9" style="fill:#b9c7c3"/></svg>