<svg xmlns="http://www.w3.org/2000/svg" viewBox="0 0 49 49"><title>partlycloudy</title><path d="M43,23.36c0-.11,0-.21,0-.32,0-2.54-2.34-4.6-5.23-4.6a5.79,5.79,0,0,0-2.54.58,6.77,6.77,0,0,0-5.4-2.73,7.12,7.12,0,0,0-6.92,6.39A6.82,6.82,0,0,0,17.46,29c0,3.66,3.41,6.64,7.6,6.64a8.39,8.39,0,0,0,4.08-1,5.32,5.32,0,0,0,3.59,1.9,6,6,0,0,0,1.9-.09,5.48,5.48,0,0,0,2.18-1,8.52,8.52,0,0,0,2.67.42c4.19,0,7.6-3,7.6-6.64A6.62,6.62,0,0,0,43,23.36Z" style="fill:#8ac0cf"/><circle cx="25.5" cy="23.65" r="12" transform="translate(-8.5 16.34) rotate(-30.7)" style="fill:#fecd81"/><path d="M15.88,14.31l.29-.29L12.35,10.2a.2.2,0,0,0-.29.29Z" style="fill:#fecd81"/><path d="M19.14,8.29a.2.2,0,0,0-.11.27l1.15,2.78.38-.15L19.41,8.4A.2.2,0,0,0,19.14,8.29Z" style="fill:#fecd81"/><path d="M25.5,4.64a.2.2,0,0,0-.2.2v5.4h.41V4.84A.2.2,0,0,0,25.5,4.64Z" style="fill:#fecd81"/><path d="M13,18.71l.16-.38-2.79-1.15a.2.2,0,0,0-.16.38Z" style="fill:#fecd81"/><path d="M38,18.71l2.79-1.15a.2.2,0,1,0-.16-.38l-2.78,1.15Z" style="fill:#fecd81"/><path d="M12.1,23.44H6.7a.2.2,0,1,0,0,.41h5.4C12.09,23.71,12.1,23.58,12.1,23.44Z" style="fill:#fecd81"/><path d="M38.94,10.49a.2.2,0,0,0-.29-.29L34.84,14l.29.29Z" style="fill:#fecd81"/><path d="M32,8.56a.2.2,0,0,0-.38-.16l-1.15,2.78.38.16Z" style="fill:#fecd81"/><path d="M44.31,23.44h-5.4c0,.14,0,.27,0,.41h5.4a.2.2,0,0,0,0-.41Z" style="fill:#fecd81"/><path d="M35.13,33l-.29.29,3.82,3.82a.2.2,0,1,0,.29-.29Z" style="fill:#fecd81"/><path d="M38,28.59l-.16.38,2.78,1.15.08,0a.2.2,0,0,0,.08-.39Z" style="fill:#fecd81"/><path d="M13,28.58l-2.79,1.15a.2.2,0,0,0,.08.39l.08,0L13.2,29Z" style="fill:#fecd81"/><path d="M30.44,36.11l1.15,2.78a.2.2,0,0,0,.19.13l.08,0a.2.2,0,0,0,.11-.27L30.82,36Z" style="fill:#fecd81"/><path d="M12.06,36.8a.2.2,0,1,0,.29.29l3.82-3.82L15.88,33Z" style="fill:#fecd81"/><path d="M19,38.74a.2.2,0,0,0,.11.27l.08,0a.2.2,0,0,0,.19-.13l1.15-2.79L20.18,36Z" style="fill:#fecd81"/><path d="M25.3,42.45a.2.2,0,1,0,.41,0v-5.4H25.3Z" style="fill:#fecd81"/><path d="M24.29,28.13c0-.09,0-.17,0-.25a3.87,3.87,0,0,0-4.08-3.59,4.53,4.53,0,0,0-2,.45A5.29,5.29,0,0,0,14,22.61a5.56,5.56,0,0,0-5.4,5,5.33,5.33,0,0,0-4.25,5c0,2.86,2.66,5.19,5.94,5.19A6.55,6.55,0,0,0,13.49,37a4.17,4.17,0,0,0,2.81,1.49l.53,0a4.62,4.62,0,0,0,1-.1,4.29,4.29,0,0,0,1.7-.77,6.66,6.66,0,0,0,2.08.33c3.28,0,5.94-2.33,5.94-5.19A5.17,5.17,0,0,0,24.29,28.13Z" style="fill:#b6d7e1"/><rect width="49" height="49" style="fill:none"/></svg>