<svg xmlns="http://www.w3.org/2000/svg" viewBox="0 0 49 49"><title>rain</title><path d="M38.5,13.73c0-.15,0-.28,0-.42,0-3.38-3.12-6.13-7-6.13A7.74,7.74,0,0,0,28.17,8,9,9,0,0,0,21,4.31a9.49,9.49,0,0,0-9.22,8.52c-4.29,1.1-7.26,4.55-7.26,8.48,0,4.88,4.55,8.85,10.13,8.85a11.19,11.19,0,0,0,5.44-1.39,7.1,7.1,0,0,0,4.79,2.54,8.18,8.18,0,0,0,.9,0,8,8,0,0,0,1.64-.17,7.33,7.33,0,0,0,2.9-1.31,11.41,11.41,0,0,0,3.55.56c5.59,0,10.14-4,10.14-8.85A8.82,8.82,0,0,0,38.5,13.73Z" style="fill:#8ac0cf"/><path d="M34.8,37.7c0,1.12.46,1.62,1,1.62s1-.5,1-1.62-.8-2.66-1-3.77C35.62,35,34.8,36.58,34.8,37.7Z" style="fill:#5da7bd"/><path d="M28.25,42c0,1.12.46,1.62,1,1.62s1-.5,1-1.62-.8-2.66-1-3.77C29.08,39.32,28.25,40.85,28.25,42Z" style="fill:#5da7bd"/><path d="M22.6,39.13c0,1.12.46,1.62,1,1.62s1-.5,1-1.62-.8-2.66-1-3.77C23.43,36.48,22.6,38,22.6,39.13Z" style="fill:#5da7bd"/><path d="M17.76,43.49c0,1.12.46,1.62,1,1.62s1-.5,1-1.62-.8-2.66-1-3.77C18.58,40.83,17.76,42.37,17.76,43.49Z" style="fill:#5da7bd"/><path d="M12.8,38.3c0,1.12.46,1.62,1,1.62s1-.5,1-1.62-.8-2.66-1-3.77C13.62,35.65,12.8,37.18,12.8,38.3Z" style="fill:#5da7bd"/><rect width="49" height="49" style="fill:none"/></svg>