<svg xmlns="http://www.w3.org/2000/svg" viewBox="0 0 50.16 47"><title>Asset 5</title><path d="M34.24,5.63a2.24,2.24,0,0,0,0-.25c0-2-2.28-3.66-5.07-3.66a6.67,6.67,0,0,0-2.47.46A7.13,7.13,0,0,0,21.48,0c-3.41,0-6.24,2.17-6.71,5.09-3.13.66-5.29,2.72-5.29,5.07,0,2.92,3.31,5.29,7.38,5.29a9.58,9.58,0,0,0,4-.83,5.58,5.58,0,0,0,3.49,1.52c.21,0,.43,0,.65,0a7,7,0,0,0,1.19-.1,6,6,0,0,0,2.12-.78,10,10,0,0,0,2.59.33c4.07,0,7.38-2.37,7.38-5.29C38.24,8.35,36.68,6.53,34.24,5.63Z" style="fill:#5da7bd"/><path d="M37.47,33c0,1.11.46,1.6,1,1.6s1-.5,1-1.6-.8-2.64-1-3.75C38.28,30.39,37.47,31.92,37.47,33Z" style="fill:#8ac0cf"/><path d="M31.54,41.45c0,1.11.46,1.61,1,1.61s1-.5,1-1.61-.8-2.64-1-3.75C32.36,38.82,31.54,40.34,31.54,41.45Z" style="fill:#8ac0cf"/><path d="M22.84,38.77c0,1.11.46,1.61,1,1.61s1-.5,1-1.61-.8-2.64-1-3.75C23.65,36.14,22.84,37.67,22.84,38.77Z" style="fill:#8ac0cf"/><path d="M17.15,45.39c0,1.11.46,1.61,1,1.61s1-.5,1-1.61-.8-2.64-1-3.75C18,42.76,17.15,44.29,17.15,45.39Z" style="fill:#8ac0cf"/><path d="M13,36.87c0,1.11.46,1.61,1,1.61s1-.5,1-1.61-.8-2.64-1-3.75C13.77,34.23,13,35.76,13,36.87Z" style="fill:#8ac0cf"/><path d="M45,13.57a3.05,3.05,0,0,0,0-.33c0-2.64-2.94-4.78-6.56-4.78a8.56,8.56,0,0,0-3.19.6,9.18,9.18,0,0,0-6.78-2.84c-4.41,0-8.08,2.83-8.69,6.64-4,.86-6.84,3.54-6.84,6.61,0,3.81,4.28,6.9,9.55,6.9a12.31,12.31,0,0,0,5.13-1.08,7.18,7.18,0,0,0,4.51,2q.42,0,.85,0a8.91,8.91,0,0,0,1.54-.13,7.64,7.64,0,0,0,2.74-1,12.77,12.77,0,0,0,3.35.44c5.26,0,9.55-3.09,9.55-6.9C50.16,17.12,48.14,14.75,45,13.57Z" style="fill:#8ac0cf"/><path d="M24.85,15.73a2.68,2.68,0,0,0,0-.28c0-2.22-2.28-4-5.09-4a6.19,6.19,0,0,0-2.48.51A6.86,6.86,0,0,0,12,9.54a6.69,6.69,0,0,0-6.74,5.6c-3.14.72-5.3,3-5.3,5.57,0,3.21,3.32,5.82,7.4,5.82a8.9,8.9,0,0,0,4-.91,5.38,5.38,0,0,0,3.5,1.67c.21,0,.43,0,.66,0a6.4,6.4,0,0,0,1.2-.11,5.66,5.66,0,0,0,2.12-.86,9.18,9.18,0,0,0,2.6.37c4.08,0,7.41-2.61,7.41-5.81C28.86,18.72,27.29,16.72,24.85,15.73Z" style="fill:#cae2e9"/></svg>