<svg xmlns="http://www.w3.org/2000/svg" viewBox="0 0 60.91 37.7"><title>Asset 21</title><path d="M8.76,24.45c0-.07,0-.15,0-.22a21.86,21.86,0,0,1,43.72,0c0,.07,0,.15,0,.22h1.78c0-.26,0-.53,0-.79A23.66,23.66,0,1,0,7,23.66c0,.27,0,.53,0,.79Z" style="fill:#b6d7e1"/><path d="M11,24.45a19.65,19.65,0,0,1,39.29,0h2.21c0-.07,0-.15,0-.22a21.86,21.86,0,0,0-43.72,0c0,.07,0,.15,0,.22Z" style="fill:#ecb5af"/><path d="M12.87,24.45a17.79,17.79,0,0,1,35.49,0h1.9a19.65,19.65,0,0,0-39.29,0Z" style="fill:#ffe7c3"/><path d="M14.72,24.45a16,16,0,0,1,31.79,0h1.85a17.79,17.79,0,0,0-35.49,0Z" style="fill:#d8e0de"/><path d="M55.74,23.95a3.05,3.05,0,0,0,0-.33c0-2.64-2.94-4.78-6.56-4.78a8.56,8.56,0,0,0-3.19.6,9.18,9.18,0,0,0-6.78-2.84c-4.41,0-8.08,2.83-8.69,6.64-4,.86-6.84,3.54-6.84,6.61,0,3.81,4.28,6.9,9.55,6.9a12.31,12.31,0,0,0,5.13-1.08,7.18,7.18,0,0,0,4.51,2q.42,0,.85,0a8.9,8.9,0,0,0,1.54-.13,7.64,7.64,0,0,0,2.74-1,12.77,12.77,0,0,0,3.35.44c5.26,0,9.55-3.09,9.55-6.9C60.91,27.5,58.9,25.12,55.74,23.95Z" style="fill:#8ac0cf"/><path d="M24.85,26.11a2.71,2.71,0,0,0,0-.28c0-2.22-2.28-4-5.09-4a6.18,6.18,0,0,0-2.48.51A6.86,6.86,0,0,0,12,19.92a6.69,6.69,0,0,0-6.74,5.6c-3.14.72-5.3,3-5.3,5.57,0,3.21,3.32,5.82,7.4,5.82a8.9,8.9,0,0,0,4-.91,5.38,5.38,0,0,0,3.5,1.67c.21,0,.43,0,.66,0a6.39,6.39,0,0,0,1.2-.11,5.66,5.66,0,0,0,2.12-.86,9.18,9.18,0,0,0,2.6.37c4.08,0,7.41-2.61,7.41-5.81C28.86,29.1,27.29,27.1,24.85,26.11Z" style="fill:#cae2e9"/></svg>