<svg xmlns="http://www.w3.org/2000/svg" viewBox="0 0 38.59 43.99"><title>Asset 7</title><path d="M33.23,9.21c0-.14,0-.28,0-.41,0-3.3-3.05-6-6.81-6a7.56,7.56,0,0,0-3.31.76A8.81,8.81,0,0,0,16.1,0a9.27,9.27,0,0,0-9,8.33C2.9,9.4,0,12.77,0,16.61c0,4.77,4.44,8.65,9.9,8.65a10.93,10.93,0,0,0,5.32-1.35,6.94,6.94,0,0,0,4.68,2.48,8,8,0,0,0,.88,0,7.77,7.77,0,0,0,1.6-.17A7.16,7.16,0,0,0,25.22,25a11.15,11.15,0,0,0,3.47.55c5.46,0,9.9-3.88,9.9-8.65A8.62,8.62,0,0,0,33.23,9.21Z" style="fill:#8ac0cf"/><path d="M30.9,27.82c-.19,1-.93,2.41-.93,3.42s.42,1.46.93,1.46.93-.45.93-1.46S31.1,28.84,30.9,27.82Z" style="fill:#8ac0cf"/><path d="M24.56,38.93c0,1,.42,1.46.93,1.46s.93-.45.93-1.46-.73-2.41-.93-3.42C25.31,36.53,24.56,37.92,24.56,38.93Z" style="fill:#8ac0cf"/><path d="M16.62,34.75c0,1,.42,1.46.93,1.46s.93-.45.93-1.46-.73-2.41-.93-3.42C17.36,32.35,16.62,33.74,16.62,34.75Z" style="fill:#8ac0cf"/><path d="M11.43,42.53c0,1,.42,1.46.93,1.46s.93-.45.93-1.46-.73-2.41-.93-3.42C12.18,40.12,11.43,41.52,11.43,42.53Z" style="fill:#8ac0cf"/><path d="M6.67,31.25c0,1,.42,1.46.93,1.46s.93-.45.93-1.46-.73-2.41-.93-3.42C7.41,28.84,6.67,30.23,6.67,31.25Z" style="fill:#8ac0cf"/></svg>