<svg xmlns="http://www.w3.org/2000/svg" viewBox="0 0 46.4 59.68"><title>Asset 3</title><path d="M34.69,45.71c0,1.11.46,1.61,1,1.61s1-.5,1-1.61-.8-2.64-1-3.75C35.5,43.08,34.69,44.6,34.69,45.71Z" style="fill:#8ac0cf"/><path d="M28.76,54.14c0,1.11.46,1.6,1,1.6s1-.5,1-1.6-.8-2.64-1-3.75C29.58,51.5,28.76,53,28.76,54.14Z" style="fill:#8ac0cf"/><path d="M20.06,51.46c0,1.11.46,1.61,1,1.61s1-.5,1-1.61-.8-2.64-1-3.75C20.87,48.82,20.06,50.35,20.06,51.46Z" style="fill:#8ac0cf"/><path d="M14.37,58.08c0,1.11.46,1.61,1,1.61s1-.5,1-1.61-.8-2.64-1-3.75C15.19,55.44,14.37,57,14.37,58.08Z" style="fill:#8ac0cf"/><path d="M10.17,49.55c0,1.11.46,1.61,1,1.61s1-.5,1-1.61-.8-2.64-1-3.75C11,46.92,10.17,48.45,10.17,49.55Z" style="fill:#8ac0cf"/><circle cx="23.2" cy="23.2" r="14.65" transform="translate(-8.59 15.1) rotate(-30.7)" style="fill:#fed391"/><path d="M11.45,11.81l.35-.35L7.15,6.8a.25.25,0,1,0-.35.35Z" style="fill:#fecd81"/><path d="M15.44,4.46a.25.25,0,0,0-.14.33l1.41,3.4L17.17,8l-1.41-3.4A.25.25,0,0,0,15.44,4.46Z" style="fill:#fecd81"/><path d="M23.2,0a.25.25,0,0,0-.25.25V6.84h.5V.25A.25.25,0,0,0,23.2,0Z" style="fill:#fecd81"/><path d="M8,17.17l.19-.46L4.78,15.3a.25.25,0,0,0-.19.46Z" style="fill:#fecd81"/><path d="M38.4,17.17l3.4-1.41a.25.25,0,0,0-.19-.46l-3.4,1.41C38.28,16.86,38.34,17,38.4,17.17Z" style="fill:#fecd81"/><path d="M6.84,22.95H.25a.25.25,0,0,0,0,.5H6.84C6.83,23.28,6.84,23.12,6.84,22.95Z" style="fill:#fecd81"/><path d="M39.6,7.15a.25.25,0,1,0-.35-.35l-4.66,4.66.35.35Z" style="fill:#fecd81"/><path d="M31.1,4.78a.25.25,0,0,0-.46-.19L29.23,8l.46.19Z" style="fill:#fecd81"/><path d="M46.15,22.95H39.56c0,.17,0,.33,0,.5h6.59a.25.25,0,0,0,0-.5Z" style="fill:#fecd81"/><path d="M34.94,34.59l-.35.35,4.66,4.66a.25.25,0,1,0,.35-.35Z" style="fill:#fecd81"/><path d="M38.41,29.23l-.19.46,3.4,1.41.1,0a.25.25,0,0,0,.1-.48Z" style="fill:#fecd81"/><path d="M8,29.23l-3.4,1.41a.25.25,0,0,0,.1.48l.1,0,3.4-1.41C8.11,29.54,8.05,29.38,8,29.23Z" style="fill:#fecd81"/><path d="M29.23,38.41l1.41,3.4a.25.25,0,0,0,.23.15l.1,0a.25.25,0,0,0,.14-.33l-1.41-3.39Z" style="fill:#fecd81"/><path d="M6.79,39.25a.25.25,0,1,0,.35.35l4.66-4.66-.35-.35Z" style="fill:#fecd81"/><path d="M15.3,41.62a.25.25,0,0,0,.14.33l.1,0a.25.25,0,0,0,.23-.15l1.41-3.4-.46-.19Z" style="fill:#fecd81"/><path d="M22.95,46.15a.25.25,0,1,0,.5,0V39.56h-.5Z" style="fill:#fecd81"/><path d="M40.51,28.13c0-.12,0-.23,0-.34,0-2.71-2.5-4.92-5.58-4.92a6.19,6.19,0,0,0-2.72.62,7.23,7.23,0,0,0-5.77-2.92,7.61,7.61,0,0,0-7.39,6.83c-3.44.88-5.82,3.64-5.82,6.8,0,3.91,3.64,7.09,8.12,7.09a9,9,0,0,0,4.36-1.11,5.69,5.69,0,0,0,3.84,2,6.36,6.36,0,0,0,2-.1,5.85,5.85,0,0,0,2.33-1.05,9.11,9.11,0,0,0,2.85.45c4.48,0,8.12-3.18,8.12-7.09A7.07,7.07,0,0,0,40.51,28.13Z" style="fill:#8ac0cf"/><path d="M24,32.1c0-.08,0-.16,0-.24a3.8,3.8,0,0,0-4-3.53,4.46,4.46,0,0,0-2,.44,5.2,5.2,0,0,0-4.15-2.1,5.47,5.47,0,0,0-5.31,4.91,5.24,5.24,0,0,0-4.18,4.89c0,2.81,2.62,5.1,5.84,5.1a6.44,6.44,0,0,0,3.14-.8,4.09,4.09,0,0,0,2.76,1.46l.52,0a4.53,4.53,0,0,0,.94-.1,4.22,4.22,0,0,0,1.67-.76,6.55,6.55,0,0,0,2,.32c3.22,0,5.84-2.29,5.84-5.1A5.08,5.08,0,0,0,24,32.1Z" style="fill:#cae2e9"/></svg>