<svg xmlns="http://www.w3.org/2000/svg" viewBox="0 0 38.59 43.63"><title>Asset 16</title><path d="M33.23,9.21c0-.14,0-.28,0-.41,0-3.3-3.05-6-6.81-6a7.56,7.56,0,0,0-3.31.76A8.81,8.81,0,0,0,16.1,0a9.27,9.27,0,0,0-9,8.33C2.9,9.4,0,12.77,0,16.61c0,4.77,4.44,8.65,9.9,8.65a10.93,10.93,0,0,0,5.32-1.35,6.94,6.94,0,0,0,4.68,2.48,8,8,0,0,0,.88,0,7.77,7.77,0,0,0,1.6-.17A7.16,7.16,0,0,0,25.22,25a11.15,11.15,0,0,0,3.47.55c5.46,0,9.9-3.88,9.9-8.65A8.62,8.62,0,0,0,33.23,9.21Z" style="fill:#b6d7e1"/><circle cx="4.97" cy="28.97" r="1.91" style="fill:#b6d7e1"/><circle cx="25.8" cy="32.89" r="1.95" style="fill:#b6d7e1"/><circle cx="32.6" cy="37.36" r="1.87" style="fill:#b6d7e1"/><circle cx="13.04" cy="32.89" r="1.64" style="fill:#b6d7e1"/><circle cx="25.8" cy="41.99" r="1.42" style="fill:#b6d7e1"/><circle cx="19.22" cy="37.8" r="1.7" style="fill:#b6d7e1"/><circle cx="6.5" cy="37.36" r="1.42" style="fill:#b6d7e1"/><circle cx="34.46" cy="29.76" r="1.07" style="fill:#b6d7e1"/><circle cx="20.23" cy="31.67" r="1.07" style="fill:#b6d7e1"/><circle cx="11.83" cy="42.15" r="1.48" style="fill:#b6d7e1"/></svg>