<svg xmlns="http://www.w3.org/2000/svg" viewBox="0 0 49 49"><title>snow</title><path d="M37.65,14c0-.13,0-.26,0-.39,0-3.13-2.89-5.68-6.45-5.68a7.16,7.16,0,0,0-3.14.72,8.35,8.35,0,0,0-6.66-3.37,8.79,8.79,0,0,0-8.54,7.89c-4,1-6.72,4.21-6.72,7.85,0,4.52,4.21,8.2,9.38,8.2a10.36,10.36,0,0,0,5-1.28A6.57,6.57,0,0,0,25,30.26a7.55,7.55,0,0,0,.83,0,7.37,7.37,0,0,0,1.52-.16,6.79,6.79,0,0,0,2.69-1.22,10.57,10.57,0,0,0,3.29.52c5.18,0,9.38-3.68,9.38-8.2A8.17,8.17,0,0,0,37.65,14Z" style="fill:#b6d7e1"/><path d="M24.23,37.18a.92.92,0,0,0-.29-.07.7.7,0,0,1-.25-.06c-.07,0,0-.22.06-.25a1.51,1.51,0,0,0,.14-.21s.1-.17,0-.25-.26,0-.26,0a1.76,1.76,0,0,0-.29.22l-.14.14a1.86,1.86,0,0,1-.29.23l-.29.12a1.91,1.91,0,0,1-.37,0h-.1a.88.88,0,0,1-.31-.06c-.07,0,.08-.26.15-.33l.54-.54a1.71,1.71,0,0,0,.22-.29s.1-.17,0-.26-.26,0-.26,0a1.75,1.75,0,0,0-.29.22l-.85.85a1.86,1.86,0,0,1-.29.23l-.29.12a1.91,1.91,0,0,1-.37,0h-.32a.26.26,0,0,1-.23-.18l-.34-.83a.26.26,0,0,1,0-.29l.22-.22a1.9,1.9,0,0,1,.29-.23l.29-.12a1.87,1.87,0,0,1,.37,0H22a1.74,1.74,0,0,0,.36,0s.19-.05.19-.17-.19-.17-.19-.17a1.74,1.74,0,0,0-.36,0H21.2a.88.88,0,0,1-.31-.06c-.07,0,.08-.26.15-.33l.07-.07a1.91,1.91,0,0,1,.29-.23l.29-.12a1.87,1.87,0,0,1,.37,0h.19a1.74,1.74,0,0,0,.37,0s.19,0,.19-.17-.19-.17-.19-.17l-.25,0a.64.64,0,0,1-.19-.06c-.07,0,.06-.24.1-.29a.91.91,0,0,0,.16-.26.3.3,0,0,0-.4-.4.91.91,0,0,0-.26.16.71.71,0,0,1-.22.13c-.07,0-.13-.19-.13-.22a1.46,1.46,0,0,0,0-.24s0-.19-.17-.19-.17.19-.17.19a1.7,1.7,0,0,0,0,.36v.19a1.87,1.87,0,0,1,0,.37l-.12.29a1.9,1.9,0,0,1-.23.29l-.07.07a.87.87,0,0,1-.26.18c-.07,0-.13-.24-.13-.34v-.77a1.73,1.73,0,0,0,0-.36s0-.19-.17-.19-.17.19-.17.19a1.74,1.74,0,0,0,0,.37v1.2a1.88,1.88,0,0,1,0,.37l-.12.29a1.86,1.86,0,0,1-.23.29l-.22.22a.25.25,0,0,1-.29,0L18,35a.26.26,0,0,1-.18-.23v-.32a1.91,1.91,0,0,1,0-.37l.12-.29a1.94,1.94,0,0,1,.23-.29l.85-.85a1.76,1.76,0,0,0,.22-.29s.1-.17,0-.25-.25,0-.25,0a1.78,1.78,0,0,0-.29.22l-.54.54a.87.87,0,0,1-.26.18c-.07,0-.13-.24-.13-.34v-.1a1.9,1.9,0,0,1,0-.37L18,32a1.93,1.93,0,0,1,.23-.29l.14-.14a1.76,1.76,0,0,0,.22-.29s.1-.17,0-.25-.25,0-.25,0l-.21.14a.6.6,0,0,1-.18.09c-.07,0-.13-.21-.13-.28a.91.91,0,0,0-.07-.29.3.3,0,0,0-.56,0,.9.9,0,0,0-.07.29.7.7,0,0,1-.06.25c0,.07-.22,0-.25-.06L16.57,31s-.17-.1-.26,0,0,.25,0,.25a1.81,1.81,0,0,0,.22.29l.14.14a1.9,1.9,0,0,1,.23.29l.12.29a1.9,1.9,0,0,1,0,.37v.1A.88.88,0,0,1,17,33c0,.07-.26-.08-.33-.15l-.54-.54a1.76,1.76,0,0,0-.29-.22s-.17-.1-.26,0,0,.25,0,.25a1.76,1.76,0,0,0,.22.29l.85.85a1.89,1.89,0,0,1,.23.29l.12.29a1.9,1.9,0,0,1,0,.37v.32a.26.26,0,0,1-.18.23l-.83.34a.26.26,0,0,1-.29,0l-.22-.22a1.9,1.9,0,0,1-.23-.29l-.12-.29a1.86,1.86,0,0,1,0-.37v-1.2a1.7,1.7,0,0,0,0-.36s0-.19-.17-.19-.17.19-.17.19a1.71,1.71,0,0,0,0,.36v.77a.89.89,0,0,1-.06.31c0,.07-.26-.08-.33-.15l-.07-.07A1.89,1.89,0,0,1,14,33.5l-.12-.29a1.87,1.87,0,0,1,0-.37v-.19a1.7,1.7,0,0,0,0-.36s-.05-.19-.17-.19-.17.19-.17.19a1.42,1.42,0,0,0,0,.25.63.63,0,0,1-.06.19c0,.07-.24-.06-.29-.11a.9.9,0,0,0-.26-.15.3.3,0,0,0-.4.4.9.9,0,0,0,.16.26.71.71,0,0,1,.13.22c0,.07-.19.13-.22.13l-.24,0s-.19,0-.19.17.19.17.19.17a1.72,1.72,0,0,0,.36,0h.19a1.86,1.86,0,0,1,.37,0l.29.12a1.89,1.89,0,0,1,.29.23l.07.07a.9.9,0,0,1,.18.26c0,.07-.24.13-.34.13h-.77a1.73,1.73,0,0,0-.36,0s-.19.05-.19.17.19.17.19.17a1.73,1.73,0,0,0,.36,0h1.2a1.87,1.87,0,0,1,.37,0l.29.12a1.9,1.9,0,0,1,.29.23l.22.22a.26.26,0,0,1,0,.29l-.34.83a.26.26,0,0,1-.23.18h-.32a1.91,1.91,0,0,1-.37,0l-.29-.12a1.85,1.85,0,0,1-.29-.23l-.85-.85a1.75,1.75,0,0,0-.29-.22s-.17-.1-.25,0,0,.26,0,.26a1.73,1.73,0,0,0,.22.29l.54.54A.89.89,0,0,1,13,37c0,.07-.24.13-.34.13h-.1a1.91,1.91,0,0,1-.37,0l-.29-.12a1.88,1.88,0,0,1-.29-.23l-.14-.14a1.8,1.8,0,0,0-.29-.22s-.17-.1-.26,0,0,.25,0,.25a1.43,1.43,0,0,0,.14.21.61.61,0,0,1,.09.18c0,.07-.21.13-.28.13a.91.91,0,0,0-.29.07.3.3,0,0,0,0,.56.91.91,0,0,0,.29.07.7.7,0,0,1,.25.06c.07,0,0,.22-.06.25a1.48,1.48,0,0,0-.14.21s-.1.17,0,.25.26,0,.26,0a1.77,1.77,0,0,0,.29-.22l.14-.14a1.86,1.86,0,0,1,.29-.23l.29-.12a1.9,1.9,0,0,1,.37,0h.1a.88.88,0,0,1,.31.06c.07,0-.08.26-.15.33l-.54.54a1.75,1.75,0,0,0-.22.29s-.1.17,0,.25.25,0,.25,0a1.76,1.76,0,0,0,.29-.22l.85-.85a2,2,0,0,1,.29-.23l.29-.12a1.91,1.91,0,0,1,.37,0h.32A.26.26,0,0,1,15,38l.34.83a.26.26,0,0,1,0,.29l-.22.22a1.89,1.89,0,0,1-.29.23l-.29.12a1.87,1.87,0,0,1-.37,0h-1.2a1.74,1.74,0,0,0-.36,0s-.19.05-.19.17.19.17.19.17a1.73,1.73,0,0,0,.36,0h.77a.89.89,0,0,1,.31.06c.07,0-.08.26-.15.33l-.07.07a1.88,1.88,0,0,1-.29.23l-.29.12a1.87,1.87,0,0,1-.37,0h-.19a1.74,1.74,0,0,0-.37,0s-.19.05-.19.17.19.17.19.17l.25,0a.63.63,0,0,1,.19.06c.07,0-.06.24-.1.29a.91.91,0,0,0-.16.26.3.3,0,0,0,.4.4.91.91,0,0,0,.26-.16.71.71,0,0,1,.22-.13c.07,0,.13.19.13.22a1.46,1.46,0,0,0,0,.25s.05.19.17.19.17-.19.17-.19a1.77,1.77,0,0,0,0-.37v-.19a1.9,1.9,0,0,1,0-.37l.12-.29a1.86,1.86,0,0,1,.23-.29l.07-.07a.87.87,0,0,1,.26-.18c.07,0,.13.24.13.34V42a1.7,1.7,0,0,0,0,.36s0,.19.17.19.17-.19.17-.19a1.7,1.7,0,0,0,0-.36v-1.2a1.9,1.9,0,0,1,0-.37l.12-.29a1.91,1.91,0,0,1,.23-.29l.22-.22a.25.25,0,0,1,.29,0l.83.34a.26.26,0,0,1,.18.23v.32a1.91,1.91,0,0,1,0,.37l-.12.29a1.85,1.85,0,0,1-.23.29l-.85.85a1.77,1.77,0,0,0-.22.29s-.1.17,0,.25.26,0,.26,0a1.77,1.77,0,0,0,.29-.22l.54-.54a.9.9,0,0,1,.26-.18c.07,0,.13.24.13.34v.1a1.89,1.89,0,0,1,0,.36l-.12.3a1.9,1.9,0,0,1-.23.29l-.14.14a1.8,1.8,0,0,0-.22.29s-.1.17,0,.25.26,0,.26,0l.21-.14a.6.6,0,0,1,.18-.09c.07,0,.13.21.13.28a.9.9,0,0,0,.07.29.3.3,0,0,0,.56,0,.91.91,0,0,0,.07-.29.71.71,0,0,1,.06-.25c0-.07.22,0,.25.06l.21.14s.17.1.25,0,0-.25,0-.25a1.75,1.75,0,0,0-.22-.29l-.14-.14A1.93,1.93,0,0,1,18,43l-.12-.29a1.91,1.91,0,0,1,0-.37v-.1a.88.88,0,0,1,.06-.31c0-.07.26.08.33.15l.54.54a1.79,1.79,0,0,0,.29.22s.17.1.25,0,0-.25,0-.25a1.77,1.77,0,0,0-.22-.29l-.85-.85a1.93,1.93,0,0,1-.23-.29l-.12-.29a1.91,1.91,0,0,1,0-.37v-.32a.26.26,0,0,1,.18-.23l.83-.34a.25.25,0,0,1,.29,0l.22.22a1.88,1.88,0,0,1,.23.29l.12.29a1.88,1.88,0,0,1,0,.37V42a1.73,1.73,0,0,0,0,.36s0,.19.17.19.17-.19.17-.19a1.73,1.73,0,0,0,0-.36v-.77a.89.89,0,0,1,.06-.31c0-.07.26.08.33.15l.07.07a1.87,1.87,0,0,1,.23.29l.12.29a1.86,1.86,0,0,1,0,.37v.19a1.71,1.71,0,0,0,0,.37s0,.19.17.19.17-.19.17-.19a1.38,1.38,0,0,0,0-.25.63.63,0,0,1,.06-.19c0-.07.24.06.29.1a.9.9,0,0,0,.26.16.3.3,0,0,0,.4-.4.92.92,0,0,0-.16-.26.69.69,0,0,1-.13-.22c0-.07.19-.13.22-.13l.25,0s.19-.05.19-.17-.19-.17-.19-.17a1.74,1.74,0,0,0-.37,0h-.19a1.87,1.87,0,0,1-.37,0l-.29-.12a1.91,1.91,0,0,1-.29-.23L21,40.56a.89.89,0,0,1-.18-.26c0-.07.24-.13.34-.13H22a1.73,1.73,0,0,0,.36,0s.19,0,.19-.17-.19-.17-.19-.17a1.71,1.71,0,0,0-.36,0h-1.2a1.9,1.9,0,0,1-.37,0l-.29-.12a1.86,1.86,0,0,1-.29-.23l-.22-.22a.26.26,0,0,1,0-.29L19.9,38a.26.26,0,0,1,.23-.18h.32a1.9,1.9,0,0,1,.37,0l.29.12a1.84,1.84,0,0,1,.29.23l.85.85a1.75,1.75,0,0,0,.29.22s.17.1.26,0,0-.25,0-.25a1.73,1.73,0,0,0-.22-.29L22,38.21a.88.88,0,0,1-.18-.26c0-.07.24-.13.34-.13h.1a1.9,1.9,0,0,1,.37,0l.29.12a1.89,1.89,0,0,1,.29.23l.14.14a1.73,1.73,0,0,0,.29.22s.17.1.26,0,0-.25,0-.25a1.51,1.51,0,0,0-.14-.21.59.59,0,0,1-.09-.18c0-.07.21-.13.28-.13a.91.91,0,0,0,.29-.07.3.3,0,0,0,0-.56Z" style="fill:#b6d7e1"/><path d="M37.28,35.4a.65.65,0,0,0-.22-.05.5.5,0,0,1-.18,0c-.05,0,0-.16,0-.18L37,35s.07-.13,0-.19-.19,0-.19,0a1.33,1.33,0,0,0-.21.17l-.1.1a1.36,1.36,0,0,1-.21.17l-.22.09-.27,0h-.07a.64.64,0,0,1-.23,0c-.05,0,.06-.19.11-.25l.4-.4a1.26,1.26,0,0,0,.17-.21s.07-.13,0-.19-.19,0-.19,0a1.27,1.27,0,0,0-.21.17l-.62.62a1.38,1.38,0,0,1-.21.17l-.22.09-.27,0h-.23a.19.19,0,0,1-.17-.13l-.25-.61a.19.19,0,0,1,0-.21l.17-.17a1.43,1.43,0,0,1,.21-.17l.22-.09.27,0h.88l.27,0s.14,0,.14-.12-.14-.12-.14-.12l-.27,0H35a.66.66,0,0,1-.23,0c-.05,0,.06-.19.11-.25l.05-.05a1.35,1.35,0,0,1,.21-.17l.22-.09.27,0h.14l.27,0s.14,0,.14-.12-.14-.12-.14-.12l-.18,0-.14,0c-.05,0,0-.18.08-.21a.68.68,0,0,0,.11-.19.22.22,0,0,0-.29-.29.67.67,0,0,0-.19.11.52.52,0,0,1-.16.1c-.05,0-.1-.14-.1-.16a1.07,1.07,0,0,0,0-.18s0-.14-.12-.14-.12.14-.12.14a1.25,1.25,0,0,0,0,.27v.14a1.38,1.38,0,0,1,0,.27l-.09.22a1.35,1.35,0,0,1-.17.21l-.05.05a.64.64,0,0,1-.19.13c-.05,0-.1-.18-.1-.25v-.56a1.28,1.28,0,0,0,0-.27s0-.14-.12-.14S34,32,34,32a1.26,1.26,0,0,0,0,.27v.88a1.39,1.39,0,0,1,0,.27l-.09.22a1.36,1.36,0,0,1-.17.21L33.5,34a.19.19,0,0,1-.21,0l-.61-.25a.19.19,0,0,1-.13-.17V33.4a1.39,1.39,0,0,1,0-.27l.09-.22a1.41,1.41,0,0,1,.17-.21l.62-.62a1.29,1.29,0,0,0,.17-.21s.07-.13,0-.19-.19,0-.19,0a1.3,1.3,0,0,0-.21.17l-.4.4a.63.63,0,0,1-.19.13c-.05,0-.1-.18-.1-.25v-.07a1.39,1.39,0,0,1,0-.27l.09-.22a1.43,1.43,0,0,1,.17-.21l.1-.1A1.34,1.34,0,0,0,33.1,31s.07-.13,0-.19-.19,0-.19,0l-.15.1-.13.07c-.05,0-.1-.16-.1-.2a.66.66,0,0,0-.05-.22.22.22,0,0,0-.41,0,.67.67,0,0,0-.05.22A.51.51,0,0,1,32,31c0,.05-.16,0-.18,0l-.15-.1s-.13-.07-.19,0,0,.19,0,.19a1.37,1.37,0,0,0,.17.21l.1.1a1.41,1.41,0,0,1,.17.21l.09.22a1.37,1.37,0,0,1,0,.27v.07a.65.65,0,0,1,0,.23c0,.05-.19-.06-.25-.11l-.4-.4a1.3,1.3,0,0,0-.21-.17s-.13-.07-.19,0,0,.19,0,.19a1.31,1.31,0,0,0,.17.21l.62.62a1.36,1.36,0,0,1,.17.21l.09.22a1.39,1.39,0,0,1,0,.27v.23a.19.19,0,0,1-.13.17l-.61.25a.19.19,0,0,1-.21,0l-.17-.17a1.41,1.41,0,0,1-.17-.21l-.09-.22a1.39,1.39,0,0,1,0-.27v-.88a1.26,1.26,0,0,0,0-.27s0-.14-.12-.14-.12.14-.12.14a1.26,1.26,0,0,0,0,.27v.56a.65.65,0,0,1,0,.23c0,.05-.19-.06-.25-.11L30,32.91a1.35,1.35,0,0,1-.17-.21l-.09-.22a1.39,1.39,0,0,1,0-.27v-.14a1.25,1.25,0,0,0,0-.27s0-.14-.12-.14-.12.14-.12.14a1,1,0,0,0,0,.18.46.46,0,0,1,0,.14c0,.05-.18,0-.21-.08a.66.66,0,0,0-.19-.11.22.22,0,0,0-.29.29.67.67,0,0,0,.11.19.53.53,0,0,1,.1.16c0,.05-.14.1-.16.1l-.18,0s-.14,0-.14.12.14.12.14.12l.27,0h.14l.27,0,.22.09a1.34,1.34,0,0,1,.21.17l.05.05a.65.65,0,0,1,.13.19c0,.05-.18.1-.25.1h-.56l-.27,0s-.14,0-.14.12.14.12.14.12l.27,0h.88l.27,0,.22.09a1.4,1.4,0,0,1,.21.17l.17.16a.19.19,0,0,1,0,.21l-.25.61a.19.19,0,0,1-.17.13h-.23l-.27,0-.22-.09a1.36,1.36,0,0,1-.21-.17l-.62-.62a1.29,1.29,0,0,0-.21-.17s-.13-.07-.19,0,0,.19,0,.19a1.28,1.28,0,0,0,.17.21l.4.4a.66.66,0,0,1,.13.19c0,.05-.18.1-.25.1h-.07l-.27,0-.22-.09a1.4,1.4,0,0,1-.21-.17l-.1-.1a1.35,1.35,0,0,0-.21-.17s-.13-.07-.19,0,0,.19,0,.19l.1.15a.47.47,0,0,1,.07.13c0,.05-.15.1-.2.1a.65.65,0,0,0-.22.05.22.22,0,0,0,0,.41.65.65,0,0,0,.22.05.5.5,0,0,1,.18,0c.05,0,0,.16,0,.18l-.1.15s-.07.13,0,.19.19,0,.19,0a1.29,1.29,0,0,0,.21-.16l.1-.1a1.37,1.37,0,0,1,.21-.17l.22-.09.27,0h.07a.63.63,0,0,1,.23,0c.05,0-.06.19-.11.25l-.4.4a1.3,1.3,0,0,0-.17.21s-.07.13,0,.19.19,0,.19,0a1.33,1.33,0,0,0,.21-.17l.62-.62a1.39,1.39,0,0,1,.21-.17l.22-.09.27,0h.23a.19.19,0,0,1,.17.13l.25.61a.19.19,0,0,1,0,.21l-.17.16a1.35,1.35,0,0,1-.21.17l-.22.09-.27,0h-.88l-.27,0s-.14,0-.14.12.14.12.14.12l.27,0h.56a.66.66,0,0,1,.23,0c.05,0-.06.19-.11.25l-.05.05a1.34,1.34,0,0,1-.21.17l-.22.09-.27,0h-.14l-.27,0s-.14,0-.14.12.14.12.14.12l.18,0,.14,0c.05,0,0,.18-.08.21a.68.68,0,0,0-.11.19.22.22,0,0,0,.29.29.68.68,0,0,0,.19-.11.52.52,0,0,1,.16-.1c.05,0,.1.14.1.16a1,1,0,0,0,0,.18s0,.14.12.14.12-.14.12-.14a1.35,1.35,0,0,0,0-.27V39a1.41,1.41,0,0,1,0-.27l.09-.22a1.4,1.4,0,0,1,.17-.21l.05-.05a.64.64,0,0,1,.19-.13c.05,0,.1.18.1.25v.56a1.25,1.25,0,0,0,0,.27s0,.14.12.14.12-.14.12-.14a1.25,1.25,0,0,0,0-.27v-.88a1.35,1.35,0,0,1,0-.27l.09-.22a1.45,1.45,0,0,1,.17-.21l.17-.17a.19.19,0,0,1,.21,0l.61.25a.19.19,0,0,1,.13.17v.23a1.39,1.39,0,0,1,0,.27l-.09.22a1.35,1.35,0,0,1-.17.21l-.62.62a1.31,1.31,0,0,0-.17.21s-.07.13,0,.19.19,0,.19,0a1.29,1.29,0,0,0,.21-.17l.4-.4a.67.67,0,0,1,.19-.13c.05,0,.1.18.1.25v.07a1.37,1.37,0,0,1,0,.27l-.09.22a1.4,1.4,0,0,1-.17.21l-.1.1a1.33,1.33,0,0,0-.17.21s-.07.13,0,.19.19,0,.19,0l.15-.1.13-.07c.05,0,.1.15.1.2a.67.67,0,0,0,.05.22.22.22,0,0,0,.41,0,.66.66,0,0,0,.05-.22.52.52,0,0,1,0-.18c0-.05.16,0,.18,0l.15.1s.13.07.19,0,0-.19,0-.19a1.3,1.3,0,0,0-.16-.21l-.1-.1a1.43,1.43,0,0,1-.17-.21l-.09-.22a1.39,1.39,0,0,1,0-.27v-.07a.65.65,0,0,1,0-.23c0-.05.19.06.25.11l.4.4a1.29,1.29,0,0,0,.21.17s.13.07.19,0,0-.19,0-.19a1.29,1.29,0,0,0-.17-.21l-.62-.62a1.41,1.41,0,0,1-.17-.21l-.09-.22a1.39,1.39,0,0,1,0-.27v-.23a.19.19,0,0,1,.13-.17l.61-.25a.19.19,0,0,1,.21,0l.16.17a1.35,1.35,0,0,1,.17.21l.09.22a1.38,1.38,0,0,1,0,.27v.88a1.25,1.25,0,0,0,0,.27s0,.14.12.14.12-.14.12-.14a1.28,1.28,0,0,0,0-.27v-.56a.65.65,0,0,1,0-.23c0-.05.19.06.25.11l.05.05a1.32,1.32,0,0,1,.17.21l.09.22a1.38,1.38,0,0,1,0,.27v.14a1.26,1.26,0,0,0,0,.27s0,.14.12.14.12-.14.12-.14a1,1,0,0,0,0-.18.47.47,0,0,1,0-.14c0-.05.18,0,.21.08a.66.66,0,0,0,.19.11A.22.22,0,0,0,36,39a.69.69,0,0,0-.11-.19.52.52,0,0,1-.1-.16c0-.05.14-.1.16-.1l.18,0s.14,0,.14-.12-.14-.12-.14-.12l-.27,0h-.14l-.27,0-.22-.09a1.39,1.39,0,0,1-.21-.17l-.05-.05a.65.65,0,0,1-.13-.19c0-.05.18-.1.25-.1h.56l.27,0s.14,0,.14-.12-.14-.12-.14-.12l-.27,0h-.88l-.27,0-.22-.09A1.4,1.4,0,0,1,34,37l-.16-.17a.19.19,0,0,1,0-.21l.25-.61a.19.19,0,0,1,.17-.13h.23l.27,0L35,36a1.36,1.36,0,0,1,.21.17l.62.62A1.3,1.3,0,0,0,36,37s.13.07.19,0,0-.19,0-.19a1.28,1.28,0,0,0-.17-.21l-.4-.4a.66.66,0,0,1-.13-.19c0-.05.18-.1.25-.1h.07l.27,0,.22.09a1.4,1.4,0,0,1,.21.17l.1.1a1.27,1.27,0,0,0,.21.16s.13.07.19,0,0-.19,0-.19l-.1-.15a.45.45,0,0,1-.07-.13c0-.05.16-.1.2-.1a.66.66,0,0,0,.22-.05.22.22,0,0,0,0-.41Z" style="fill:#b6d7e1"/><rect width="49" height="49" style="fill:none"/></svg>