<svg xmlns="http://www.w3.org/2000/svg" viewBox="0 0 46.4 46.4"><title>Asset 1</title><circle cx="23.2" cy="23.2" r="14.65" transform="translate(-8.59 15.1) rotate(-30.7)" style="fill:#fecd81"/><path d="M11.45,11.81l.35-.35L7.15,6.8a.25.25,0,0,0-.35.35Z" style="fill:#fecd81"/><path d="M15.44,4.46a.25.25,0,0,0-.14.33l1.41,3.4L17.17,8l-1.41-3.4A.25.25,0,0,0,15.44,4.46Z" style="fill:#fecd81"/><path d="M23.2,0a.25.25,0,0,0-.25.25V6.84h.5V.25A.25.25,0,0,0,23.2,0Z" style="fill:#fecd81"/><path d="M8,17.17l.19-.46L4.78,15.3a.25.25,0,1,0-.19.46Z" style="fill:#fecd81"/><path d="M38.4,17.17l3.4-1.41a.25.25,0,1,0-.19-.46l-3.4,1.41C38.28,16.86,38.34,17,38.4,17.17Z" style="fill:#fecd81"/><path d="M6.84,22.95H.25a.25.25,0,0,0,0,.5H6.84C6.83,23.28,6.84,23.12,6.84,22.95Z" style="fill:#fecd81"/><path d="M39.6,7.15a.25.25,0,1,0-.35-.35l-4.66,4.66.35.35Z" style="fill:#fecd81"/><path d="M31.1,4.78a.25.25,0,0,0-.46-.19L29.23,8l.46.19Z" style="fill:#fecd81"/><path d="M46.15,22.95H39.56c0,.17,0,.33,0,.5h6.59a.25.25,0,0,0,0-.5Z" style="fill:#fecd81"/><path d="M34.94,34.59l-.35.35,4.66,4.66a.25.25,0,0,0,.35-.35Z" style="fill:#fecd81"/><path d="M38.41,29.23l-.19.46,3.4,1.41.1,0a.25.25,0,0,0,.1-.48Z" style="fill:#fecd81"/><path d="M8,29.23l-3.4,1.41a.25.25,0,0,0,.1.48l.1,0,3.4-1.41C8.11,29.54,8.05,29.38,8,29.23Z" style="fill:#fecd81"/><path d="M29.23,38.41l1.41,3.4a.25.25,0,0,0,.23.15l.1,0a.25.25,0,0,0,.14-.33l-1.41-3.39Z" style="fill:#fecd81"/><path d="M6.79,39.25a.25.25,0,1,0,.35.35l4.66-4.66-.35-.35Z" style="fill:#fecd81"/><path d="M15.3,41.62a.25.25,0,0,0,.14.33l.1,0a.25.25,0,0,0,.23-.15l1.41-3.4-.46-.19Z" style="fill:#fecd81"/><path d="M22.95,46.15a.25.25,0,0,0,.5,0V39.56h-.5Z" style="fill:#fecd81"/></svg>