<svg xmlns="http://www.w3.org/2000/svg" viewBox="0 0 44.84 45.38"><title>Asset 19</title><path d="M9,14.44c-3.1,2,2.4,9,7.34,13.85,6.74,6.6,10.56,10,6.45,17.08,6.21-6.6,7.9-11.18,8-14.8.14-4.23-2.84-7.51,5-10.28C43.89,17.44,15.49,10.23,9,14.44Z" style="fill:#d0d3cd"/><path d="M9,14.44c13.13,11.81,19.84,9.33,21.81,16.13.14-4.23-2.84-7.51,5-10.28C43.89,17.44,15.49,10.23,9,14.44Z" style="fill:#bbbfb7"/><path d="M9,14.44c-3.1,2,2.4,9,7.34,13.85,6.74,6.6,10.56,10,6.45,17.08,5.18-7,4.84-12.85,1.78-14.8C13.88,23.77,15.49,10.23,9,14.44Z" style="fill:#e9eae8"/><path d="M40.76,11.7a2.11,2.11,0,0,0,0-.24c0-2-2.32-3.55-5.18-3.55a7.13,7.13,0,0,0-2.52.45,7.48,7.48,0,0,0-5.35-2.11c-3.48,0-6.37,2.1-6.85,4.93-3.19.64-5.4,2.63-5.4,4.9,0,2.82,3.38,5.12,7.53,5.12a10.23,10.23,0,0,0,4-.8,5.85,5.85,0,0,0,3.56,1.47l.67,0a7.55,7.55,0,0,0,1.22-.1A6.26,6.26,0,0,0,34.66,21a10.7,10.7,0,0,0,2.64.32c4.15,0,7.53-2.3,7.53-5.12C44.84,14.33,43.25,12.57,40.76,11.7Z" style="fill:#5da7bd"/><path d="M18.94,14a1.66,1.66,0,0,0,0-.18c0-1.45-1.53-2.64-3.41-2.64a4.22,4.22,0,0,0-1.66.33A4.65,4.65,0,0,0,10.35,10a4.46,4.46,0,0,0-4.52,3.67c-2.1.47-3.56,2-3.56,3.65,0,2.1,2.23,3.81,5,3.81a6.1,6.1,0,0,0,2.67-.6,3.65,3.65,0,0,0,2.35,1.09l.44,0a4.42,4.42,0,0,0,.8-.07A3.84,3.84,0,0,0,14.92,21a6.33,6.33,0,0,0,1.74.24c2.74,0,5-1.71,5-3.81A3.84,3.84,0,0,0,18.94,14Z" style="fill:#8ac0cf"/><path d="M24.85,5.89a2.33,2.33,0,0,0,0-.26c0-2.11-2.28-3.83-5.09-3.83a6.45,6.45,0,0,0-2.48.48A7,7,0,0,0,12,0,6.61,6.61,0,0,0,5.3,5.33C2.17,6,0,8.17,0,10.63c0,3.05,3.32,5.53,7.4,5.53a9.28,9.28,0,0,0,4-.87,5.49,5.49,0,0,0,3.5,1.59c.21,0,.43,0,.66,0a6.73,6.73,0,0,0,1.2-.11A5.84,5.84,0,0,0,18.86,16a9.63,9.63,0,0,0,2.6.35c4.08,0,7.4-2.48,7.4-5.53C28.86,8.74,27.29,6.83,24.85,5.89Z" style="fill:#cae2e9"/></svg>