<svg xmlns="http://www.w3.org/2000/svg" viewBox="0 0 49 49"><title>tstorms</title><rect width="49" height="49" style="fill:none"/><path d="M15,33.4a.35.35,0,0,0-.34.21l-3.8,9.83c0,.13.08.25.3.27a.47.47,0,0,0,.47-.2l3.54-9.86A.18.18,0,0,0,15,33.4Z" style="fill:#8ac0cf"/><path d="M19.16,33.06a.28.28,0,0,0-.27.17l-3,7.83c0,.1.07.2.24.21a.37.37,0,0,0,.37-.16l2.82-7.85A.14.14,0,0,0,19.16,33.06Z" style="fill:#8ac0cf"/><path d="M32.88,31.56a.35.35,0,0,0-.34.21l-3.82,9.88c0,.13.08.25.3.27a.47.47,0,0,0,.47-.2L33,31.81A.18.18,0,0,0,32.88,31.56Z" style="fill:#8ac0cf"/><polygon points="32.93 25.89 23.08 28 28.33 18.48 24.17 18.48 18.39 31.93 27.83 29.56 22 42.34 32.93 25.89" style="fill:#fecd81"/><path d="M38.72,14.47c0-.13,0-.26,0-.38,0-3.05-2.82-5.54-6.29-5.54a7,7,0,0,0-3.06.7A8.15,8.15,0,0,0,22.88,6a8.57,8.57,0,0,0-8.33,7.7C10.67,14.65,8,17.76,8,21.31c0,4.41,4.11,8,9.16,8a5.48,5.48,0,0,0,1-.1l5.16-12h7.13l-4.89,9L35.73,24l-3.24,5.14a6.06,6.06,0,0,0,2,.41c5,0,9.16-3.59,9.16-8A8,8,0,0,0,38.72,14.47Z" style="fill:#8ac0cf"/><path d="M36.67,31.36a.35.35,0,0,0-.34.21l-3.82,9.88c0,.13.08.25.3.27a.47.47,0,0,0,.47-.2l3.55-9.9A.18.18,0,0,0,36.67,31.36Z" style="fill:#8ac0cf"/></svg>