<svg xmlns="http://www.w3.org/2000/svg" viewBox="0 0 44.84 45.46"><title>Asset 20</title><path d="M40.76,11.7a2.11,2.11,0,0,0,0-.24c0-2-2.32-3.55-5.18-3.55a7.13,7.13,0,0,0-2.52.45,7.48,7.48,0,0,0-5.35-2.11c-3.48,0-6.37,2.1-6.85,4.93-3.19.64-5.39,2.63-5.39,4.9,0,2.82,3.38,5.12,7.53,5.12a10.23,10.23,0,0,0,4-.8,5.85,5.85,0,0,0,3.56,1.47l.67,0a7.55,7.55,0,0,0,1.22-.1A6.26,6.26,0,0,0,34.66,21a10.7,10.7,0,0,0,2.64.32c4.15,0,7.53-2.3,7.53-5.12C44.84,14.33,43.25,12.57,40.76,11.7Z" style="fill:#5da7bd"/><path d="M18.94,14a1.68,1.68,0,0,0,0-.18c0-1.45-1.53-2.64-3.41-2.64a4.22,4.22,0,0,0-1.66.33A4.65,4.65,0,0,0,10.35,10a4.46,4.46,0,0,0-4.52,3.67c-2.1.47-3.56,2-3.56,3.65,0,2.1,2.23,3.81,5,3.81a6.1,6.1,0,0,0,2.67-.6,3.65,3.65,0,0,0,2.35,1.09l.44,0a4.42,4.42,0,0,0,.8-.07A3.84,3.84,0,0,0,14.92,21a6.33,6.33,0,0,0,1.74.24c2.74,0,5-1.71,5-3.81A3.84,3.84,0,0,0,18.94,14Z" style="fill:#8ac0cf"/><path d="M24.85,5.89a2.35,2.35,0,0,0,0-.26c0-2.11-2.28-3.83-5.09-3.83a6.45,6.45,0,0,0-2.48.48A7,7,0,0,0,12,0,6.61,6.61,0,0,0,5.3,5.33C2.17,6,0,8.17,0,10.63c0,3.05,3.32,5.53,7.4,5.53a9.28,9.28,0,0,0,4-.87,5.49,5.49,0,0,0,3.5,1.59c.21,0,.43,0,.66,0a6.73,6.73,0,0,0,1.2-.11A5.83,5.83,0,0,0,18.86,16a9.63,9.63,0,0,0,2.6.35c4.08,0,7.4-2.48,7.4-5.53C28.86,8.74,27.29,6.83,24.85,5.89Z" style="fill:#cae2e9"/><path d="M34.93,28.42a4.74,4.74,0,1,0-9.48,0h.75a4,4,0,1,1,4,4H5.27v.75H30.19A4.74,4.74,0,0,0,34.93,28.42Z" style="fill:#bbbfb7"/><path d="M35.26,35.45H14v.75H35.26a4.11,4.11,0,0,0,4.1-4.1h-.75A3.36,3.36,0,0,1,35.26,35.45Z" style="fill:#bbbfb7"/><path d="M27.39,38.36H9.25v.75H27.39a2.8,2.8,0,1,1-2.8,2.8h-.75a3.55,3.55,0,1,0,3.55-3.55Z" style="fill:#bbbfb7"/></svg>